<svg width="3498" height="2250" viewBox="0 0 3498 2250" fill="none" xmlns="http://www.w3.org/2000/svg">
<path d="M1030.71 1164.59H110.042L178.112 508.745H1106.57L1030.71 1164.59Z" fill="#F5F5F5"/>
<path d="M211.271 1054.55C210.424 1054.55 219.97 955.804 232.511 834.238C245.052 712.673 255.898 613.929 256.689 613.929C257.48 613.929 247.989 712.616 235.449 834.238C222.908 955.86 212.062 1054.6 211.271 1054.55Z" fill="#E0E0E0"/>
<path d="M378.876 636.242C363.519 637.697 348.086 638.187 332.667 637.711C317.249 638.187 301.816 637.697 286.459 636.242C301.814 634.754 317.249 634.263 332.667 634.773C348.086 634.263 363.521 634.754 378.876 636.242V636.242Z" fill="#E0E0E0"/>
<path d="M772.1 636.242C772.1 637.033 689.681 637.711 588.057 637.711C486.432 637.711 403.957 637.033 403.957 636.242C403.957 635.451 486.375 634.773 588.057 634.773C689.738 634.773 772.1 635.395 772.1 636.242Z" fill="#E0E0E0"/>
<path d="M367.973 869.262C352.618 870.75 337.183 871.241 321.765 870.73C306.346 871.241 290.911 870.75 275.556 869.262C290.913 867.807 306.346 867.317 321.765 867.793C337.183 867.317 352.616 867.807 367.973 869.262Z" fill="#E0E0E0"/>
<path d="M761.197 869.262C761.197 870.109 678.779 870.73 577.154 870.73C475.529 870.73 393.055 870.109 393.055 869.262C393.055 868.414 475.473 867.793 577.154 867.793C678.835 867.793 761.197 868.471 761.197 869.262Z" fill="#E0E0E0"/>
<path d="M635.79 976.987C635.79 977.835 553.372 978.456 451.747 978.456C350.123 978.456 267.648 977.835 267.648 976.987C267.648 976.14 350.066 975.519 451.747 975.519C553.429 975.519 635.79 975.914 635.79 976.987Z" fill="#E0E0E0"/>
<path d="M419.605 702.053C419.605 702.843 390.513 703.521 354.585 703.521C318.658 703.521 289.566 702.843 289.566 702.053C289.566 701.262 318.714 700.527 354.585 700.527C390.456 700.527 419.605 701.205 419.605 702.053Z" fill="#E0E0E0"/>
<path d="M416.328 798.48C416.328 799.328 387.18 799.949 351.309 799.949C315.438 799.949 286.289 799.328 286.289 798.48C286.289 797.633 315.381 797.011 351.309 797.011C387.236 797.011 416.328 797.689 416.328 798.48Z" fill="#E0E0E0"/>
<path d="M526.257 936.371C526.257 937.162 497.108 937.84 461.237 937.84C425.367 937.84 396.218 937.162 396.218 936.371C396.218 935.58 425.31 934.903 461.237 934.903C497.165 934.903 526.257 935.524 526.257 936.371Z" fill="#E0E0E0"/>
<path d="M892.536 702.053C892.536 702.843 818.195 703.521 726.456 703.521C634.717 703.521 560.32 702.843 560.32 702.053C560.32 701.262 634.717 700.527 726.456 700.527C818.195 700.527 892.536 701.205 892.536 702.053Z" fill="#E0E0E0"/>
<path d="M790.12 804.073C790.12 804.92 715.78 805.541 624.041 805.541C532.301 805.541 457.961 804.92 457.961 804.073C457.961 803.225 532.301 802.604 624.041 802.604C715.78 802.604 790.12 803.282 790.12 804.073Z" fill="#E0E0E0"/>
<path d="M904.455 936.371C904.455 937.162 830.058 937.84 738.375 937.84C646.693 937.84 572.24 937.162 572.24 936.371C572.24 935.58 646.636 934.903 738.375 934.903C830.115 934.903 904.455 935.524 904.455 936.371Z" fill="#E0E0E0"/>
<path d="M601.162 1054.55C601.162 1055.34 526.765 1056.02 435.026 1056.02C343.287 1056.02 268.947 1055.34 268.947 1054.55C268.947 1053.76 343.287 1053.08 435.026 1053.08C526.765 1053.08 601.162 1053.7 601.162 1054.55Z" fill="#E0E0E0"/>
<path d="M968.514 1054.55C968.514 1055.34 894.117 1056.02 802.435 1056.02C710.752 1056.02 636.299 1055.34 636.299 1054.55C636.299 1053.76 710.639 1053.08 802.435 1053.08C894.23 1053.08 968.514 1053.7 968.514 1054.55Z" fill="#E0E0E0"/>
<path d="M601.106 1092.96C601.106 1093.81 526.765 1094.43 435.026 1094.43C343.287 1094.43 268.89 1093.81 268.89 1092.96C268.89 1092.11 343.287 1091.49 435.026 1091.49C526.765 1091.49 601.106 1092.17 601.106 1092.96Z" fill="#E0E0E0"/>
<path d="M617.262 729.732C617.262 730.523 542.921 731.201 451.182 731.201C359.443 731.201 285.046 730.523 285.046 729.732C285.046 728.942 359.443 728.264 451.182 728.264C542.921 728.264 617.262 728.885 617.262 729.732Z" fill="#E0E0E0"/>
<path d="M528.686 702.392C514.481 703.846 500.195 704.336 485.923 703.86C471.634 704.337 457.328 703.846 443.104 702.392C457.326 700.903 471.634 700.413 485.923 700.923C500.195 700.413 514.484 700.904 528.686 702.392V702.392Z" fill="#E0E0E0"/>
<path d="M357.127 900.952C342.904 902.407 328.598 902.898 314.308 902.421C300.037 902.897 285.75 902.406 271.545 900.952C285.75 899.498 300.037 899.008 314.308 899.484C328.598 899.007 342.904 899.498 357.127 900.952V900.952Z" fill="#E0E0E0"/>
<path d="M355.094 936.371C340.889 937.826 326.602 938.316 312.331 937.84C298.041 938.317 283.735 937.826 269.512 936.371C283.733 934.883 298.041 934.392 312.331 934.903C326.602 934.393 340.891 934.884 355.094 936.371V936.371Z" fill="#E0E0E0"/>
<path d="M1096.41 578.114C1096.41 578.962 889.372 579.583 634.039 579.583C378.706 579.583 171.559 578.962 171.559 578.114C171.559 577.267 378.593 576.646 634.039 576.646C889.485 576.646 1096.41 577.324 1096.41 578.114Z" fill="#E0E0E0"/>
<path d="M233.98 557.835C240.032 557.835 244.939 552.928 244.939 546.876C244.939 540.823 240.032 535.917 233.98 535.917C227.927 535.917 223.021 540.823 223.021 546.876C223.021 552.928 227.927 557.835 233.98 557.835Z" fill="white"/>
<path d="M281.036 557.835C287.088 557.835 291.995 552.928 291.995 546.876C291.995 540.823 287.088 535.917 281.036 535.917C274.983 535.917 270.077 540.823 270.077 546.876C270.077 552.928 274.983 557.835 281.036 557.835Z" fill="white"/>
<path d="M328.092 557.835C334.144 557.835 339.051 552.928 339.051 546.876C339.051 540.823 334.144 535.917 328.092 535.917C322.039 535.917 317.133 540.823 317.133 546.876C317.133 552.928 322.039 557.835 328.092 557.835Z" fill="white"/>
<path d="M3421.29 836.667H2500.62L2568.69 180.88H3497.16L3421.29 836.667Z" fill="#F5F5F5"/>
<path d="M2601.85 726.626C2601.06 726.626 2610.55 627.882 2623.09 506.316C2635.63 384.751 2646.48 286.007 2647.27 286.346C2648.06 286.685 2638.57 385.033 2626.03 506.655C2613.49 628.277 2602.65 726.682 2601.85 726.626Z" fill="#E0E0E0"/>
<path d="M2769.46 308.32C2738.68 310.278 2707.82 310.278 2677.04 308.32C2707.82 306.362 2738.68 306.362 2769.46 308.32V308.32Z" fill="#E0E0E0"/>
<path d="M3162.74 308.32C3162.74 309.111 3080.32 309.789 2978.64 309.789C2876.96 309.789 2794.54 309.111 2794.54 308.32C2794.54 307.529 2876.96 306.851 2978.64 306.851C3080.32 306.851 3162.74 307.529 3162.74 308.32Z" fill="#E0E0E0"/>
<path d="M2758.61 541.396C2727.82 543.354 2696.93 543.354 2666.14 541.396C2696.93 539.438 2727.82 539.438 2758.61 541.396Z" fill="#E0E0E0"/>
<path d="M3152.12 541.396C3152.12 542.187 3069.7 542.865 2968.02 542.865C2866.34 542.865 2783.92 542.187 2783.92 541.396C2783.92 540.605 2866.34 539.927 2968.02 539.927C3069.7 539.927 3152.12 540.549 3152.12 541.396Z" fill="#E0E0E0"/>
<path d="M3026.43 648.839C3026.43 649.63 2944.01 650.308 2842.33 650.308C2740.65 650.308 2658.23 649.63 2658.23 648.839C2658.23 648.049 2740.65 647.371 2842.33 647.371C2944.01 647.371 3026.43 647.992 3026.43 648.839Z" fill="#E0E0E0"/>
<path d="M2810.24 374.131C2810.24 374.921 2781.1 375.599 2745.22 375.599C2709.35 375.599 2680.21 374.921 2680.21 374.131C2680.21 373.34 2709.3 372.549 2745.39 372.549C2781.49 372.549 2810.24 373.283 2810.24 374.131Z" fill="#E0E0E0"/>
<path d="M2806.91 470.558C2806.91 471.406 2777.82 472.027 2741.89 472.027C2705.96 472.027 2676.87 471.406 2676.87 470.558C2676.87 469.711 2705.96 469.089 2741.89 469.089C2777.82 469.089 2806.91 469.767 2806.91 470.558Z" fill="#E0E0E0"/>
<path d="M2916.84 608.449C2916.84 609.24 2887.75 609.918 2851.82 609.918C2815.89 609.918 2786.8 609.24 2786.8 608.449C2786.8 607.658 2815.89 606.981 2851.82 606.981C2887.75 606.981 2916.84 607.658 2916.84 608.449Z" fill="#E0E0E0"/>
<path d="M3283.29 374.131C3283.29 374.921 3208.89 375.599 3117.15 375.599C3025.41 375.599 2951.07 374.921 2951.07 374.131C2951.07 373.34 3025.41 372.662 3117.15 372.662C3208.89 372.662 3283.29 373.283 3283.29 374.131Z" fill="#E0E0E0"/>
<path d="M3180.76 476.151C3180.76 476.998 3106.36 477.619 3014.62 477.619C2922.88 477.619 2848.54 476.998 2848.54 476.151C2848.54 475.303 2922.88 474.682 3014.62 474.682C3106.36 474.682 3180.76 475.36 3180.76 476.151Z" fill="#E0E0E0"/>
<path d="M3295.04 608.449C3295.04 609.24 3220.7 609.918 3128.96 609.918C3037.22 609.918 2962.88 609.24 2962.88 608.449C2962.88 607.658 3037.22 606.981 3128.96 606.981C3220.7 606.981 3295.04 607.658 3295.04 608.449Z" fill="#E0E0E0"/>
<path d="M2991.75 726.625C2991.75 727.416 2917.35 728.094 2825.67 728.094C2733.98 728.094 2659.53 727.416 2659.53 726.625C2659.53 725.835 2733.87 725.157 2825.67 725.157C2917.46 725.157 2991.75 725.778 2991.75 726.625Z" fill="#E0E0E0"/>
<path d="M3359.1 726.625C3359.1 727.416 3284.76 728.094 3193.02 728.094C3101.28 728.094 3026.88 727.416 3026.88 726.625C3026.88 725.835 3101.28 725.157 3193.02 725.157C3284.76 725.157 3359.1 725.778 3359.1 726.625Z" fill="#E0E0E0"/>
<path d="M2991.69 765.039C2991.69 765.886 2917.35 766.507 2825.61 766.507C2733.87 766.507 2659.53 765.886 2659.53 765.039C2659.53 764.191 2733.87 763.57 2825.61 763.57C2917.35 763.57 2991.69 764.248 2991.69 765.039Z" fill="#E0E0E0"/>
<path d="M3007.9 401.81C3007.9 402.601 2933.5 403.279 2841.77 403.279C2750.03 403.279 2675.69 402.601 2675.69 401.81C2675.69 401.02 2750.03 400.342 2841.77 400.342C2933.5 400.342 3007.9 400.794 3007.9 401.81Z" fill="#E0E0E0"/>
<path d="M2919.27 374.469C2890.79 376.428 2862.22 376.428 2833.74 374.469C2862.22 372.511 2890.79 372.511 2919.27 374.469V374.469Z" fill="#E0E0E0"/>
<path d="M2747.71 573.03C2719.22 574.989 2690.62 574.989 2662.13 573.03C2690.62 571.072 2719.22 571.072 2747.71 573.03Z" fill="#E0E0E0"/>
<path d="M2745.68 608.449C2717.2 610.408 2688.63 610.408 2660.15 608.449C2688.63 606.491 2717.2 606.491 2745.68 608.449V608.449Z" fill="#E0E0E0"/>
<path d="M3487.05 250.192C3487.05 251.04 3279.96 251.661 3024.62 251.661C2769.29 251.661 2562.2 251.04 2562.2 250.192C2562.2 249.345 2769.18 248.724 3024.62 248.724C3280.07 248.724 3487.05 249.401 3487.05 250.192Z" fill="#E0E0E0"/>
<path d="M2624.56 229.913C2630.62 229.913 2635.52 225.006 2635.52 218.954C2635.52 212.901 2630.62 207.995 2624.56 207.995C2618.51 207.995 2613.6 212.901 2613.6 218.954C2613.6 225.006 2618.51 229.913 2624.56 229.913Z" fill="white"/>
<path d="M2671.62 229.913C2677.67 229.913 2682.58 225.006 2682.58 218.954C2682.58 212.901 2677.67 207.995 2671.62 207.995C2665.57 207.995 2660.66 212.901 2660.66 218.954C2660.66 225.006 2665.57 229.913 2671.62 229.913Z" fill="white"/>
<path d="M2718.67 229.913C2724.73 229.913 2729.63 225.006 2729.63 218.954C2729.63 212.901 2724.73 207.995 2718.67 207.995C2712.62 207.995 2707.72 212.901 2707.72 218.954C2707.72 225.006 2712.62 229.913 2718.67 229.913Z" fill="white"/>
<path d="M1490.31 408.476H916.883L959.25 0H1537.53L1490.31 408.476Z" fill="#EBEBEB"/>
<path d="M979.925 339.898C979.134 339.898 984.783 278.381 992.579 202.685C1000.37 126.989 1007.38 65.6409 1008.23 65.6974C1009.07 65.7539 1003.37 127.271 995.516 202.967C987.664 278.663 980.716 340.011 979.925 339.898Z" fill="#E0E0E0"/>
<path d="M1084.6 79.3678C1065.46 81.3262 1046.17 81.3262 1027.04 79.3678C1046.17 77.4095 1065.46 77.4095 1084.6 79.3678V79.3678Z" fill="#E0E0E0"/>
<path d="M1329.26 79.3678C1329.26 80.2151 1277.91 80.8365 1214.58 80.8365C1151.26 80.8365 1099.91 80.2151 1099.91 79.3678C1099.91 78.5204 1151.26 77.899 1214.58 77.899C1277.91 77.899 1329.26 78.8029 1329.26 79.3678Z" fill="#E0E0E0"/>
<path d="M1077.54 224.546C1058.4 226.505 1039.11 226.505 1019.98 224.546C1039.11 222.588 1058.4 222.588 1077.54 224.546Z" fill="#E0E0E0"/>
<path d="M1322.48 224.546C1322.48 225.337 1271.13 226.015 1207.8 226.015C1144.48 226.015 1093.13 225.337 1093.13 224.546C1093.13 223.755 1144.48 223.077 1207.8 223.077C1271.13 223.077 1322.48 223.755 1322.48 224.546Z" fill="#E0E0E0"/>
<path d="M1244.35 291.43C1244.35 292.277 1193 292.899 1129.68 292.899C1066.35 292.899 1015.06 292.277 1015.06 291.43C1015.06 290.582 1066.35 289.961 1129.68 289.961C1193 289.961 1244.35 290.639 1244.35 291.43Z" fill="#E0E0E0"/>
<path d="M1109.68 120.379C1096.23 121.833 1082.7 122.324 1069.18 121.848C1055.68 122.325 1042.16 121.834 1028.73 120.379C1042.16 118.891 1055.68 118.4 1069.18 118.91C1082.7 118.401 1096.24 118.892 1109.68 120.379V120.379Z" fill="#E0E0E0"/>
<path d="M1107.65 180.484C1094.2 181.971 1080.66 182.462 1067.14 181.953C1053.63 182.462 1040.09 181.971 1026.64 180.484C1040.09 179.031 1053.63 178.54 1067.14 179.015C1080.66 178.54 1094.2 179.031 1107.65 180.484V180.484Z" fill="#E0E0E0"/>
<path d="M1176.11 266.292C1162.67 267.779 1149.13 268.27 1135.61 267.761C1122.09 268.27 1108.55 267.779 1095.11 266.292C1108.56 264.838 1122.09 264.348 1135.61 264.823C1149.13 264.348 1162.66 264.838 1176.11 266.292Z" fill="#E0E0E0"/>
<path d="M1404.33 120.379C1404.33 121.17 1358.01 121.848 1300.9 121.848C1243.79 121.848 1197.58 121.17 1197.58 120.379C1197.58 119.588 1243.9 118.911 1301.07 118.911C1358.24 118.911 1404.33 119.532 1404.33 120.379Z" fill="#E0E0E0"/>
<path d="M1340.44 183.93C1340.44 184.721 1294.12 185.399 1237.01 185.399C1179.9 185.399 1133.58 184.721 1133.58 183.93C1133.58 183.139 1179.9 182.461 1237.01 182.461C1294.12 182.461 1340.44 183.139 1340.44 183.93Z" fill="#E0E0E0"/>
<path d="M1411.67 266.292C1411.67 267.139 1365.35 267.761 1308.24 267.761C1251.13 267.761 1204.75 267.139 1204.75 266.292C1204.75 265.445 1251.07 264.823 1308.24 264.823C1365.41 264.823 1411.67 265.501 1411.67 266.292Z" fill="#E0E0E0"/>
<path d="M1222.77 339.898C1222.77 340.745 1176.45 341.367 1119.28 341.367C1062.12 341.367 1015.85 340.745 1015.85 339.898C1015.85 339.051 1062.17 338.429 1119.28 338.429C1176.4 338.429 1222.77 339.107 1222.77 339.898Z" fill="#E0E0E0"/>
<path d="M1451.78 339.898C1451.78 340.745 1405.46 341.367 1348.35 341.367C1291.24 341.367 1244.86 340.745 1244.86 339.898C1244.86 339.051 1291.18 338.429 1348.35 338.429C1405.52 338.429 1451.78 339.107 1451.78 339.898Z" fill="#E0E0E0"/>
<path d="M1222.72 363.849C1222.72 364.697 1176.4 365.318 1119.28 365.318C1062.17 365.318 1015.85 364.697 1015.85 363.849C1015.85 363.002 1062.12 362.381 1119.28 362.381C1176.45 362.381 1222.72 363.059 1222.72 363.849Z" fill="#E0E0E0"/>
<path d="M1232.77 137.609C1232.77 138.456 1186.45 139.077 1129.34 139.077C1072.23 139.077 1025.91 138.456 1025.91 137.609C1025.91 136.761 1072.23 136.14 1129.34 136.14C1186.45 136.14 1232.77 136.818 1232.77 137.609Z" fill="#E0E0E0"/>
<path d="M1177.64 120.605C1159.92 122.562 1142.03 122.562 1124.31 120.605C1142.03 118.648 1159.92 118.648 1177.64 120.605V120.605Z" fill="#E0E0E0"/>
<path d="M1070.76 244.261C1053.06 246.219 1035.19 246.219 1017.49 244.261C1035.19 242.303 1053.06 242.303 1070.76 244.261V244.261Z" fill="#E0E0E0"/>
<path d="M1069.52 266.292C1051.8 268.249 1033.91 268.249 1016.19 266.292C1033.91 264.335 1051.8 264.335 1069.52 266.292V266.292Z" fill="#E0E0E0"/>
<path d="M1531.21 43.2145C1531.21 44.0054 1402.3 44.6833 1243.11 44.6833C1083.92 44.6833 955.013 44.0054 955.013 43.2145C955.013 42.4237 1083.92 41.7458 1243.11 41.7458C1402.3 41.7458 1531.21 42.3672 1531.21 43.2145Z" fill="#E0E0E0"/>
<path d="M1000.88 23.7256C1000.84 25.074 1000.39 26.379 999.609 27.4761C998.824 28.5732 997.731 29.4134 996.469 29.8907C995.207 30.3681 993.832 30.4613 992.518 30.1586C991.203 29.8558 990.007 29.1708 989.081 28.1897C988.155 27.2085 987.539 25.9753 987.313 24.6452C987.086 23.3151 987.259 21.9477 987.808 20.7153C988.357 19.4829 989.259 18.4406 990.399 17.7197C991.54 16.9989 992.868 16.6317 994.217 16.6644C995.119 16.6862 996.009 16.8867 996.833 17.2542C997.658 17.6218 998.402 18.149 999.022 18.8055C999.641 19.4621 1000.12 20.2349 1000.44 21.0793C1000.76 21.9238 1000.91 22.8232 1000.88 23.7256V23.7256Z" fill="white"/>
<path d="M1030.2 23.7256C1030.16 25.067 1029.72 26.3656 1028.94 27.4596C1028.16 28.5535 1027.08 29.3943 1025.83 29.8772C1024.58 30.3601 1023.21 30.4636 1021.9 30.1749C1020.59 29.8862 1019.39 29.218 1018.46 28.2537C1017.52 27.2894 1016.9 26.0716 1016.65 24.7522C1016.4 23.4329 1016.55 22.0703 1017.07 20.8344C1017.6 19.5985 1018.47 18.5441 1019.59 17.8025C1020.71 17.061 1022.02 16.6652 1023.37 16.6644C1024.28 16.6639 1025.19 16.8479 1026.03 17.2055C1026.88 17.563 1027.64 18.0868 1028.28 18.7456C1028.92 19.4045 1029.42 20.1849 1029.75 21.0404C1030.08 21.896 1030.23 22.8092 1030.2 23.7256Z" fill="white"/>
<path d="M1059.52 23.7256C1059.47 25.067 1059.04 26.3656 1058.26 27.4596C1057.48 28.5535 1056.4 29.3943 1055.15 29.8772C1053.89 30.3601 1052.53 30.4636 1051.22 30.1749C1049.91 29.8862 1048.71 29.218 1047.78 28.2537C1046.84 27.2894 1046.21 26.0716 1045.97 24.7522C1045.72 23.4329 1045.87 22.0703 1046.39 20.8344C1046.92 19.5985 1047.79 18.5441 1048.91 17.8025C1050.03 17.061 1051.34 16.6652 1052.68 16.6644C1053.6 16.6639 1054.51 16.8479 1055.35 17.2055C1056.2 17.563 1056.96 18.0868 1057.6 18.7456C1058.24 19.4045 1058.74 20.1849 1059.06 21.0404C1059.39 21.896 1059.55 22.8092 1059.52 23.7256V23.7256Z" fill="white"/>
<path d="M3048.74 1121.32H2759.97V2056H3048.74V1121.32Z" fill="#EBEBEB"/>
<path d="M3293.91 1121.49H3048.74V2055.83H3293.91V1121.49Z" fill="#E0E0E0"/>
<path d="M3014.17 1159.17H2782.51V1360.5H3014.17V1159.17Z" fill="#E0E0E0"/>
<path d="M3014.17 1383.32H2782.51V1584.65H3014.17V1383.32Z" fill="#E0E0E0"/>
<path d="M3014.17 1607.47H2782.51V1808.8H3014.17V1607.47Z" fill="#E0E0E0"/>
<path d="M3014.17 1831.67H2782.51V2033H3014.17V1831.67Z" fill="#E0E0E0"/>
<path d="M2898.37 1196.34C2898.38 1197.94 2897.91 1199.5 2897.03 1200.84C2896.15 1202.18 2894.9 1203.22 2893.42 1203.84C2891.95 1204.46 2890.32 1204.63 2888.75 1204.32C2887.18 1204.02 2885.73 1203.25 2884.6 1202.12C2883.46 1201 2882.69 1199.56 2882.37 1197.99C2882.06 1196.42 2882.21 1194.79 2882.82 1193.31C2883.43 1191.84 2884.47 1190.57 2885.8 1189.68C2887.13 1188.79 2888.69 1188.31 2890.29 1188.31C2892.42 1188.31 2894.47 1189.16 2895.98 1190.66C2897.5 1192.16 2898.35 1194.2 2898.37 1196.34Z" fill="#FAFAFA"/>
<path d="M2898.37 1423.25C2898.38 1424.86 2897.91 1426.42 2897.03 1427.76C2896.15 1429.09 2894.9 1430.14 2893.42 1430.76C2891.95 1431.38 2890.32 1431.55 2888.75 1431.24C2887.18 1430.94 2885.73 1430.17 2884.6 1429.04C2883.46 1427.92 2882.69 1426.48 2882.37 1424.91C2882.06 1423.34 2882.21 1421.71 2882.82 1420.23C2883.43 1418.75 2884.47 1417.49 2885.8 1416.6C2887.13 1415.71 2888.69 1415.23 2890.29 1415.23C2892.42 1415.23 2894.47 1416.08 2895.98 1417.58C2897.5 1419.08 2898.35 1421.12 2898.37 1423.25V1423.25Z" fill="#FAFAFA"/>
<path d="M2898.37 1649.89C2898.37 1651.49 2897.89 1653.05 2897.01 1654.38C2896.12 1655.71 2894.86 1656.74 2893.38 1657.35C2891.91 1657.97 2890.28 1658.13 2888.71 1657.81C2887.15 1657.5 2885.71 1656.73 2884.58 1655.6C2883.45 1654.47 2882.68 1653.03 2882.37 1651.47C2882.06 1649.9 2882.22 1648.28 2882.83 1646.8C2883.44 1645.32 2884.47 1644.06 2885.8 1643.17C2887.13 1642.29 2888.69 1641.81 2890.29 1641.81C2892.43 1641.81 2894.49 1642.66 2896 1644.18C2897.52 1645.69 2898.37 1647.75 2898.37 1649.89V1649.89Z" fill="#FAFAFA"/>
<path d="M2898.37 1876.64C2898.38 1878.24 2897.91 1879.81 2897.03 1881.14C2896.15 1882.48 2894.9 1883.52 2893.42 1884.14C2891.95 1884.76 2890.32 1884.93 2888.75 1884.63C2887.18 1884.32 2885.73 1883.56 2884.6 1882.43C2883.46 1881.3 2882.69 1879.86 2882.37 1878.29C2882.06 1876.73 2882.21 1875.1 2882.82 1873.62C2883.43 1872.14 2884.47 1870.87 2885.8 1869.98C2887.13 1869.09 2888.69 1868.62 2890.29 1868.62C2892.42 1868.62 2894.47 1869.46 2895.98 1870.96C2897.5 1872.47 2898.35 1874.51 2898.37 1876.64V1876.64Z" fill="#FAFAFA"/>
<path d="M2793.35 2056H2759.97V2243.48H2793.35V2056Z" fill="#E0E0E0"/>
<path d="M3047.56 2056H3014.17V2243.48H3047.56V2056Z" fill="#E0E0E0"/>
<path d="M3290.29 2056H3256.91V2243.48H3290.29V2056Z" fill="#E0E0E0"/>
<path d="M334.079 2190.55C325.55 2183.27 306.456 2160.11 321.143 2133.16C326.792 2123.33 338.09 2118.42 348.428 2114.07C359.084 2110.47 369.139 2105.29 378.254 2098.7C394.467 2084.97 398.93 2062.15 409.663 2043.85C422.034 2022.89 445.082 2007.13 469.429 2008.26C497.278 2009.5 520.269 2032.16 531.059 2057.97C541.848 2083.79 541.961 2112.48 542.357 2140.39C542.357 2155.81 541.792 2173.21 530.381 2183.66C519.93 2193.26 504.113 2193.38 489.878 2192.93L337.356 2188.29" fill="#F5F5F5"/>
<path d="M625.396 1773.49H224.829L297.022 2201.74C298.486 2210.65 302.448 2218.96 308.448 2225.71C314.447 2232.46 322.238 2237.37 330.916 2239.87L332.328 2240.26C333.499 2240.63 334.686 2240.93 335.887 2241.17C338.745 2241.83 341.657 2242.22 344.586 2242.35V2242.75L346.564 2242.47H525.071C528.372 2242.45 531.664 2242.11 534.9 2241.45C545.305 2239.88 554.905 2234.93 562.223 2227.36C569.541 2219.8 574.172 2210.04 575.403 2199.59L610.088 1904.49L611.669 1892.74L625.396 1775.86V1773.49ZM549.813 2046.67H508.745L512.869 1922.4H560.49L549.813 2046.67ZM564.5 1922.4H604.043L589.356 2046.67H553.598L564.5 1922.4ZM447.059 2184.45L444.573 2076.5H503.774L500.159 2184.45H447.059ZM383.056 2076.5H440.619L443.161 2184.45H391.473L383.056 2076.5ZM387.519 2184.45H339.276C334.701 2155.3 328.713 2117.4 322.33 2076.5H379.158L387.519 2184.45ZM380.74 2046.67L371.024 1922.4H437.003L439.884 2046.67H380.74ZM443.895 2046.67L441.014 1922.4H508.802L504.622 2046.67H443.895ZM440.28 1892.57L437.625 1777.45H513.716L509.875 1892.57H440.28ZM436.326 1892.57H368.538L359.556 1777.45H433.501L436.326 1892.57ZM364.697 1892.57H293.181C290.639 1876.7 288.21 1861.61 286.063 1848.11C278.607 1801.57 275.782 1784.05 274.257 1777.45H355.884L364.697 1892.57ZM367.069 1922.4L376.729 2046.67H317.584C315.607 2034.08 313.574 2021.31 311.54 2008.54C306.908 1979.23 302.276 1949.85 297.926 1922.4H367.069ZM313.574 2046.67H274.878L253.977 1922.4H293.746L313.574 2046.67ZM318.262 2076.5C323.911 2113.84 329.956 2150.67 335.209 2184.45H298.039L279.849 2076.5H318.262ZM504.113 2184.45L507.728 2076.5H547.271L538.007 2184.45H504.113ZM514.055 1892.74L517.897 1777.61H573.087L563.258 1892.74H514.055ZM270.642 1777.61C272.223 1785.97 279.51 1831.28 289.34 1892.74H249.119L229.687 1777.61H270.642ZM573.143 2184.34H542.3L551.564 2076.39H585.967L573.143 2184.34ZM607.546 1892.46H567.212L577.098 1777.33H621.103L607.546 1892.46Z" fill="#E0E0E0"/>
<path d="M3265.1 2243.43C3265.1 2244.27 2534.01 2244.9 1632.55 2244.9C731.088 2244.9 0 2244.27 0 2243.43C0 2242.58 730.919 2241.96 1632.83 2241.96C2534.74 2241.96 3265.1 2242.64 3265.1 2243.43Z" fill="#263238"/>
<path d="M1825.63 1021.5H1199.16L1245.48 575.234H1877.26L1825.63 1021.5Z" fill="#263238"/>
<path d="M1793.77 1021.5H1167.24L1213.57 575.234H1845.35L1793.77 1021.5Z" fill="#455A64"/>
<path d="M1770.5 1001.28H1189.16L1232.15 587.209H1818.4L1770.5 1001.28Z" fill="#F5F5F5"/>
<path d="M1252.2 932.248C1251.36 932.248 1257.12 869.827 1265.08 793.114C1273.05 716.401 1280.05 654.149 1280.84 654.262C1281.64 654.375 1275.93 716.401 1267.97 793.396C1260 870.392 1253 932.304 1252.2 932.248Z" fill="#263238"/>
<path d="M1358.01 668.102C1338.61 670.061 1319.06 670.061 1299.66 668.102C1319.06 666.144 1338.61 666.144 1358.01 668.102Z" fill="#263238"/>
<path d="M1606.34 668.102C1606.34 668.893 1554.31 669.571 1490.08 669.571C1425.85 669.571 1373.88 668.893 1373.88 668.102C1373.88 667.311 1425.91 666.634 1490.08 666.634C1554.25 666.634 1606.34 667.311 1606.34 668.102Z" fill="#EF5B00"/>
<path d="M1351.17 815.258C1331.75 817.216 1312.19 817.216 1292.76 815.258C1312.19 813.299 1331.75 813.299 1351.17 815.258V815.258Z" fill="#263238"/>
<path d="M1599.45 815.258C1599.45 816.105 1547.42 816.727 1483.25 816.727C1419.08 816.727 1366.99 816.105 1366.99 815.258C1366.99 814.41 1419.02 813.789 1483.25 813.789C1547.48 813.789 1599.45 814.467 1599.45 815.258Z" fill="#EF5B00"/>
<path d="M1520.25 883.102C1520.25 883.893 1468.22 884.571 1404.05 884.571C1339.88 884.571 1287.79 883.893 1287.79 883.102C1287.79 882.311 1339.82 881.633 1404.05 881.633C1468.28 881.633 1520.25 882.311 1520.25 883.102Z" fill="#EF5B00"/>
<path d="M1383.99 709.622C1370.36 711.146 1356.64 711.655 1342.93 711.147C1329.22 711.655 1315.49 711.146 1301.86 709.622C1315.5 708.17 1329.22 707.679 1342.93 708.153C1356.63 707.679 1370.36 708.17 1383.99 709.622V709.622Z" fill="#EF5B00"/>
<path d="M1381.68 770.575C1368.04 772.027 1354.32 772.518 1340.61 772.043C1326.9 772.518 1313.18 772.027 1299.54 770.575C1313.18 769.089 1326.9 768.598 1340.61 769.106C1354.32 768.598 1368.04 769.089 1381.68 770.575V770.575Z" fill="#EF5B00"/>
<path d="M1451.1 857.625C1437.47 859.077 1423.74 859.568 1410.04 859.094C1396.33 859.57 1382.61 859.08 1368.97 857.625C1382.6 856.136 1396.33 855.646 1410.04 856.156C1423.74 855.648 1437.47 856.139 1451.1 857.625V857.625Z" fill="#EF5B00"/>
<path d="M1682.43 709.622C1682.43 710.47 1635.49 711.148 1577.58 711.148C1519.68 711.148 1472.68 710.47 1472.68 709.622C1472.68 708.775 1519.63 708.154 1577.58 708.154C1635.54 708.154 1682.43 708.831 1682.43 709.622Z" fill="#263238"/>
<path d="M1617.69 774.077C1617.69 774.924 1570.75 775.546 1512.85 775.546C1454.95 775.546 1407.95 774.924 1407.95 774.077C1407.95 773.23 1454.89 772.608 1512.85 772.608C1570.81 772.608 1617.69 773.286 1617.69 774.077Z" fill="#263238"/>
<path d="M1689.89 857.625C1689.89 858.416 1642.94 859.094 1585.04 859.094C1527.14 859.094 1480.03 858.359 1480.03 857.625C1480.03 856.891 1526.97 856.156 1584.93 856.156C1642.89 856.156 1689.89 856.778 1689.89 857.625Z" fill="#263238"/>
<path d="M1498.39 932.248C1498.39 933.039 1451.39 933.716 1393.49 933.716C1335.58 933.716 1288.58 933.039 1288.58 932.248C1288.58 931.457 1335.58 930.779 1393.49 930.779C1451.39 930.779 1498.39 931.4 1498.39 932.248Z" fill="#263238"/>
<path d="M1730.33 932.248C1730.33 933.039 1683.39 933.716 1625.49 933.716C1567.59 933.716 1520.59 933.039 1520.59 932.248C1520.59 931.457 1567.53 930.779 1625.49 930.779C1683.45 930.779 1730.33 931.4 1730.33 932.248Z" fill="#263238"/>
<path d="M1498.33 956.482C1498.33 957.329 1451.39 957.951 1393.49 957.951C1335.58 957.951 1288.58 957.329 1288.58 956.482C1288.58 955.635 1335.53 955.013 1393.49 955.013C1451.44 955.013 1498.33 955.691 1498.33 956.482Z" fill="#263238"/>
<path d="M1508.55 727.134C1508.55 727.925 1461.61 728.603 1403.71 728.603C1345.81 728.603 1298.81 727.925 1298.81 727.134C1298.81 726.343 1345.75 725.665 1403.71 725.665C1461.67 725.665 1508.55 726.343 1508.55 727.134Z" fill="#263238"/>
<path d="M1452.63 709.905C1434.66 711.863 1416.54 711.863 1398.57 709.905C1416.53 707.871 1434.67 707.871 1452.63 709.905V709.905Z" fill="#455A64"/>
<path d="M1344.45 835.255C1326.5 837.214 1308.4 837.214 1290.45 835.255C1308.4 833.297 1326.5 833.297 1344.45 835.255V835.255Z" fill="#455A64"/>
<path d="M1342.98 857.625C1325.04 859.583 1306.93 859.583 1288.98 857.625C1306.93 855.667 1325.04 855.667 1342.98 857.625V857.625Z" fill="#455A64"/>
<path d="M1811.11 631.441C1811.11 632.232 1680.4 632.909 1519.12 632.909C1357.84 632.909 1227.12 632.232 1227.12 631.441C1227.12 630.65 1357.84 629.915 1519.12 629.915C1680.4 629.915 1811.11 630.593 1811.11 631.441Z" fill="#263238"/>
<path d="M1273.44 611.669C1273.44 613.046 1273.04 614.391 1272.27 615.535C1271.5 616.679 1270.42 617.57 1269.14 618.094C1267.87 618.618 1266.47 618.752 1265.12 618.48C1263.77 618.207 1262.53 617.539 1261.56 616.562C1260.59 615.585 1259.94 614.341 1259.68 612.99C1259.41 611.638 1259.56 610.239 1260.09 608.971C1260.63 607.702 1261.53 606.621 1262.68 605.864C1263.83 605.108 1265.18 604.71 1266.55 604.721C1267.46 604.721 1268.36 604.901 1269.2 605.251C1270.04 605.601 1270.81 606.114 1271.45 606.76C1272.09 607.405 1272.59 608.172 1272.94 609.015C1273.28 609.857 1273.45 610.759 1273.44 611.669V611.669Z" fill="white"/>
<path d="M1303.16 611.669C1303.16 613.046 1302.75 614.391 1301.98 615.535C1301.22 616.679 1300.13 617.57 1298.86 618.094C1297.58 618.618 1296.18 618.752 1294.83 618.48C1293.48 618.207 1292.25 617.539 1291.28 616.562C1290.31 615.585 1289.65 614.341 1289.39 612.99C1289.13 611.638 1289.27 610.239 1289.81 608.971C1290.34 607.702 1291.24 606.621 1292.39 605.864C1293.54 605.108 1294.89 604.71 1296.27 604.721C1297.18 604.721 1298.08 604.901 1298.92 605.251C1299.76 605.601 1300.52 606.114 1301.16 606.76C1301.8 607.405 1302.31 608.172 1302.65 609.015C1302.99 609.857 1303.17 610.759 1303.16 611.669V611.669Z" fill="white"/>
<path d="M1333.15 611.669C1333.15 613.046 1332.75 614.391 1331.98 615.535C1331.21 616.679 1330.12 617.57 1328.85 618.094C1327.58 618.618 1326.18 618.752 1324.83 618.48C1323.48 618.207 1322.24 617.539 1321.27 616.562C1320.3 615.585 1319.65 614.341 1319.38 612.99C1319.12 611.638 1319.27 610.239 1319.8 608.971C1320.34 607.702 1321.24 606.621 1322.39 605.864C1323.54 605.108 1324.89 604.71 1326.26 604.721C1327.17 604.721 1328.07 604.901 1328.91 605.251C1329.75 605.601 1330.52 606.114 1331.16 606.76C1331.8 607.405 1332.3 608.172 1332.65 609.015C1332.99 609.857 1333.16 610.759 1333.15 611.669V611.669Z" fill="white"/>
<path d="M2648.63 1035.06H1989.62L2038.31 565.574H2702.97L2648.63 1035.06Z" fill="#263238"/>
<path d="M2615.07 1035.06H1956.06L2004.82 565.574H2669.42L2615.07 1035.06Z" fill="#455A64"/>
<path d="M2590.67 1013.76H1979.17L2024.36 578.171H2641.06L2590.67 1013.76Z" fill="#EBEBEB"/>
<path d="M2045.77 934.564C2044.98 934.564 2051.08 868.923 2059.38 788.199C2067.69 707.476 2075.15 642.061 2075.94 642.174C2076.73 642.287 2070.63 707.758 2062.32 788.538C2054.02 869.318 2046.56 934.62 2045.77 934.564Z" fill="#263238"/>
<path d="M2157.11 656.748C2136.69 658.706 2116.13 658.706 2095.71 656.748C2116.12 654.714 2136.69 654.714 2157.11 656.748V656.748Z" fill="#263238"/>
<path d="M2418.32 656.748C2418.32 657.539 2363.58 658.217 2296.02 658.217C2228.46 658.217 2173.78 657.539 2173.78 656.748C2173.78 655.957 2228.51 655.223 2296.02 655.223C2363.52 655.223 2418.32 655.901 2418.32 656.748Z" fill="#EF5B00"/>
<path d="M2149.88 811.53C2129.46 813.488 2108.9 813.488 2088.48 811.53C2108.9 809.571 2129.46 809.571 2149.88 811.53V811.53Z" fill="#263238"/>
<path d="M2411.09 811.53C2411.09 812.32 2356.29 812.998 2288.79 812.998C2221.28 812.998 2166.55 812.32 2166.55 811.53C2166.55 810.739 2221.28 810.061 2288.79 810.061C2356.29 810.061 2411.09 810.739 2411.09 811.53Z" fill="#EF5B00"/>
<path d="M2327.77 882.876C2327.77 883.723 2273.03 884.345 2205.52 884.345C2138.02 884.345 2083.22 883.723 2083.22 882.876C2083.22 882.029 2137.96 881.407 2205.52 881.407C2273.08 881.407 2327.77 882.085 2327.77 882.876Z" fill="#EF5B00"/>
<path d="M2184.17 700.188C2155.41 702.147 2126.55 702.147 2097.8 700.188C2126.55 698.23 2155.41 698.23 2184.17 700.188V700.188Z" fill="#EF5B00"/>
<path d="M2181.97 764.474C2153.21 766.507 2124.35 766.507 2095.59 764.474C2124.35 762.515 2153.21 762.515 2181.97 764.474V764.474Z" fill="#EF5B00"/>
<path d="M2255.01 856.1C2226.25 858.058 2197.39 858.058 2168.64 856.1C2197.39 854.142 2226.25 854.142 2255.01 856.1V856.1Z" fill="#EF5B00"/>
<path d="M2498.37 700.188C2498.37 701.036 2448.99 701.657 2388.04 701.657C2327.09 701.657 2277.72 701.036 2277.72 700.188C2277.72 699.341 2327.09 698.72 2388.04 698.72C2448.99 698.72 2498.37 699.624 2498.37 700.188Z" fill="#263238"/>
<path d="M2430.3 767.976C2430.3 768.823 2380.87 769.445 2319.97 769.445C2259.08 769.445 2209.65 768.823 2209.65 767.976C2209.65 767.129 2259.02 766.507 2319.97 766.507C2380.92 766.507 2430.3 767.411 2430.3 767.976Z" fill="#263238"/>
<path d="M2506.22 856.1C2506.22 856.89 2456.79 857.568 2395.89 857.568C2335 857.568 2285.57 856.89 2285.57 856.1C2285.57 855.309 2334.94 854.631 2395.89 854.631C2456.85 854.631 2506.22 855.252 2506.22 856.1Z" fill="#263238"/>
<path d="M2304.78 934.564C2304.78 935.355 2255.4 936.033 2194.45 936.033C2133.5 936.033 2084.13 935.355 2084.13 934.564C2084.13 933.773 2133.56 933.095 2194.45 933.095C2255.35 933.095 2304.78 933.773 2304.78 934.564Z" fill="#263238"/>
<path d="M2548.75 934.564C2548.75 935.355 2499.33 936.033 2438.43 936.033C2377.53 936.033 2328.11 935.355 2328.11 934.564C2328.11 933.773 2377.48 933.095 2438.43 933.095C2499.38 933.095 2548.75 933.773 2548.75 934.564Z" fill="#263238"/>
<path d="M2304.78 960.041C2304.78 960.832 2255.4 961.509 2194.45 961.509C2133.5 961.509 2084.13 960.832 2084.13 960.041C2084.13 959.25 2133.5 958.572 2194.45 958.572C2255.4 958.572 2304.78 959.306 2304.78 960.041Z" fill="#263238"/>
<path d="M2315.45 718.83C2315.45 719.621 2266.08 720.299 2205.13 720.299C2144.18 720.299 2094.8 719.621 2094.8 718.83C2094.8 718.039 2144.18 717.361 2205.13 717.361C2266.08 717.361 2315.45 718.039 2315.45 718.83Z" fill="#263238"/>
<path d="M2256.59 700.64C2237.7 702.598 2218.65 702.598 2199.76 700.64C2218.65 698.682 2237.7 698.682 2256.59 700.64V700.64Z" fill="#455A64"/>
<path d="M2142.65 832.544C2123.76 834.502 2104.71 834.502 2085.82 832.544C2104.71 830.585 2123.76 830.585 2142.65 832.544V832.544Z" fill="#455A64"/>
<path d="M2141.29 856.1C2122.4 858.058 2103.36 858.058 2084.47 856.1C2103.36 854.142 2122.4 854.142 2141.29 856.1V856.1Z" fill="#455A64"/>
<path d="M2633.71 618.109C2633.71 618.956 2496.22 619.578 2326.58 619.578C2156.94 619.578 2019.45 618.956 2019.45 618.109C2019.45 617.262 2156.94 616.64 2326.58 616.64C2496.22 616.64 2633.71 617.318 2633.71 618.109Z" fill="#263238"/>
<path d="M2068.14 597.377C2068.14 598.819 2067.71 600.228 2066.91 601.426C2066.11 602.624 2064.97 603.558 2063.64 604.11C2062.31 604.661 2060.85 604.806 2059.43 604.525C2058.02 604.243 2056.72 603.549 2055.7 602.53C2054.68 601.511 2053.99 600.213 2053.71 598.799C2053.42 597.385 2053.57 595.92 2054.12 594.589C2054.67 593.257 2055.61 592.119 2056.8 591.318C2058 590.518 2059.41 590.09 2060.85 590.09C2061.81 590.083 2062.76 590.266 2063.65 590.63C2064.54 590.993 2065.34 591.53 2066.02 592.208C2066.7 592.886 2067.24 593.692 2067.6 594.58C2067.96 595.467 2068.15 596.418 2068.14 597.377Z" fill="white"/>
<path d="M2099.38 597.377C2099.38 598.819 2098.95 600.228 2098.15 601.426C2097.35 602.624 2096.21 603.558 2094.88 604.11C2093.55 604.661 2092.08 604.806 2090.67 604.525C2089.26 604.243 2087.96 603.549 2086.94 602.53C2085.92 601.511 2085.23 600.213 2084.94 598.799C2084.66 597.385 2084.81 595.92 2085.36 594.589C2085.91 593.257 2086.85 592.119 2088.04 591.318C2089.24 590.518 2090.65 590.09 2092.09 590.09C2093.05 590.083 2094 590.266 2094.89 590.63C2095.78 590.993 2096.58 591.53 2097.26 592.208C2097.94 592.886 2098.48 593.692 2098.84 594.58C2099.2 595.467 2099.39 596.418 2099.38 597.377V597.377Z" fill="white"/>
<path d="M2130.67 597.377C2130.67 598.819 2130.25 600.228 2129.45 601.426C2128.65 602.624 2127.51 603.558 2126.18 604.11C2124.84 604.661 2123.38 604.806 2121.97 604.525C2120.55 604.243 2119.25 603.549 2118.23 602.53C2117.22 601.511 2116.52 600.213 2116.24 598.799C2115.96 597.385 2116.1 595.92 2116.65 594.589C2117.21 593.257 2118.14 592.119 2119.34 591.318C2120.54 590.518 2121.95 590.09 2123.39 590.09C2124.35 590.083 2125.3 590.266 2126.18 590.63C2127.07 590.993 2127.88 591.53 2128.56 592.208C2129.24 592.886 2129.77 593.692 2130.13 594.58C2130.5 595.467 2130.68 596.418 2130.67 597.377Z" fill="white"/>
<path d="M2272.63 479.314H1643.28L1689.83 31.0128H2324.49L2272.63 479.314Z" fill="#263238"/>
<path d="M2240.6 479.314H1611.25L1657.8 31.0128H2292.46L2240.6 479.314Z" fill="#455A64"/>
<path d="M2217.22 459.034H1633.28L1676.44 43.045H2265.35L2217.22 459.034Z" fill="#FAFAFA"/>
<path d="M1697.46 389.496C1696.66 389.496 1702.48 326.792 1710.45 249.741C1718.41 172.689 1725.47 110.155 1726.32 110.268C1727.17 110.381 1721.29 172.915 1713.33 250.023C1705.36 327.131 1698.3 389.496 1697.46 389.496Z" fill="#263238"/>
<path d="M1803.83 123.995C1784.33 125.953 1764.69 125.953 1745.19 123.995C1764.69 122.036 1784.33 122.036 1803.83 123.995V123.995Z" fill="#263238"/>
<path d="M2053.23 123.995C2053.23 124.785 2000.97 125.463 1936.46 125.463C1871.95 125.463 1819.7 124.785 1819.7 123.995C1819.7 123.204 1871.95 122.526 1936.46 122.526C2000.97 122.526 2053.23 123.034 2053.23 123.995Z" fill="#EF5B00"/>
<path d="M1796.88 271.715C1777.38 273.673 1757.74 273.673 1738.24 271.715C1757.74 269.757 1777.38 269.757 1796.88 271.715V271.715Z" fill="#263238"/>
<path d="M2046.34 271.715C2046.34 272.506 1994.03 273.184 1929.57 273.184C1865.12 273.184 1812.81 272.506 1812.81 271.715C1812.81 270.924 1865.06 270.246 1929.57 270.246C1994.08 270.246 2046.34 270.868 2046.34 271.715Z" fill="#EF5B00"/>
<path d="M1966.8 339.841C1966.8 340.632 1914.49 341.31 1850.03 341.31C1785.58 341.31 1733.27 340.632 1733.27 339.841C1733.27 339.051 1785.52 338.373 1850.03 338.373C1914.55 338.373 1966.8 339.051 1966.8 339.841Z" fill="#EF5B00"/>
<path d="M1829.64 165.628C1802.18 167.586 1774.62 167.586 1747.17 165.628C1774.62 163.669 1802.18 163.669 1829.64 165.628V165.628Z" fill="#EF5B00"/>
<path d="M1827.55 226.806C1800.09 228.764 1772.53 228.764 1745.08 226.806C1772.53 224.847 1800.09 224.847 1827.55 226.806V226.806Z" fill="#EF5B00"/>
<path d="M1897.26 314.252C1869.8 316.21 1842.24 316.21 1814.78 314.252C1842.24 312.293 1869.8 312.293 1897.26 314.252V314.252Z" fill="#EF5B00"/>
<path d="M2129.66 165.628C2129.66 166.418 2082.49 167.096 2024.3 167.096C1966.12 167.096 1918.95 166.418 1918.95 165.628C1918.95 164.837 1966.06 164.159 2024.3 164.159C2082.55 164.159 2129.66 164.78 2129.66 165.628Z" fill="#263238"/>
<path d="M2064.64 230.365C2064.64 231.155 2017.47 231.833 1959.28 231.833C1901.1 231.833 1853.93 231.155 1853.93 230.365C1853.93 229.574 1901.1 228.896 1959.28 228.896C2017.47 228.896 2064.64 229.517 2064.64 230.365Z" fill="#263238"/>
<path d="M2137.17 314.252C2137.17 315.042 2090 315.72 2031.82 315.72C1973.63 315.72 1926.46 315.042 1926.46 314.252C1926.46 313.461 1973.63 312.783 2031.82 312.783C2090 312.783 2137.17 313.404 2137.17 314.252Z" fill="#263238"/>
<path d="M1944.77 389.496C1944.77 390.287 1897.6 390.964 1839.41 390.964C1781.23 390.964 1734.23 390.004 1734.23 389.496C1734.23 388.987 1781.4 388.027 1839.58 388.027C1897.77 388.027 1944.77 388.366 1944.77 389.496Z" fill="#263238"/>
<path d="M2177.79 389.496C2177.79 390.287 2130.62 390.964 2072.43 390.964C2014.25 390.964 1967.08 390.287 1967.08 389.496C1967.08 388.705 2014.25 388.027 2072.43 388.027C2130.62 388.027 2177.79 388.366 2177.79 389.496Z" fill="#263238"/>
<path d="M1944.77 413.56C1944.77 414.408 1897.6 415.029 1839.41 415.029C1781.23 415.029 1734.06 414.408 1734.06 413.56C1734.06 412.713 1781.23 412.092 1839.41 412.092C1897.6 412.092 1944.77 412.769 1944.77 413.56Z" fill="#263238"/>
<path d="M1954.99 183.196C1954.99 183.987 1907.82 184.664 1849.64 184.664C1791.45 184.664 1744.29 183.987 1744.29 183.196C1744.29 182.405 1791.45 181.727 1849.64 181.727C1907.82 181.727 1954.99 182.348 1954.99 183.196Z" fill="#263238"/>
<path d="M1898.84 165.853C1880.8 167.812 1862.6 167.812 1844.55 165.853C1862.6 163.895 1880.8 163.895 1898.84 165.853V165.853Z" fill="#455A64"/>
<path d="M1789.99 291.769C1771.94 293.727 1753.74 293.727 1735.7 291.769C1753.74 289.81 1771.94 289.81 1789.99 291.769V291.769Z" fill="#455A64"/>
<path d="M1788.74 314.252C1770.7 316.21 1752.5 316.21 1734.46 314.252C1752.5 312.293 1770.7 312.293 1788.74 314.252V314.252Z" fill="#455A64"/>
<path d="M2258.91 86.994C2258.91 87.8413 2127.62 88.5192 1965.67 88.5192C1803.71 88.5192 1672.09 87.8413 1672.09 86.994C1672.09 86.1466 1803.37 85.5253 1965.44 85.5253C2127.51 85.5253 2258.91 86.2031 2258.91 86.994Z" fill="#263238"/>
<path d="M1711.92 74.1143C1715.75 74.1143 1718.87 71.0035 1718.87 67.1661C1718.87 63.3287 1715.75 60.2179 1711.92 60.2179C1708.08 60.2179 1704.97 63.3287 1704.97 67.1661C1704.97 71.0035 1708.08 74.1143 1711.92 74.1143Z" fill="white"/>
<path d="M1741.74 74.1143C1745.58 74.1143 1748.69 71.0035 1748.69 67.1661C1748.69 63.3287 1745.58 60.2179 1741.74 60.2179C1737.91 60.2179 1734.8 63.3287 1734.8 67.1661C1734.8 71.0035 1737.91 74.1143 1741.74 74.1143Z" fill="white"/>
<path d="M1771.57 74.1143C1775.41 74.1143 1778.52 71.0035 1778.52 67.1661C1778.52 63.3287 1775.41 60.2179 1771.57 60.2179C1767.73 60.2179 1764.62 63.3287 1764.62 67.1661C1764.62 71.0035 1767.73 74.1143 1771.57 74.1143Z" fill="white"/>
<path d="M1206.5 2172.82H1157.47V2239.7H1206.5V2172.82Z" fill="#263238"/>
<path d="M1469.35 1392.36H1904.38V1371.17H1469.35V1392.36Z" fill="#263238"/>
<path d="M1971.77 1392.36L2053.4 1086.58H1713.67L1639.78 1392.36H1971.77Z" fill="#263238"/>
<path d="M1660.17 1369.25H1963.63L2034.25 1100.7H1729.2L1660.17 1369.25Z" fill="#F5F5F5"/>
<path d="M1736.77 1152.73L1717.96 1228.76H1919.18L1940.64 1152.73H1736.77Z" fill="#E0E0E0"/>
<path d="M1898.05 1142.67C1898.05 1143.52 1862.8 1144.14 1819.25 1144.14C1775.69 1144.14 1740.44 1143.52 1740.44 1142.67C1740.44 1141.82 1775.69 1141.2 1819.25 1141.2C1862.8 1141.2 1898.05 1141.88 1898.05 1142.67Z" fill="#455A64"/>
<path d="M1806.48 1167.24C1785.34 1169.2 1764.07 1169.2 1742.93 1167.24C1764.07 1165.29 1785.34 1165.29 1806.48 1167.24V1167.24Z" fill="#263238"/>
<path d="M1857.43 1166.06C1843.72 1168.02 1829.8 1168.02 1816.08 1166.06C1829.8 1164.1 1843.72 1164.1 1857.43 1166.06Z" fill="#263238"/>
<path d="M1915 1181.03C1915 1181.88 1876.08 1182.55 1828.06 1182.55C1780.04 1182.55 1741.12 1181.88 1741.12 1181.03C1741.12 1180.18 1780.04 1179.56 1828.06 1179.56C1876.08 1179.56 1915 1180.35 1915 1181.03Z" fill="#455A64"/>
<path d="M1793.88 1193.63C1775.11 1195.6 1756.17 1195.6 1737.39 1193.63C1756.17 1191.65 1775.11 1191.65 1793.88 1193.63V1193.63Z" fill="#EF5B00"/>
<path d="M1899.41 1211.65C1899.41 1212.44 1863.31 1213.11 1818.8 1213.11C1774.28 1213.11 1738.13 1212.44 1738.13 1211.65C1738.13 1210.85 1774.23 1210.18 1818.8 1210.18C1863.37 1210.18 1899.41 1210.8 1899.41 1211.65Z" fill="#455A64"/>
<path d="M1780.72 1250.57C1760.05 1252.51 1739.25 1252.51 1718.58 1250.57C1739.25 1248.62 1760.05 1248.62 1780.72 1250.57V1250.57Z" fill="#455A64"/>
<path d="M1834.05 1250.85C1827.04 1252.22 1819.88 1252.65 1812.75 1252.15C1805.63 1252.58 1798.48 1252.01 1791.51 1250.45C1798.52 1249.09 1805.68 1248.65 1812.81 1249.15C1819.93 1248.72 1827.08 1249.29 1834.05 1250.85Z" fill="#263238"/>
<path d="M1864.16 1249.38C1864.16 1250.23 1860.09 1250.85 1855.12 1250.85C1850.15 1250.85 1846.14 1250.23 1846.14 1249.38C1846.14 1248.53 1850.2 1247.91 1855.12 1247.91C1860.03 1247.91 1864.16 1248.59 1864.16 1249.38Z" fill="#263238"/>
<path d="M1739.37 1266.16C1739.37 1267.01 1734.91 1267.63 1729.43 1267.63C1723.95 1267.63 1719.54 1267.01 1719.54 1266.16C1719.54 1265.31 1724.01 1264.69 1729.43 1264.69C1734.85 1264.69 1739.37 1265.37 1739.37 1266.16Z" fill="#EF5B00"/>
<path d="M1798.69 1266.16C1782.97 1268.12 1767.07 1268.12 1751.35 1266.16C1767.07 1264.2 1782.97 1264.2 1798.69 1266.16Z" fill="#263238"/>
<path d="M1940.14 1264.35C1940.14 1265.2 1911.89 1265.82 1876.92 1265.82C1841.96 1265.82 1813.65 1265.2 1813.65 1264.35C1813.65 1263.5 1841.9 1262.88 1876.92 1262.88C1911.95 1262.88 1940.14 1263.56 1940.14 1264.35Z" fill="#455A64"/>
<path d="M1736.32 1282.37C1736.32 1283.16 1731.8 1283.84 1726.15 1283.84C1720.5 1283.84 1715.98 1283.16 1715.98 1282.37C1715.98 1281.58 1720.5 1280.9 1726.15 1280.9C1731.8 1280.9 1736.32 1281.52 1736.32 1282.37Z" fill="#263238"/>
<path d="M1767.5 1282.03C1763.59 1283.49 1759.39 1283.99 1755.24 1283.5C1751.08 1283.99 1746.86 1283.48 1742.93 1282.03C1746.87 1280.61 1751.08 1280.11 1755.24 1280.56C1759.39 1280.1 1763.58 1280.61 1767.5 1282.03V1282.03Z" fill="#263238"/>
<path d="M1860.43 1280.56C1833.9 1282.52 1807.25 1282.52 1780.72 1280.56C1807.25 1278.6 1833.9 1278.6 1860.43 1280.56V1280.56Z" fill="#455A64"/>
<path d="M1811.28 1308.75C1795.25 1310.2 1779.14 1310.69 1763.04 1310.22C1746.94 1310.7 1730.83 1310.21 1714.8 1308.75C1730.83 1307.26 1746.94 1306.77 1763.04 1307.28C1779.14 1306.77 1795.25 1307.26 1811.28 1308.75V1308.75Z" fill="#455A64"/>
<path d="M1867.6 1307.51C1853.09 1309.47 1838.39 1309.47 1823.88 1307.51C1838.39 1305.55 1853.09 1305.55 1867.6 1307.51V1307.51Z" fill="#EF5B00"/>
<path d="M1951.26 1307.51C1927.13 1309.47 1902.87 1309.47 1878.73 1307.51C1902.87 1305.55 1927.13 1305.55 1951.26 1307.51Z" fill="#263238"/>
<path d="M1931.94 1141.49C1931.94 1142.33 1928.55 1142.95 1924.43 1142.95C1920.31 1142.95 1916.92 1142.33 1916.92 1141.49C1916.92 1140.64 1920.31 1140.02 1924.43 1140.02C1928.55 1140.02 1931.94 1140.81 1931.94 1141.49Z" fill="#263238"/>
<path d="M1778.91 1131.32C1768 1133.28 1756.83 1133.28 1745.92 1131.32C1756.83 1129.36 1768 1129.36 1778.91 1131.32V1131.32Z" fill="#EF5B00"/>
<path d="M2029.16 1120.02H1724.12L1729.26 1100.7H2034.3L2029.16 1120.02Z" fill="#EBEBEB"/>
<path d="M1742.08 1113.81C1743.92 1113.81 1745.42 1112.31 1745.42 1110.47C1745.42 1108.63 1743.92 1107.14 1742.08 1107.14C1740.24 1107.14 1738.75 1108.63 1738.75 1110.47C1738.75 1112.31 1740.24 1113.81 1742.08 1113.81Z" fill="#FAFAFA"/>
<path d="M1753.55 1113.81C1755.39 1113.81 1756.88 1112.31 1756.88 1110.47C1756.88 1108.63 1755.39 1107.14 1753.55 1107.14C1751.71 1107.14 1750.22 1108.63 1750.22 1110.47C1750.22 1112.31 1751.71 1113.81 1753.55 1113.81Z" fill="#FAFAFA"/>
<path d="M1765.02 1113.81C1766.86 1113.81 1768.35 1112.31 1768.35 1110.47C1768.35 1108.63 1766.86 1107.14 1765.02 1107.14C1763.18 1107.14 1761.68 1108.63 1761.68 1110.47C1761.68 1112.31 1763.18 1113.81 1765.02 1113.81Z" fill="#FAFAFA"/>
<path d="M2400.92 1420.83H1677.63V1842.86H2400.92V1420.83Z" fill="#263238"/>
<path d="M2007.13 1420.83H1677.63V1842.86H2007.13V1420.83Z" fill="#455A64"/>
<path d="M1973.58 1564.14C1973.49 1563.43 1973.49 1562.71 1973.58 1561.99V1555.84C1973.58 1550.19 1973.58 1542.45 1973.29 1532.39C1973.29 1512 1972.96 1482.85 1972.73 1446.92L1973.8 1448L1708.75 1448.39L1710.22 1446.92V1477.37C1710.22 1487.43 1710.22 1497.43 1710.22 1507.2C1710.22 1526.8 1710.22 1545.84 1710.22 1564.03L1708.87 1562.67L1898.73 1563.29L1953.86 1563.69H1968.66H1972.56H1973.92H1972.73H1969H1954.48L1899.63 1564.03L1708.87 1564.71H1707.45V1563.29C1707.45 1545.1 1707.45 1526.07 1707.45 1506.46V1447.04L1708.92 1445.57L1973.97 1445.96H1975.05V1447.04C1974.76 1483.25 1974.59 1512.62 1974.42 1533.13C1974.42 1543.07 1974.42 1550.87 1974.42 1556.34V1562.33C1973.63 1563.52 1973.58 1564.48 1973.58 1564.14Z" fill="#263238"/>
<path d="M1852.29 1505.56C1851.56 1502.36 1849.77 1499.49 1847.21 1497.43C1845.84 1496.46 1844.25 1495.85 1842.58 1495.65C1840.92 1495.44 1839.23 1495.64 1837.66 1496.24C1835.78 1496.97 1834.15 1498.24 1833.01 1499.91C1831.86 1501.57 1831.24 1503.54 1831.22 1505.56C1831.25 1507.58 1831.88 1509.54 1833.02 1511.2C1834.17 1512.86 1835.79 1514.14 1837.66 1514.88C1839.24 1515.45 1840.93 1515.64 1842.59 1515.42C1844.25 1515.21 1845.83 1514.6 1847.21 1513.64C1849.75 1511.56 1851.53 1508.7 1852.29 1505.5C1852.29 1505.5 1852.8 1506.52 1852.29 1508.39C1851.84 1511.09 1850.41 1513.54 1848.28 1515.28C1846.66 1516.6 1844.74 1517.48 1842.68 1517.85C1840.62 1518.21 1838.51 1518.05 1836.53 1517.37C1834.06 1516.52 1831.91 1514.92 1830.4 1512.79C1828.88 1510.67 1828.06 1508.12 1828.06 1505.5C1828.06 1502.89 1828.88 1500.34 1830.4 1498.21C1831.91 1496.09 1834.06 1494.49 1836.53 1493.64C1838.5 1492.95 1840.62 1492.78 1842.67 1493.13C1844.73 1493.49 1846.66 1494.36 1848.28 1495.67C1850.41 1497.41 1851.84 1499.86 1852.29 1502.57C1852.86 1504.54 1852.46 1505.56 1852.29 1505.56Z" fill="#263238"/>
<path d="M1973.58 1693.22C1973.5 1692.49 1973.5 1691.75 1973.58 1691.02V1684.86C1973.58 1679.21 1973.58 1671.47 1973.29 1661.42C1973.29 1641.08 1972.96 1611.93 1972.73 1575.95L1973.8 1577.02L1708.75 1577.47L1710.22 1576V1606.45C1710.22 1616.56 1710.22 1626.5 1710.22 1636.33C1710.22 1655.94 1710.22 1674.97 1710.22 1693.16L1708.87 1691.75L1898.73 1692.43L1953.86 1692.82H1968.66H1972.56H1973.92H1972.73H1969H1954.48L1899.63 1693.22L1708.87 1693.9H1707.45V1692.48C1707.45 1674.29 1707.45 1655.26 1707.45 1635.66V1576.06C1707.12 1576.06 1710.22 1573.24 1708.92 1574.53L1973.97 1574.99H1975.05V1575.78C1974.76 1612.04 1974.59 1641.42 1974.42 1661.92C1974.42 1671.87 1974.42 1679.6 1974.42 1685.14V1691.07C1973.63 1692.6 1973.58 1693.28 1973.58 1693.22Z" fill="#263238"/>
<path d="M1852.29 1634.58C1851.5 1631.45 1849.72 1628.66 1847.21 1626.62C1845.7 1625.54 1843.93 1624.9 1842.09 1624.76C1840.24 1624.63 1838.4 1625 1836.75 1625.84C1835.1 1626.67 1833.71 1627.95 1832.74 1629.52C1831.76 1631.09 1831.24 1632.9 1831.22 1634.75C1831.24 1636.77 1831.86 1638.74 1833.01 1640.41C1834.15 1642.07 1835.78 1643.35 1837.66 1644.07C1839.23 1644.67 1840.92 1644.87 1842.58 1644.67C1844.25 1644.46 1845.84 1643.85 1847.21 1642.89C1849.76 1640.81 1851.55 1637.95 1852.29 1634.75C1852.29 1634.75 1852.8 1635.77 1852.29 1637.63C1851.84 1640.34 1850.41 1642.79 1848.28 1644.52C1846.66 1645.85 1844.74 1646.73 1842.68 1647.1C1840.62 1647.46 1838.51 1647.3 1836.53 1646.62C1834.06 1645.77 1831.91 1644.17 1830.4 1642.04C1828.88 1639.91 1828.06 1637.37 1828.06 1634.75C1828.06 1632.14 1828.88 1629.59 1830.4 1627.46C1831.91 1625.34 1834.06 1623.74 1836.53 1622.89C1838.51 1622.21 1840.62 1622.04 1842.68 1622.41C1844.74 1622.77 1846.66 1623.66 1848.28 1624.98C1850.41 1626.71 1851.84 1629.16 1852.29 1631.87C1852.86 1633.57 1852.46 1634.58 1852.29 1634.58Z" fill="#263238"/>
<path d="M1973.58 1822.24C1973.49 1821.53 1973.49 1820.81 1973.58 1820.09V1813.94C1973.58 1808.29 1973.58 1800.55 1973.29 1790.49C1973.29 1770.1 1972.96 1740.95 1972.73 1705.03L1973.8 1706.1L1708.75 1706.49L1710.22 1705.03V1735.47C1710.22 1745.53 1710.22 1755.53 1710.22 1765.3C1710.22 1784.9 1710.22 1803.94 1710.22 1822.13L1708.87 1820.77L1898.73 1821.39L1953.86 1821.79H1968.66H1972.56H1973.92H1972.73H1969H1954.48L1899.63 1822.13L1708.87 1822.81H1707.45V1821.39C1707.45 1803.2 1707.45 1784.17 1707.45 1764.57V1705.14L1708.92 1703.67L1973.97 1704.06H1975.05V1705.14C1974.76 1741.35 1974.59 1770.72 1974.42 1791.23C1974.42 1801.17 1974.42 1808.97 1974.42 1814.45V1820.43C1973.63 1821.62 1973.58 1822.3 1973.58 1822.24Z" fill="#263238"/>
<path d="M1852.29 1763.66C1851.56 1760.46 1849.77 1757.59 1847.21 1755.53C1845.84 1754.57 1844.25 1753.95 1842.58 1753.75C1840.92 1753.54 1839.23 1753.74 1837.66 1754.34C1835.78 1755.07 1834.15 1756.35 1833.01 1758.01C1831.86 1759.67 1831.24 1761.64 1831.22 1763.66C1831.24 1765.51 1831.76 1767.32 1832.74 1768.89C1833.71 1770.46 1835.1 1771.74 1836.75 1772.58C1838.4 1773.42 1840.24 1773.79 1842.09 1773.65C1843.93 1773.51 1845.7 1772.87 1847.21 1771.8C1849.75 1769.71 1851.53 1766.86 1852.29 1763.66C1852.29 1763.66 1852.8 1764.68 1852.29 1766.54C1851.84 1769.25 1850.41 1771.7 1848.28 1773.43C1846.66 1774.75 1844.74 1775.64 1842.68 1776.01C1840.62 1776.37 1838.51 1776.21 1836.53 1775.52C1834.06 1774.68 1831.91 1773.08 1830.4 1770.95C1828.88 1768.82 1828.06 1766.28 1828.06 1763.66C1828.06 1761.05 1828.88 1758.5 1830.4 1756.37C1831.91 1754.25 1834.06 1752.65 1836.53 1751.8C1838.5 1751.11 1840.62 1750.93 1842.67 1751.29C1844.73 1751.65 1846.66 1752.52 1848.28 1753.83C1850.41 1755.57 1851.84 1758.02 1852.29 1760.72C1852.86 1762.64 1852.46 1763.66 1852.29 1763.66Z" fill="#263238"/>
<path d="M1195.94 2186.37L712.56 2185.98V1420.83H1195.94V2186.37Z" fill="#263238"/>
<path d="M2427.19 1391.4H689.229V1431.5H2427.19V1391.4Z" fill="#263238"/>
<path d="M766.451 1431.5H712.56V2243.26H766.451V1431.5Z" fill="#263238"/>
<path d="M2400.92 1431.5H2347.03V2243.48H2400.92V1431.5Z" fill="#263238"/>
<path d="M2061.02 1431.5H2007.13V2243.48H2061.02V1431.5Z" fill="#263238"/>
<path d="M933.603 1391.39C933.603 1392.19 881.802 1392.86 817.913 1392.86C754.023 1392.86 702.222 1392.19 702.222 1391.39C702.222 1390.6 754.023 1389.93 817.913 1389.93C881.802 1389.93 933.603 1390.55 933.603 1391.39Z" fill="#455A64"/>
<path d="M1441.78 2203.72L1443.14 2145.7L1334.4 2142.42L1331.52 2227.16L1338.24 2227.78C1368.18 2230.38 1490.76 2238.74 1510.93 2233.43C1533.52 2227.33 1441.78 2203.72 1441.78 2203.72Z" fill="#EF5B00"/>
<g opacity="0.4">
<path d="M1486.52 2216.88C1486.52 2216.88 1518.67 2227.16 1514.43 2232.41C1510.19 2237.67 1386.09 2233.77 1331.52 2227.33V2224.9L1476.3 2230.55C1476.3 2230.55 1480.03 2216.93 1486.52 2216.88Z" fill="white"/>
</g>
<path d="M1330.05 2224.79H1331.91L1337.56 2225.29L1357.28 2226.76C1373.94 2227.89 1396.82 2229.08 1422.46 2229.93C1448.11 2230.77 1471.05 2230.94 1487.77 2230.89H1507.54H1513.19H1515.05H1513.19H1507.54H1487.77C1471.1 2230.89 1448.22 2230.32 1422.52 2229.53C1396.82 2228.74 1374 2227.67 1357.33 2226.76L1337.56 2225.75H1331.91L1330.05 2224.79Z" fill="#263238"/>
<path d="M1476.41 2232.24C1477.38 2228.99 1478.72 2225.86 1480.42 2222.92C1482.47 2220.23 1484.8 2217.77 1487.37 2215.58C1484.07 2216.92 1481.26 2219.24 1479.31 2222.21C1477.35 2225.19 1476.34 2228.68 1476.41 2232.24V2232.24Z" fill="#263238"/>
<path d="M1444.83 2215.01C1445.12 2215.01 1446.75 2213.38 1448.39 2210.95C1450.03 2208.52 1451.16 2206.31 1450.88 2206.14C1450.6 2205.97 1448.96 2207.73 1447.32 2210.21C1445.68 2212.7 1444.55 2214.79 1444.83 2215.01Z" fill="#263238"/>
<path d="M1436.19 2210.1C1436.19 2210.1 1438.17 2209.25 1440.09 2207.61C1442.01 2205.98 1443.37 2204.45 1443.14 2204.17C1442.91 2203.88 1441.16 2205.01 1439.24 2206.65C1437.32 2208.29 1435.97 2209.82 1436.19 2210.1Z" fill="#263238"/>
<path d="M1430.94 2199.65C1432.74 2200.34 1434.66 2200.65 1436.59 2200.55C1438.48 2200.84 1440.41 2200.69 1442.24 2200.1C1440.43 2199.42 1438.51 2199.11 1436.59 2199.2C1433.48 2199.08 1430.94 2199.25 1430.94 2199.65Z" fill="#263238"/>
<path d="M1429.19 2192.36C1431.04 2193.63 1433.21 2194.34 1435.46 2194.39C1437.66 2194.82 1439.94 2194.59 1442.01 2193.72C1439.89 2193.28 1437.73 2193.07 1435.57 2193.1C1433.48 2192.61 1431.34 2192.37 1429.19 2192.36Z" fill="#263238"/>
<path d="M1448.85 2205.64C1451.14 2206.03 1453.49 2206.03 1455.79 2205.64C1458.33 2205.38 1460.85 2204.91 1463.31 2204.22C1464.79 2203.83 1466.23 2203.28 1467.6 2202.59C1468.45 2202.15 1469.09 2201.4 1469.41 2200.5C1469.54 2199.98 1469.52 2199.44 1469.35 2198.94C1469.18 2198.44 1468.87 2198 1468.45 2197.67C1465.82 2196.28 1462.79 2195.84 1459.88 2196.43C1456.97 2197.02 1454.34 2198.59 1452.46 2200.89C1451.35 2202.26 1450.52 2203.83 1450.03 2205.52C1449.91 2206.14 1449.91 2206.77 1450.03 2207.39C1450.84 2205.33 1451.99 2203.42 1453.42 2201.74C1455.04 2199.95 1457.14 2198.68 1459.46 2198.07C1462.25 2197.25 1465.24 2197.53 1467.83 2198.86C1468.9 2199.7 1468.39 2201 1467.15 2201.74C1465.88 2202.36 1464.55 2202.87 1463.19 2203.26C1460.81 2204 1458.37 2204.57 1455.91 2204.96C1451.78 2205.47 1448.85 2205.41 1448.85 2205.64Z" fill="#263238"/>
<path d="M1450.6 2206.03C1451.5 2204.6 1451.84 2202.89 1451.56 2201.23C1451.41 2199.38 1450.81 2197.59 1449.81 2196.03C1449.26 2194.98 1448.45 2194.09 1447.46 2193.44C1446.47 2192.79 1445.34 2192.4 1444.16 2192.3C1443.44 2192.43 1442.8 2192.83 1442.38 2193.42C1441.95 2194.01 1441.78 2194.75 1441.9 2195.47C1442.04 2196.59 1442.42 2197.67 1443.03 2198.63C1443.88 2200.2 1444.94 2201.65 1446.19 2202.92C1447.24 2204.21 1448.58 2205.23 1450.09 2205.92C1450.09 2205.92 1448.73 2204.62 1446.87 2202.3C1445.8 2200.99 1444.87 2199.57 1444.1 2198.07C1443.2 2196.54 1442.57 2193.89 1444.38 2193.6C1446.19 2193.32 1447.83 2195.3 1448.85 2196.71C1449.8 2198.1 1450.44 2199.68 1450.71 2201.34C1450.83 2202.91 1450.8 2204.48 1450.6 2206.03V2206.03Z" fill="#263238"/>
<path d="M1333.15 2195.07C1333.15 2195.35 1336.32 2195.07 1341.18 2195.64C1347.57 2196.51 1353.58 2199.19 1358.51 2203.36C1363.43 2207.54 1367.06 2213.03 1368.97 2219.19C1369.7 2221.78 1370.31 2224.4 1370.78 2227.05C1370.92 2226.32 1370.92 2225.57 1370.78 2224.84C1370.58 2222.94 1370.24 2221.05 1369.76 2219.19C1368.01 2212.74 1364.34 2206.96 1359.23 2202.63C1354.13 2198.31 1347.83 2195.63 1341.18 2194.96C1339.19 2194.76 1337.18 2194.76 1335.19 2194.96C1334.51 2194.91 1333.83 2194.95 1333.15 2195.07V2195.07Z" fill="#263238"/>
<path d="M1345.81 2150.16C1344.86 2157.57 1344.31 2165.01 1344.17 2172.48C1343.65 2180 1343.56 2187.54 1343.89 2195.07C1344.84 2187.67 1345.39 2180.22 1345.53 2172.76C1346.08 2165.24 1346.17 2157.69 1345.81 2150.16V2150.16Z" fill="#263238"/>
<path d="M1384.96 2217.44C1390.11 2218.83 1395.43 2219.53 1400.77 2219.53C1406.09 2219.94 1411.45 2219.68 1416.7 2218.74C1416.7 2218.35 1409.58 2218.74 1400.83 2218.23C1392.07 2217.72 1385.01 2217.1 1384.96 2217.44Z" fill="#263238"/>
<path d="M1363.66 2216.76C1363.66 2216.76 1364.17 2218.29 1364.84 2219.93C1365.52 2221.57 1365.86 2223.09 1366.26 2223.03C1366.65 2222.98 1366.88 2221.34 1366.26 2219.48C1365.64 2217.61 1363.88 2216.54 1363.66 2216.76Z" fill="#263238"/>
<path d="M1355.75 2206.54C1355.75 2206.54 1356.15 2207.95 1357.22 2209.14C1358.29 2210.32 1359.42 2211.06 1359.7 2210.78C1359.99 2210.49 1359.31 2209.42 1358.18 2208.23C1357.05 2207.05 1356.2 2206.31 1355.75 2206.54Z" fill="#263238"/>
<path d="M1344.45 2201.63C1344.45 2202.02 1345.98 2202.02 1347.56 2202.64C1349.14 2203.26 1350.27 2204.11 1350.55 2203.88C1350.84 2203.66 1349.99 2202.13 1348.01 2201.4C1346.03 2200.67 1344.45 2201.29 1344.45 2201.63Z" fill="#263238"/>
<path d="M1336.43 2199.2C1336.43 2199.54 1336.94 2200.1 1337.79 2200.5C1338.63 2200.89 1339.54 2200.89 1339.65 2200.5C1339.76 2200.1 1339.2 2199.54 1338.29 2199.2C1337.39 2198.86 1336.6 2198.86 1336.43 2199.2Z" fill="#263238"/>
<g opacity="0.3">
<path d="M1333.38 2192.19L1442.07 2193.72L1442.29 2180.61L1332.76 2185.24L1333.38 2192.19Z" fill="black"/>
</g>
<path d="M1613.29 2212.75V2154.68L1504.49 2154.29L1503.87 2239.02L1510.59 2239.47C1540.58 2241.22 1663.11 2246.37 1683.39 2240.38C1705.65 2233.88 1613.29 2212.75 1613.29 2212.75Z" fill="#EF5B00"/>
<g opacity="0.4">
<path d="M1658.36 2224.67C1658.36 2224.67 1690.73 2234.16 1686.61 2239.47C1682.49 2244.78 1558.38 2244.27 1503.64 2239.47V2237.04L1648.48 2238.91C1648.48 2238.91 1652.04 2224.96 1658.36 2224.67Z" fill="white"/>
</g>
<path d="M1502.17 2236.71H1504.04L1509.4 2237.04L1529.17 2238C1545.84 2238.68 1568.72 2239.3 1594.42 2239.42C1620.12 2239.53 1643 2239.42 1659.72 2238.68L1679.49 2237.95L1684.86 2237.61H1686.72H1679.49L1659.72 2237.89C1642.77 2237.89 1619.9 2238.4 1594.42 2238.29C1568.94 2238.17 1545.89 2237.67 1529.17 2237.27L1509.4 2236.71H1502.17Z" fill="#263238"/>
<path d="M1648.71 2240.38C1649.55 2237.09 1650.81 2233.92 1652.43 2230.94C1654.39 2228.17 1656.67 2225.63 1659.21 2223.37C1655.81 2224.61 1652.99 2227.07 1651.3 2230.27C1649.2 2233.19 1648.27 2236.8 1648.71 2240.38V2240.38Z" fill="#263238"/>
<path d="M1616.68 2223.94C1616.96 2223.94 1618.48 2222.24 1620.12 2219.76C1621.76 2217.27 1622.72 2215.13 1622.44 2214.9C1622.15 2214.67 1620.57 2216.6 1618.99 2219.08C1617.41 2221.57 1616.34 2223.71 1616.68 2223.94Z" fill="#263238"/>
<path d="M1607.86 2219.25C1607.86 2219.25 1609.84 2218.35 1611.7 2216.71C1613.57 2215.07 1614.92 2213.43 1614.7 2213.15C1614.47 2212.87 1612.72 2214.05 1610.86 2215.69C1608.99 2217.33 1607.64 2218.97 1607.86 2219.25Z" fill="#263238"/>
<path d="M1602.33 2208.97C1604.14 2209.61 1606.06 2209.86 1607.98 2209.7C1609.88 2209.93 1611.81 2209.74 1613.63 2209.14C1613.63 2208.74 1611.14 2208.4 1607.98 2208.4C1604.81 2208.4 1602.33 2208.46 1602.33 2208.97Z" fill="#263238"/>
<path d="M1600.46 2201.68C1602.34 2202.92 1604.54 2203.57 1606.79 2203.55C1609.01 2203.99 1611.31 2203.69 1613.34 2202.7C1611.21 2202.37 1609.06 2202.22 1606.9 2202.25C1604.78 2201.87 1602.62 2201.68 1600.46 2201.68Z" fill="#263238"/>
<path d="M1620.4 2214.45C1622.7 2214.88 1625.06 2214.88 1627.35 2214.45C1629.89 2214.17 1632.39 2213.62 1634.81 2212.81C1636.3 2212.42 1637.75 2211.85 1639.1 2211.12C1639.94 2210.62 1640.56 2209.84 1640.85 2208.91C1640.96 2208.4 1640.91 2207.86 1640.72 2207.37C1640.53 2206.88 1640.2 2206.46 1639.78 2206.14C1637.12 2204.82 1634.08 2204.47 1631.19 2205.14C1628.29 2205.8 1625.72 2207.46 1623.91 2209.82C1622.85 2211.2 1622.07 2212.77 1621.59 2214.45C1621.44 2215.08 1621.44 2215.74 1621.59 2216.37C1622.34 2214.32 1623.43 2212.41 1624.81 2210.72C1626.4 2208.88 1628.47 2207.53 1630.8 2206.82C1633.54 2205.92 1636.53 2206.15 1639.1 2207.44C1640.23 2208.29 1639.78 2209.59 1638.54 2210.32C1637.3 2211.01 1635.99 2211.56 1634.64 2211.96C1632.28 2212.75 1629.86 2213.38 1627.41 2213.83C1623.06 2214.11 1620.4 2214.11 1620.4 2214.45Z" fill="#263238"/>
<path d="M1622.21 2214.84C1623.03 2213.37 1623.31 2211.65 1623 2209.99C1622.81 2208.15 1622.17 2206.38 1621.14 2204.85C1620.56 2203.84 1619.74 2202.98 1618.76 2202.36C1617.77 2201.74 1616.65 2201.37 1615.49 2201.29C1615.14 2201.35 1614.8 2201.49 1614.5 2201.69C1614.2 2201.89 1613.94 2202.15 1613.74 2202.45C1613.54 2202.75 1613.4 2203.08 1613.33 2203.44C1613.27 2203.79 1613.27 2204.15 1613.34 2204.51C1613.5 2205.62 1613.91 2206.68 1614.53 2207.61C1615.43 2209.16 1616.54 2210.59 1617.81 2211.85C1619.95 2214 1621.7 2214.84 1621.76 2214.67C1621.82 2214.51 1620.4 2213.43 1618.48 2211.23C1617.37 2209.91 1616.39 2208.49 1615.55 2206.99C1614.59 2205.52 1613.96 2202.87 1615.55 2202.59C1617.13 2202.3 1619.05 2204.17 1620.12 2205.52C1621.11 2206.88 1621.79 2208.45 1622.1 2210.1C1622.27 2211.67 1622.31 2213.26 1622.21 2214.84Z" fill="#263238"/>
<path d="M1504.49 2206.99C1504.49 2206.99 1507.59 2206.71 1512.51 2207.33C1518.91 2208.07 1524.98 2210.6 1530.02 2214.62C1535.02 2218.69 1538.8 2224.06 1540.92 2230.15C1542.56 2234.78 1542.73 2237.95 1542.96 2237.89C1543.07 2237.16 1543.07 2236.42 1542.96 2235.69C1542.75 2233.78 1542.37 2231.89 1541.83 2230.04C1539.9 2223.63 1536.08 2217.96 1530.86 2213.77C1525.65 2209.57 1519.29 2207.05 1512.62 2206.54C1510.63 2206.36 1508.63 2206.36 1506.63 2206.54C1505.22 2206.71 1504.49 2206.88 1504.49 2206.99Z" fill="#263238"/>
<path d="M1515.95 2161.74C1515.17 2169.25 1514.83 2176.79 1514.94 2184.34C1514.55 2191.87 1514.65 2199.42 1515.22 2206.94C1515.97 2199.43 1516.31 2191.88 1516.24 2184.34C1516.62 2176.81 1516.52 2169.26 1515.95 2161.74Z" fill="#263238"/>
<path d="M1556.85 2228.01C1562.05 2229.24 1567.39 2229.79 1572.73 2229.64C1578.07 2229.91 1583.42 2229.49 1588.66 2228.4C1588.66 2228.06 1581.48 2228.4 1572.73 2228.4C1563.97 2228.4 1556.91 2227.61 1556.85 2228.01Z" fill="#263238"/>
<path d="M1535.5 2227.84C1535.5 2228.12 1536.12 2229.36 1536.8 2231C1537.48 2232.64 1537.93 2234.11 1538.32 2234.05C1538.72 2233.99 1538.89 2232.36 1538.04 2230.49C1537.19 2228.63 1535.78 2227.61 1535.5 2227.84Z" fill="#263238"/>
<path d="M1527.53 2217.84C1527.25 2217.84 1527.99 2219.19 1529.12 2220.38C1530.25 2221.57 1531.32 2222.24 1531.6 2221.96C1531.88 2221.68 1531.15 2220.61 1530.02 2219.42C1528.89 2218.23 1527.82 2217.56 1527.53 2217.84Z" fill="#263238"/>
<path d="M1516.07 2213.21C1516.07 2213.6 1517.59 2213.6 1519.17 2214.17C1520.76 2214.73 1521.94 2215.58 1522.22 2215.35C1522.51 2215.13 1521.6 2213.6 1519.63 2212.92C1517.65 2212.25 1515.95 2212.87 1516.07 2213.21Z" fill="#263238"/>
<path d="M1507.88 2211C1507.88 2211.34 1508.39 2211.91 1509.29 2212.3C1510.19 2212.7 1511.04 2212.64 1511.15 2212.3C1511.27 2211.96 1510.64 2211.4 1509.74 2211.06C1508.84 2210.72 1508.27 2210.66 1507.88 2211Z" fill="#263238"/>
<g opacity="0.3">
<path d="M1504.66 2204.05L1613.34 2202.76L1613.23 2189.65L1503.81 2197.16L1504.66 2204.05Z" fill="black"/>
</g>
<path d="M1373.09 1218.71L1416.65 1349.82C1428.4 1385.24 1459.35 1391.34 1496.69 1391.34H1738.98V1336.94L1517.65 1305.36L1464.89 1170.58L1373.09 1218.71Z" fill="#FFBE9D"/>
<path d="M1765.64 1325.7L1784.85 1316.6C1784.85 1316.6 1805.58 1276.55 1810.32 1278.19C1815.07 1279.83 1816.48 1291.58 1808.18 1309.94L1833.71 1302.65C1833.71 1302.65 1889.07 1328.24 1886.64 1331.69C1884.21 1335.13 1879.63 1343.32 1867.6 1337.33C1855.57 1331.35 1839.7 1323.89 1839.7 1323.89L1809.87 1332.42L1848.34 1337.33L1884.55 1370.21C1884.55 1370.21 1872.63 1379.14 1862.41 1369.7L1768.41 1389.87L1738.98 1391.56V1337.17L1765.64 1325.7Z" fill="#FFBE9D"/>
<path d="M1862.41 1369.53C1862.01 1369.53 1860.26 1366.99 1856.76 1363.32C1854.76 1361.21 1852.45 1359.42 1849.92 1358.01C1846.73 1356.48 1843.28 1355.58 1839.75 1355.35C1830.2 1354.7 1820.74 1353.1 1811.51 1350.55C1821.08 1350.23 1830.65 1350.87 1840.09 1352.47C1844.05 1352.72 1847.9 1353.81 1851.39 1355.69C1854.11 1357.33 1856.5 1359.46 1858.45 1361.96C1860.42 1364.09 1861.78 1366.7 1862.41 1369.53V1369.53Z" fill="#EB996E"/>
<path d="M1847.72 1373.26C1847.32 1373.26 1847.04 1371.34 1844.44 1370.78C1841.84 1370.21 1837.44 1369.76 1833.14 1369.31C1827.61 1369.22 1822.09 1368.67 1816.65 1367.67C1822.09 1365.77 1827.93 1365.32 1833.6 1366.37C1837.61 1366.72 1841.57 1367.53 1845.4 1368.8C1846.07 1369.05 1846.68 1369.45 1847.17 1369.97C1847.66 1370.48 1848.02 1371.11 1848.23 1371.79C1848.23 1372.81 1847.89 1373.32 1847.72 1373.26Z" fill="#EB996E"/>
<path d="M1168.54 679.4L1155.38 945.918L1269.49 956.651L1275.82 892.253C1275.82 892.253 1316.04 902.195 1328.24 864.969C1336.09 841.186 1343.04 654.884 1343.04 654.884L1168.54 679.4Z" fill="#FFBE9D"/>
<path d="M1352.87 685.727C1356.03 710.695 1321.18 725.27 1321.18 725.27L1315.08 784.301C1309.62 783.912 1304.15 783.912 1298.7 784.301C1301.63 756.621 1265.93 762.044 1262.32 780.912C1258.7 799.78 1279.26 811.19 1279.26 811.19C1265.03 833.052 1259.21 844.632 1238.99 865.138C1217.07 887.338 1205.09 889.146 1182.5 888.468L1157.58 887.338C1157.58 887.338 1148.66 866.042 1142.16 815.71C1139.06 791.532 1120.13 759.785 1125.56 720.468C1140.81 608.675 1247.91 620.482 1247.91 620.482C1303.89 621.668 1345.53 627.882 1352.87 685.727Z" fill="#263238"/>
<path d="M1271.02 623.363C1295.19 623.984 1320.27 625.905 1341.51 637.485C1362.75 649.065 1379.14 672.96 1374.79 696.743L1362.7 698.946L1357.73 690.02C1357.73 694.765 1357.73 699.511 1357.73 704.256L1336.49 710.187C1333.29 692.052 1326.9 674.628 1317.62 658.725" fill="#263238"/>
<path d="M1173.06 746.002C1172.22 744.716 1171.59 743.305 1171.2 741.821C1169.83 737.87 1168.81 733.806 1168.15 729.676C1165.85 715.964 1166.81 701.904 1170.94 688.629C1175.07 675.354 1182.26 663.234 1191.93 653.246C1194.78 650.202 1197.9 647.422 1201.25 644.942C1202.42 643.916 1203.76 643.095 1205.21 642.513C1205.49 642.908 1200.29 646.806 1193.46 654.601C1184.58 664.756 1177.9 676.644 1173.85 689.512C1169.97 702.426 1168.78 716 1170.35 729.394C1171.42 739.731 1173.57 745.832 1173.06 746.002Z" fill="#455A64"/>
<path d="M1195.55 736.681C1193.36 732.384 1191.85 727.772 1191.08 723.01C1188.58 711.63 1187.83 699.932 1188.88 688.326C1189.86 676.681 1192.6 665.253 1197.01 654.432C1198.61 649.86 1200.91 645.57 1203.85 641.722C1197.77 656.686 1193.72 672.399 1191.82 688.439C1190.9 704.614 1192.16 720.838 1195.55 736.681V736.681Z" fill="#455A64"/>
<path d="M1341.23 695.33C1340.67 695.33 1339.71 688.439 1335.08 678.383C1329.13 665.126 1319.59 653.795 1307.54 645.67C1295.49 637.545 1281.41 632.949 1266.89 632.401C1255.59 631.893 1248.87 633.587 1248.76 633.079C1250.25 632.327 1251.85 631.831 1253.5 631.61C1257.93 630.733 1262.44 630.316 1266.95 630.367C1282.03 630.346 1296.77 634.852 1309.25 643.302C1321.74 651.752 1331.41 663.757 1337 677.762C1338.7 681.932 1339.97 686.267 1340.78 690.698C1341.19 692.207 1341.34 693.772 1341.23 695.33Z" fill="#455A64"/>
<path d="M1176.62 601.784C1183 603.133 1188.76 606.548 1193 611.5C1197.96 615.747 1201.34 621.537 1202.61 627.938C1201.82 628.277 1198.14 620.708 1190.91 613.533C1183.68 606.359 1176.23 602.631 1176.62 601.784Z" fill="#263238"/>
<path d="M1203.23 601.897C1204.08 602.179 1202.32 608.167 1202.66 615.567C1203 622.967 1205.04 628.729 1204.25 629.125C1201.07 625.39 1199.45 620.576 1199.73 615.68C1199.05 610.805 1200.31 605.858 1203.23 601.897V601.897Z" fill="#455A64"/>
<path d="M1352.59 1190.12L1371.17 1253.22L1489.46 1199.73C1485.22 1186.51 1465.62 1127.65 1428.23 1034.21C1417.99 1008.6 1401.33 986.052 1379.85 968.747C1358.37 951.442 1332.79 939.961 1305.59 935.411C1268.29 928.605 1230.51 924.827 1192.61 924.113C1126.29 924.848 1028.79 966.311 1015.57 1031.44C1005.51 1081.04 1015.17 1168.66 1015.17 1275.08L1023.82 1478.45L1363.66 1489.74L1352.59 1190.12Z" fill="#EF5B00"/>
<g opacity="0.3">
<path d="M1015.34 1228.08C1056.69 1236.56 1099.12 1228.08 1141.26 1225.54C1166.79 1224.02 1195.15 1221.25 1215.37 1236.84C1231.42 1249.27 1237.97 1270.22 1242.49 1290C1260.11 1365.3 1263.28 1415.8 1267.23 1493.02L1062.68 1505.45L1015.34 1228.08Z" fill="black"/>
</g>
<path d="M1418.28 1014.72C1418.28 1015.57 1329.03 1016.19 1218.99 1016.19C1108.95 1016.19 1019.75 1015.57 1019.75 1014.72C1019.75 1013.88 1108.95 1013.25 1218.99 1013.25C1329.03 1013.25 1418.28 1013.93 1418.28 1014.72Z" fill="#FAFAFA"/>
<path d="M1443.08 1071.83C1443.08 1072.62 1346.03 1073.3 1226.45 1073.3C1106.86 1073.3 1009.81 1072.62 1009.81 1071.83C1009.81 1071.04 1106.74 1070.36 1226.45 1070.36C1346.15 1070.36 1443.08 1071.04 1443.08 1071.83Z" fill="#FAFAFA"/>
<path d="M1474.38 1143.46C1474.38 1144.31 1370.89 1144.93 1243.22 1144.93C1115.56 1144.93 1012.07 1144.31 1012.07 1143.46C1012.07 1142.61 1115.56 1141.99 1243.22 1141.99C1370.89 1141.99 1474.38 1142.67 1474.38 1143.46Z" fill="#FAFAFA"/>
<path d="M1350.1 1220.74C1350.1 1221.53 1317.73 1222.21 1277.91 1222.21C1238.08 1222.21 1205.66 1221.53 1205.66 1220.74C1205.66 1219.95 1237.97 1219.27 1277.91 1219.27C1317.85 1219.27 1350.1 1219.89 1350.1 1220.74Z" fill="#FAFAFA"/>
<path d="M1356.71 1304.63C1356.71 1305.42 1322.82 1305.81 1281.13 1305.47C1239.44 1305.14 1205.54 1304.23 1205.54 1303.38C1205.54 1302.54 1239.44 1302.2 1281.13 1302.54C1322.82 1302.88 1356.71 1303.67 1356.71 1304.63Z" fill="#FAFAFA"/>
<path d="M1359.99 1372.7C1358.03 1373.05 1356.04 1373.15 1354.06 1372.98L1337.84 1372.64C1324.17 1372.36 1305.31 1371.96 1284.46 1371.96C1263.62 1371.96 1244.92 1372.3 1231.08 1372.58L1214.87 1372.92C1212.88 1373.18 1210.86 1373.18 1208.88 1372.92C1210.81 1372.36 1212.8 1372.06 1214.81 1372.02C1218.59 1371.62 1224.13 1371.23 1230.96 1370.83C1244.64 1369.99 1263.56 1369.31 1284.46 1369.31C1305.36 1369.31 1324.29 1370.04 1337.9 1370.89C1344.73 1371.28 1350.27 1371.74 1354.11 1372.13C1356.09 1372.08 1358.06 1372.27 1359.99 1372.7Z" fill="#FAFAFA"/>
<path d="M1358.91 1427.83C1358.91 1428.62 1325.58 1429.3 1284.46 1429.3C1243.34 1429.3 1210.06 1428.62 1210.06 1427.83C1210.06 1427.04 1243.34 1426.36 1284.46 1426.36C1325.58 1426.36 1358.91 1426.98 1358.91 1427.83Z" fill="#FAFAFA"/>
<path d="M1369.03 958.741C1369.03 959.589 1303.61 960.21 1222.94 960.21C1142.28 960.21 1076.8 959.589 1076.8 958.741C1076.8 957.894 1142.22 957.272 1222.94 957.272C1303.67 957.272 1369.03 957.95 1369.03 958.741Z" fill="#FAFAFA"/>
<path d="M1361.4 969.361C1361.4 969.7 1358.01 969.87 1352.36 972.073C1344.52 975.511 1337.75 980.993 1332.76 987.946C1325.55 998.391 1321.49 1010.68 1321.07 1023.37C1320.64 1038.97 1321.85 1054.57 1324.68 1069.91C1329.43 1098.02 1335.77 1125.84 1343.66 1153.23C1346.43 1163.46 1348.75 1171.88 1350.5 1178.26C1351.45 1181.29 1352.18 1184.39 1352.7 1187.52C1351.35 1184.65 1350.25 1181.67 1349.42 1178.6C1347.5 1172.95 1344.79 1164.31 1341.63 1153.8C1333.22 1126.45 1326.62 1098.58 1321.86 1070.36C1319.02 1054.79 1317.89 1038.96 1318.47 1023.14C1319.06 1010 1323.5 997.333 1331.23 986.704C1336.53 979.572 1343.76 974.12 1352.08 971C1354.33 970.233 1356.66 969.703 1359.03 969.418C1359.81 969.286 1360.61 969.266 1361.4 969.361V969.361Z" fill="#263238"/>
<path d="M1485.68 1183.57C1480.41 1187.25 1474.83 1190.46 1469.01 1193.17C1458.5 1198.82 1443.76 1205.88 1427.27 1213.34C1410.77 1220.8 1395.63 1227.01 1384.56 1231.25C1378.67 1233.79 1372.59 1235.85 1366.37 1237.4C1371.96 1234.29 1377.78 1231.59 1383.77 1229.33C1394.61 1224.58 1409.64 1218.03 1426.08 1210.68C1442.52 1203.34 1457.32 1196.28 1468.05 1191.31C1473.74 1188.33 1479.63 1185.75 1485.68 1183.57Z" fill="#263238"/>
<path d="M1128.72 1481.78L1534.77 1496.13C1566.45 1497.26 1596.42 1510.77 1618.26 1533.75C1640.1 1556.73 1652.06 1587.35 1651.59 1619.05L1634.64 2198.97L1477.77 2193.77L1489.46 1650.8L1128.66 1641.31L1128.72 1481.78Z" fill="#263238"/>
<path d="M960.944 1481.78L1367.05 1496.13C1398.73 1497.26 1428.71 1510.77 1450.54 1533.75C1472.38 1556.73 1484.35 1587.35 1483.87 1619.05L1466.92 2198.97L1307.96 2186.37L1321.86 1650.8L961.057 1641.31L960.944 1481.78Z" fill="#263238"/>
<path d="M1264.86 1692.43H1224.92V2170.95H1264.86V1692.43Z" fill="#455A64"/>
<path d="M889.768 1227.97V1580.24C889.768 1602.43 898.582 1623.71 914.271 1639.4C929.961 1655.09 951.24 1663.9 973.429 1663.9H1208.03V1227.97C1208.03 1223.07 1207.07 1218.23 1205.19 1213.7C1203.32 1209.18 1200.57 1205.07 1197.11 1201.61C1193.65 1198.15 1189.54 1195.4 1185.01 1193.53C1180.49 1191.65 1175.64 1190.69 1170.75 1190.69H927.051C922.155 1190.69 917.306 1191.65 912.783 1193.53C908.26 1195.4 904.15 1198.15 900.688 1201.61C897.225 1205.07 894.479 1209.18 892.606 1213.7C890.732 1218.23 889.768 1223.07 889.768 1227.97V1227.97Z" fill="#455A64"/>
<path d="M1523.69 1692.43H952.471C952.471 1675.95 959.018 1660.14 970.671 1648.49C982.324 1636.84 998.129 1630.29 1014.61 1630.29H1461.84C1478.32 1630.29 1494.12 1636.84 1505.78 1648.49C1517.43 1660.14 1523.98 1675.95 1523.98 1692.43H1523.69Z" fill="#455A64"/>
<path d="M1208.03 1622.21C1208.1 1623.11 1208.1 1624.02 1208.03 1624.92C1207.98 1627.51 1207.66 1630.09 1207.07 1632.61C1205.19 1640.58 1201.02 1647.84 1195.08 1653.48C1189.14 1659.13 1181.69 1662.93 1173.63 1664.41C1166.12 1665.21 1158.57 1665.5 1151.03 1665.26H1099.68C1063.25 1665.26 1030.26 1665.26 1006.42 1664.92L978.174 1664.52L970.491 1664.24C969.581 1664.23 968.673 1664.13 967.78 1663.96C968.661 1663.71 969.575 1663.59 970.491 1663.62L978.174 1663.34L1006.42 1662.83C1030.26 1662.55 1063.25 1662.38 1099.68 1662.32H1150.98C1158.38 1662.62 1165.79 1662.45 1173.18 1661.81C1179.43 1660.74 1185.35 1658.23 1190.46 1654.47C1198.01 1648.9 1203.45 1640.93 1205.88 1631.87C1207.86 1625.94 1207.69 1622.21 1208.03 1622.21Z" fill="#263238"/>
<path d="M1279.94 1693.67C1268.31 1695.16 1256.57 1695.65 1244.86 1695.14C1233.17 1695.65 1221.45 1695.16 1209.84 1693.67C1221.45 1692.22 1233.17 1691.73 1244.86 1692.2C1256.57 1691.73 1268.31 1692.22 1279.94 1693.67V1693.67Z" fill="#263238"/>
<path d="M1453.7 1666.95C1452.03 1661.42 1450.85 1655.75 1450.2 1650C1448.28 1639.16 1445.74 1623.4 1442.69 1603.97C1439.64 1584.53 1437.55 1560.98 1426.81 1537.65C1421.19 1525.51 1414.07 1514.13 1405.63 1503.75C1396.4 1492.75 1385.68 1483.09 1373.77 1475.06C1361.91 1466.93 1348.88 1460.66 1335.13 1456.47C1322.33 1452.38 1309.02 1450.08 1295.59 1449.64C1269.77 1449.07 1246.16 1449.18 1226.5 1448.79C1206.84 1448.39 1190.86 1448.22 1179.84 1447.88C1174.17 1448.02 1168.49 1447.62 1162.89 1446.7C1168.5 1445.82 1174.17 1445.44 1179.84 1445.57C1190.86 1445.23 1206.79 1444.89 1226.5 1444.66C1246.22 1444.44 1269.55 1443.93 1295.76 1444.27C1324.73 1444.95 1352.89 1453.95 1376.88 1470.2C1389.26 1478.51 1400.38 1488.57 1409.87 1500.08C1418.6 1510.89 1425.91 1522.77 1431.62 1535.44C1432.91 1538.44 1433.99 1541.54 1435.17 1544.54L1436.87 1549.06C1437.26 1550.58 1437.72 1552.11 1438.11 1553.63C1438.96 1556.63 1439.81 1559.62 1440.6 1562.56C1441.39 1565.5 1441.67 1568.49 1442.24 1571.37C1444.21 1582.95 1445.29 1593.57 1446.64 1603.4C1449.13 1622.89 1451.1 1638.76 1452.29 1649.67C1453.28 1655.37 1453.75 1661.16 1453.7 1666.95V1666.95Z" fill="#455A64"/>
<path d="M1419.58 2214.11H1413.93C1414.35 2191.53 1410.25 2169.1 1401.9 2148.12C1393.54 2127.14 1381.09 2108.03 1365.27 2091.92C1349.45 2075.81 1330.57 2063.01 1309.75 2054.27C1288.92 2045.53 1266.57 2041.03 1243.99 2041.03C1221.4 2041.03 1199.05 2045.53 1178.22 2054.27C1157.4 2063.01 1138.52 2075.81 1122.7 2091.92C1106.88 2108.03 1094.43 2127.14 1086.07 2148.12C1077.72 2169.1 1073.62 2191.53 1074.04 2214.11H1068.39C1067.97 2190.78 1072.2 2167.61 1080.84 2145.94C1089.48 2124.27 1102.34 2104.53 1118.69 2087.89C1135.04 2071.25 1154.54 2058.03 1176.05 2049.01C1197.56 2039.98 1220.66 2035.33 1243.99 2035.33C1267.31 2035.33 1290.41 2039.98 1311.92 2049.01C1333.43 2058.03 1352.93 2071.25 1369.28 2087.89C1385.63 2104.53 1398.5 2124.27 1407.13 2145.94C1415.77 2167.61 1420 2190.78 1419.58 2214.11V2214.11Z" fill="#455A64"/>
<path d="M1097.54 2223.03C1097.54 2228.24 1095.99 2233.33 1093.1 2237.66C1090.21 2241.99 1086.1 2245.36 1081.29 2247.36C1076.48 2249.35 1071.18 2249.87 1066.08 2248.85C1060.97 2247.84 1056.28 2245.33 1052.6 2241.65C1048.92 2237.97 1046.41 2233.28 1045.39 2228.17C1044.38 2223.06 1044.9 2217.77 1046.89 2212.96C1048.88 2208.15 1052.26 2204.04 1056.59 2201.15C1060.92 2198.25 1066.01 2196.71 1071.21 2196.71C1074.67 2196.7 1078.1 2197.38 1081.29 2198.7C1084.49 2200.02 1087.4 2201.96 1089.84 2204.4C1092.29 2206.85 1094.23 2209.76 1095.55 2212.95C1096.87 2216.15 1097.54 2219.58 1097.54 2223.03V2223.03Z" fill="#263238"/>
<path d="M1444.38 2219.42C1444.38 2224.63 1442.84 2229.72 1439.95 2234.04C1437.05 2238.37 1432.94 2241.75 1428.13 2243.74C1423.32 2245.73 1418.03 2246.25 1412.92 2245.24C1407.82 2244.22 1403.13 2241.72 1399.44 2238.03C1395.76 2234.35 1393.26 2229.66 1392.24 2224.56C1391.22 2219.45 1391.75 2214.16 1393.74 2209.35C1395.73 2204.54 1399.1 2200.42 1403.43 2197.53C1407.76 2194.64 1412.85 2193.1 1418.06 2193.1C1425.04 2193.1 1431.74 2195.87 1436.67 2200.81C1441.61 2205.74 1444.38 2212.44 1444.38 2219.42Z" fill="#263238"/>
<path d="M1417.89 2170.95C1417.89 2171.8 1341.46 2172.48 1247.23 2172.48C1153.01 2172.48 1076.58 2171.8 1076.58 2170.95C1076.58 2170.1 1152.95 2169.48 1247.23 2169.48C1341.51 2169.48 1417.89 2170.16 1417.89 2170.95Z" fill="#455A64"/>
<path d="M834.916 1071.72C839.082 1074.35 842.678 1077.79 845.491 1081.84C848.305 1085.89 850.28 1090.46 851.298 1095.28C853.23 1104.99 852.921 1115.02 850.394 1124.59C846.101 1143.12 833.447 1160.86 819.89 1174.53C805.711 1158.88 804.864 1134.37 805.203 1121.88C805.768 1102.17 818.817 1066.86 834.916 1071.72Z" fill="#EF5B00"/>
<path d="M834.69 1207.75C834.263 1202.27 835.285 1196.77 837.655 1191.82C840.025 1186.86 843.659 1182.61 848.191 1179.5C852.797 1176.46 857.959 1174.37 863.38 1173.34C868.8 1172.32 874.371 1172.37 879.769 1173.51C882.302 1173.78 884.746 1174.6 886.931 1175.9C889.117 1177.21 890.991 1178.98 892.423 1181.08C893.42 1183.25 893.82 1185.65 893.582 1188.02C893.343 1190.39 892.475 1192.66 891.067 1194.59C888.151 1198.43 884.247 1201.42 879.769 1203.23C865.025 1210.23 849.491 1214.53 834.577 1207.86" fill="#EF5B00"/>
<path d="M810.852 1249.1C811.635 1244.95 812.846 1240.9 814.467 1237.01C816.046 1232.68 818.152 1228.56 820.737 1224.75C823.691 1219.99 826.976 1215.44 830.566 1211.14C837.172 1203.21 845.632 1197.04 855.196 1193.17C858.106 1192.1 861.114 1191.33 864.178 1190.86C865.3 1190.67 866.445 1190.67 867.567 1190.86C867.567 1191.25 862.822 1191.76 855.761 1194.75C846.667 1198.91 838.618 1205.05 832.205 1212.72C828.662 1216.94 825.379 1221.37 822.375 1225.99C819.789 1229.67 817.593 1233.61 815.823 1237.74C814.438 1241.64 812.777 1245.44 810.852 1249.1V1249.1Z" fill="#263238"/>
<path d="M827.347 1099.46C827.557 1101.58 827.557 1103.72 827.347 1105.84C827.347 1109.91 826.782 1115.84 826.273 1123.13C825.2 1137.76 823.449 1157.92 821.076 1180.18C818.704 1202.44 815.879 1222.43 813.563 1236.67C812.377 1243.9 811.416 1249.72 810.626 1253.62C810.334 1255.72 809.862 1257.8 809.213 1259.83C809.194 1257.69 809.384 1255.55 809.778 1253.45C810.4 1249.04 811.134 1243.22 812.038 1236.5C813.959 1221.98 816.501 1201.93 818.93 1179.67C821.359 1157.42 823.223 1137.7 824.579 1122.79C825.313 1115.78 825.934 1109.96 826.386 1105.5C826.559 1103.47 826.88 1101.45 827.347 1099.46Z" fill="#263238"/>
<path d="M809.948 1212.21C807.769 1200.78 802.904 1190.03 795.754 1180.84C788.603 1171.66 779.373 1164.31 768.823 1159.39C763.174 1156.96 756.452 1155.44 752.159 1159.39C747.866 1163.35 748.996 1170.69 751.255 1176.06C756.179 1187.39 764.35 1197 774.736 1203.69C785.123 1210.37 797.258 1213.83 809.609 1213.62" fill="#EF5B00"/>
<path d="M772.947 1176.23C774.016 1176.56 775.026 1177.05 775.941 1177.69C787.36 1184.25 797.303 1193.1 805.146 1203.68C808.234 1208.36 810.543 1213.51 811.981 1218.93C813.097 1223.36 813.61 1227.92 813.507 1232.49C813.427 1235.55 813.068 1238.59 812.433 1241.58C812.286 1242.71 811.981 1243.82 811.529 1244.86C811.078 1244.86 812.094 1240.06 811.981 1232.49C811.871 1228.08 811.246 1223.7 810.117 1219.44C808.604 1214.27 806.318 1209.36 803.339 1204.87C797.633 1196.79 790.672 1189.68 782.72 1183.8C779.309 1181.48 776.045 1178.95 772.947 1176.23V1176.23Z" fill="#263238"/>
<path d="M808.084 1391.4C789.351 1391.38 771.391 1383.93 758.15 1370.68C744.909 1357.43 737.472 1339.46 737.472 1320.73V1250.11H878.696V1320.73C878.696 1339.46 871.258 1357.43 858.017 1370.68C844.777 1383.93 826.816 1391.38 808.084 1391.4V1391.4Z" fill="#263238"/>
<path d="M878.752 1284.86C878.182 1285.58 877.539 1286.24 876.831 1286.83L871.182 1292.09L849.66 1310.28L849.152 1310.67L848.53 1310.33L807.801 1285.87H808.987L770.631 1310.28L770.066 1310.67L769.501 1310.22L746.058 1291.86L739.618 1286.66C738.821 1286.08 738.1 1285.39 737.472 1284.63C738.392 1285.01 739.249 1285.52 740.014 1286.16C741.821 1287.45 744.081 1289.09 746.792 1290.96L770.687 1308.69H769.558L807.462 1283.73L808.084 1283.33L808.705 1283.67L849.434 1308.64H848.304L870.166 1290.96L876.323 1286.1C877.905 1285.31 878.696 1284.74 878.752 1284.86Z" fill="#E0E0E0"/>
<path d="M878.752 1270.73C878.182 1271.46 877.539 1272.12 876.831 1272.71L871.182 1277.96L849.886 1296.32L849.377 1296.72L848.756 1296.38L807.801 1271.75H808.987L770.857 1296.44L770.292 1296.83L769.727 1296.38L746.284 1278.02L739.844 1272.82C739.047 1272.24 738.325 1271.55 737.698 1270.79C738.618 1271.17 739.475 1271.68 740.24 1272.31L747.018 1277.12L770.913 1294.85H769.784L807.688 1269.89L808.31 1269.49L808.931 1269.83L849.66 1294.8H848.53L870.392 1277.12L876.549 1272.26C877.905 1271.19 878.696 1270.73 878.752 1270.73Z" fill="#E0E0E0"/>
<path d="M878.752 1298.98C878.752 1298.98 878.131 1299.77 876.831 1301.01L871.183 1306.21L849.886 1324.57L849.378 1325.02L848.756 1324.62L807.801 1300.28H808.988L770.857 1324.96L770.292 1325.36L769.727 1324.96C760.293 1317.51 752.328 1311.29 746.284 1306.6L739.844 1301.35C738.375 1300.11 737.641 1299.43 737.698 1299.32C738.603 1299.72 739.457 1300.23 740.24 1300.84C742.047 1302.2 744.307 1303.78 747.018 1305.7L770.913 1323.38H769.784L807.688 1298.41L808.31 1298.02L808.931 1298.41L849.66 1323.33H848.53L870.392 1305.59L876.549 1300.79C877.201 1300.09 877.942 1299.48 878.752 1298.98V1298.98Z" fill="#E0E0E0"/>
<path d="M2709.01 1557.25C2679.75 1561.99 2666.65 1597.92 2669.47 1627.46C2672.3 1657.01 2684.22 1685.93 2680.77 1715.36C2676.65 1752.82 2648.34 1784.45 2645.07 1821.96C2641.17 1866.19 2672.47 1905.45 2681.79 1948.83C2686.36 1969.96 2685.74 1992.33 2693.59 2012.44C2700.3 2029.57 2712.73 2043.84 2728.78 2052.83C2744.83 2061.81 2763.5 2064.96 2781.6 2061.72C2799.71 2058.48 2816.13 2049.06 2828.07 2035.07C2840.01 2021.08 2846.73 2003.38 2847.08 1984.99C2847.7 1951.09 2826.74 1919.06 2829.28 1885.17C2831.15 1860.15 2845.83 1836.42 2842.73 1811.73C2838.94 1782.08 2811.49 1760.89 2801.77 1732.65C2792.05 1704.4 2801.43 1673.22 2798.04 1643.51C2792.05 1590.24 2762.51 1553.12 2709.07 1557.36" fill="#EF5B00"/>
<path d="M2559.54 1815.24C2554.52 1864.61 2576.49 1922.57 2601.74 1965.33C2627.44 2008.28 2666.17 2041.92 2712.29 2061.36C2717.43 2063.51 2723.87 2065.32 2728.22 2061.81C2729.77 2060.12 2730.93 2058.11 2731.62 2055.93C2732.32 2053.74 2732.52 2051.43 2732.23 2049.16C2732.61 1996.75 2715.98 1945.64 2684.84 1903.48C2653.71 1861.33 2609.74 1830.4 2559.54 1815.35" fill="#EF5B00"/>
<g opacity="0.2">
<path d="M2559.54 1815.24C2554.52 1864.61 2576.49 1922.57 2601.74 1965.33C2627.44 2008.28 2666.17 2041.92 2712.29 2061.36C2717.43 2063.51 2723.87 2065.32 2728.22 2061.81C2729.77 2060.12 2730.93 2058.11 2731.62 2055.93C2732.32 2053.74 2732.52 2051.43 2732.23 2049.16C2732.61 1996.75 2715.98 1945.64 2684.84 1903.48C2653.71 1861.33 2609.74 1830.4 2559.54 1815.35" fill="black"/>
</g>
<path d="M2774.6 2164.46C2774.01 2163.62 2773.53 2162.71 2773.19 2161.74L2769.63 2153.61C2766.69 2146.6 2762.23 2136.66 2756.58 2123.95C2741.87 2091.53 2725.52 2059.87 2707.6 2029.11C2689.56 1998.38 2669.99 1968.57 2648.97 1939.8C2640.89 1928.78 2634.22 1919.91 2629.53 1913.87C2627.39 1911.04 2625.58 1908.67 2624.22 1906.81C2623.56 1906.02 2622.97 1905.17 2622.47 1904.26C2622.47 1904.26 2623.32 1904.94 2624.62 1906.47L2630.27 1913.19C2635.24 1918.84 2642.13 1927.71 2650.44 1938.61C2693.68 1995.58 2729.92 2057.55 2758.39 2123.16C2764.04 2135.76 2767.99 2146.04 2770.64 2153.21L2773.7 2161.52C2774.08 2162.47 2774.39 2163.45 2774.6 2164.46V2164.46Z" fill="#263238"/>
<path d="M2742.8 1693.84C2743.11 1695.4 2743.3 1696.99 2743.36 1698.59C2743.36 1701.92 2743.93 1706.44 2744.32 1712.2C2745.11 1724.23 2746.19 1741.29 2747.54 1762.19C2750.2 1804.45 2753.92 1862.8 2758.5 1927.2C2763.08 1991.6 2767.48 2049.95 2770.76 2092.15C2772.34 2113.05 2773.64 2130.05 2774.6 2142.14C2774.99 2147.79 2775.28 2152.37 2775.5 2155.7C2775.64 2157.3 2775.64 2158.9 2775.5 2160.5C2775.5 2160.5 2775.22 2158.86 2774.83 2155.76C2774.43 2152.65 2773.98 2147.9 2773.36 2142.2C2772.23 2130.17 2770.65 2113.16 2768.67 2092.32C2764.88 2050.12 2760.08 1991.88 2755.56 1927.42C2751.04 1862.97 2747.71 1804.62 2745.39 1762.19C2744.43 1741.24 2743.64 1724.23 2743.08 1712.14C2743.08 1706.49 2742.74 1701.86 2742.63 1698.47C2742.54 1696.93 2742.6 1695.38 2742.8 1693.84V1693.84Z" fill="#263238"/>
<path d="M2697.38 2094.07H2821.03V2184.85C2821.02 2200.58 2814.76 2215.67 2803.62 2226.79C2792.49 2237.91 2777.4 2244.16 2761.66 2244.16V2244.16C2746.47 2244.17 2731.86 2238.35 2720.84 2227.9C2709.81 2217.46 2703.22 2203.18 2702.41 2188.01L2697.38 2094.07Z" fill="#263238"/>
<path d="M2071.13 897.281L2366.01 1060.59L2354.94 1081.38L2062.66 915.018L2071.13 897.281Z" fill="#EF5B00"/>
<path d="M2056.62 881.859L2070.17 861.127L2078.08 865.985L2065.94 886.886L2056.62 881.859Z" fill="#EF5B00"/>
<path d="M2332.51 1034.78L2347.65 1043.48L2298.28 1358.57L2274.89 1358.86L2332.51 1034.78Z" fill="#EF5B00"/>
<path d="M2206.94 1391.39C2206.94 1391.39 2242.92 1355.02 2291.05 1357.5C2304.8 1358 2318.32 1361.22 2330.83 1366.97C2343.34 1372.72 2354.58 1380.89 2363.92 1391L2206.94 1391.39Z" fill="#EF5B00"/>
<path d="M2056.9 1024.72L1940.14 957.272L1974.03 898.919C1978.45 891.25 1984.34 884.528 1991.37 879.137C1998.39 873.746 2006.4 869.792 2014.95 867.499C2023.5 865.207 2032.42 864.621 2041.2 865.777C2049.98 866.932 2058.44 869.806 2066.11 874.233V874.233C2081.58 883.177 2092.88 897.899 2097.5 915.163C2102.13 932.428 2099.72 950.824 2090.79 966.311L2056.9 1024.72Z" fill="#EF5B00"/>
</svg>
