<svg xmlns="http://www.w3.org/2000/svg" xmlns:xlink="http://www.w3.org/1999/xlink" width="1200" zoomAndPan="magnify" viewBox="0 0 900 449.999984" height="600" preserveAspectRatio="xMidYMid meet" version="1.0"><defs><clipPath id="0dbfc371f5"><path d="M 0 0 L 900 0 L 900 52.21875 L 0 52.21875 Z M 0 0 " clip-rule="nonzero"/></clipPath><clipPath id="50360c056a"><path d="M 463.847656 52.21875 L 900 52.21875 L 900 346 L 463.847656 346 Z M 463.847656 52.21875 " clip-rule="nonzero"/></clipPath><clipPath id="07fc2f171d"><path d="M 681.921875 345.574219 L 900 52.21875 L 463.847656 52.21875 L 681.921875 345.574219 " clip-rule="nonzero"/></clipPath></defs><rect x="-90" width="1080" fill="#ffffff" y="-44.999998" height="539.99998" fill-opacity="1"/><rect x="-90" width="1080" fill="#ffffff" y="-44.999998" height="539.99998" fill-opacity="1"/><rect x="-90" width="1080" fill="#ffffff" y="-44.999998" height="539.99998" fill-opacity="1"/><g clip-path="url(#0dbfc371f5)"><path fill="#002480" d="M -164.730469 0 L 913.160156 0 L 913.160156 52.734375 L -164.730469 52.734375 Z M -164.730469 0 " fill-opacity="1" fill-rule="nonzero"/></g><g clip-path="url(#50360c056a)"><g clip-path="url(#07fc2f171d)"><path fill="#002480" d="M 463.847656 52.21875 L 900 52.21875 L 900 345.257812 L 463.847656 345.257812 Z M 463.847656 52.21875 " fill-opacity="1" fill-rule="nonzero"/></g></g></svg>