<svg xmlns="http://www.w3.org/2000/svg" xmlns:xlink="http://www.w3.org/1999/xlink" width="1200" zoomAndPan="magnify" viewBox="0 0 900 449.999984" height="600" preserveAspectRatio="xMidYMid meet" version="1.0"><defs><clipPath id="c50047a4f1"><path d="M 365 0 L 869 0 L 869 253 L 365 253 Z M 365 0 " clip-rule="nonzero"/></clipPath><clipPath id="609199f3b5"><path d="M 365.894531 -212.921875 L 876.425781 -41.402344 L 747.789062 341.496094 L 237.253906 169.976562 Z M 365.894531 -212.921875 " clip-rule="nonzero"/></clipPath><clipPath id="dbfdebb5b2"><path d="M 491.113281 252.925781 L 872.203125 -42.820312 L 365.894531 -212.921875 L 491.113281 252.925781 " clip-rule="nonzero"/></clipPath><clipPath id="e2abd9fbca"><path d="M 0 0 L 493.375 0 L 493.375 251.507812 L 0 251.507812 Z M 0 0 " clip-rule="nonzero"/></clipPath><clipPath id="b225406986"><path d="M 0 22 L 295 22 L 295 450 L 0 450 Z M 0 22 " clip-rule="nonzero"/></clipPath><clipPath id="4e6b299a79"><path d="M -51.441406 22.539062 L 296.839844 216.550781 L 103.855469 562.988281 L -244.425781 368.976562 Z M -51.441406 22.539062 " clip-rule="nonzero"/></clipPath><clipPath id="819c62bebf"><path d="M -70.460938 465.015625 L 295.75 215.945312 L -51.441406 22.539062 L -70.460938 465.015625 " clip-rule="nonzero"/></clipPath><clipPath id="3f16b7fbe2"><path d="M 624 0 L 900 0 L 900 255 L 624 255 Z M 624 0 " clip-rule="nonzero"/></clipPath><clipPath id="b41de1ab1b"><path d="M 624.453125 87.972656 L 965.316406 -171.199219 L 1191.292969 126.007812 L 850.429688 385.179688 Z M 624.453125 87.972656 " clip-rule="nonzero"/></clipPath><clipPath id="5debc96b2a"><path d="M 1019.832031 254.511719 L 965.050781 -171 L 624.453125 87.972656 L 1019.832031 254.511719 " clip-rule="nonzero"/></clipPath></defs><rect x="-90" width="1080" fill="#ffffff" y="-44.999998" height="539.99998" fill-opacity="1"/><rect x="-90" width="1080" fill="#ffffff" y="-44.999998" height="539.99998" fill-opacity="1"/><rect x="-90" width="1080" fill="#ffffff" y="-44.999998" height="539.99998" fill-opacity="1"/><g clip-path="url(#c50047a4f1)"><g clip-path="url(#609199f3b5)"><g clip-path="url(#dbfdebb5b2)"><path fill="#002480" d="M 365.894531 -212.921875 L 868.917969 -43.925781 L 740.28125 338.976562 L 237.253906 169.976562 Z M 365.894531 -212.921875 " fill-opacity="1" fill-rule="nonzero"/></g></g></g><g clip-path="url(#e2abd9fbca)"><path fill="#002480" d="M -93.0625 -61.78125 L 493.34375 -61.78125 L 493.34375 252.515625 L -93.0625 252.515625 Z M -93.0625 -61.78125 " fill-opacity="1" fill-rule="nonzero"/></g><g clip-path="url(#b225406986)"><g clip-path="url(#4e6b299a79)"><g clip-path="url(#819c62bebf)"><path fill="#002480" d="M -51.441406 22.539062 L 294.996094 215.523438 L 102.011719 561.960938 L -244.425781 368.976562 Z M -51.441406 22.539062 " fill-opacity="1" fill-rule="nonzero"/></g></g></g><g clip-path="url(#3f16b7fbe2)"><g clip-path="url(#b41de1ab1b)"><g clip-path="url(#5debc96b2a)"><path fill="#002480" d="M 624.453125 87.972656 L 965.316406 -171.199219 L 1190.015625 124.328125 L 849.152344 383.5 Z M 624.453125 87.972656 " fill-opacity="1" fill-rule="nonzero"/></g></g></g></svg>