<svg xmlns="http://www.w3.org/2000/svg" xmlns:xlink="http://www.w3.org/1999/xlink" width="1200" zoomAndPan="magnify" viewBox="0 0 900 449.999984" height="600" preserveAspectRatio="xMidYMid meet" version="1.0"><defs><clipPath id="b39250b054"><path d="M 381 0 L 878 0 L 878 310 L 381 310 Z M 381 0 " clip-rule="nonzero"/></clipPath><clipPath id="b9bf083c3d"><path d="M 381.863281 -200.65625 L 884.570312 -7.394531 L 725.414062 406.597656 L 222.707031 213.335938 Z M 381.863281 -200.65625 " clip-rule="nonzero"/></clipPath><clipPath id="2bff33b68d"><path d="M 471.980469 309.167969 L 880.410156 -8.992188 L 381.863281 -200.65625 L 471.980469 309.167969 " clip-rule="nonzero"/></clipPath><clipPath id="1b69f4a131"><path d="M 0 2.25 L 471.710938 2.25 L 471.710938 309 L 0 309 Z M 0 2.25 " clip-rule="nonzero"/></clipPath><clipPath id="ac18a34005"><path d="M 0 78 L 241 78 L 241 450 L 0 450 Z M 0 78 " clip-rule="nonzero"/></clipPath><clipPath id="e2c5ae46de"><path d="M -105.933594 78.988281 L 242.34375 273 L 60.652344 599.164062 L -287.628906 405.152344 Z M -105.933594 78.988281 " clip-rule="nonzero"/></clipPath><clipPath id="9aaaba6167"><path d="M -113.308594 500.558594 L 241.257812 272.390625 L -105.933594 78.988281 L -113.308594 500.558594 " clip-rule="nonzero"/></clipPath><clipPath id="47a371e10f"><path d="M 624 0 L 900 0 L 900 255 L 624 255 Z M 624 0 " clip-rule="nonzero"/></clipPath><clipPath id="b2ef628071"><path d="M 624.453125 87.972656 L 965.316406 -171.199219 L 1191.292969 126.007812 L 850.429688 385.179688 Z M 624.453125 87.972656 " clip-rule="nonzero"/></clipPath><clipPath id="7846987715"><path d="M 1019.832031 254.511719 L 965.050781 -171 L 624.453125 87.972656 L 1019.832031 254.511719 " clip-rule="nonzero"/></clipPath></defs><rect x="-90" width="1080" fill="#ffffff" y="-44.999998" height="539.99998" fill-opacity="1"/><rect x="-90" width="1080" fill="#ffffff" y="-44.999998" height="539.99998" fill-opacity="1"/><rect x="-90" width="1080" fill="#ffffff" y="-44.999998" height="539.99998" fill-opacity="1"/><g clip-path="url(#b39250b054)"><g clip-path="url(#b9bf083c3d)"><g clip-path="url(#2bff33b68d)"><path fill="#002480" d="M 381.863281 -200.65625 L 877.179688 -10.238281 L 718.019531 403.757812 L 222.707031 213.335938 Z M 381.863281 -200.65625 " fill-opacity="1" fill-rule="nonzero"/></g></g></g><g clip-path="url(#1b69f4a131)"><path fill="#002480" d="M -90.625 2.25 L 472.578125 2.25 L 472.578125 308.109375 L -90.625 308.109375 Z M -90.625 2.25 " fill-opacity="1" fill-rule="nonzero"/></g><g clip-path="url(#ac18a34005)"><g clip-path="url(#e2c5ae46de)"><g clip-path="url(#9aaaba6167)"><path fill="#002480" d="M -105.933594 78.988281 L 240.503906 271.972656 L 59.835938 596.296875 L -286.601562 403.3125 Z M -105.933594 78.988281 " fill-opacity="1" fill-rule="nonzero"/></g></g></g><g clip-path="url(#47a371e10f)"><g clip-path="url(#b2ef628071)"><g clip-path="url(#7846987715)"><path fill="#002480" d="M 624.453125 87.972656 L 965.316406 -171.199219 L 1190.015625 124.328125 L 849.152344 383.5 Z M 624.453125 87.972656 " fill-opacity="1" fill-rule="nonzero"/></g></g></g></svg>