<svg xmlns="http://www.w3.org/2000/svg" xmlns:xlink="http://www.w3.org/1999/xlink" width="1200" zoomAndPan="magnify" viewBox="0 0 900 449.999984" height="600" preserveAspectRatio="xMidYMid meet" version="1.0"><defs><clipPath id="1c23563321"><path d="M 381 0 L 878 0 L 878 252 L 381 252 Z M 381 0 " clip-rule="nonzero"/></clipPath><clipPath id="b657329a26"><path d="M 381.863281 -200.65625 L 884.570312 -7.394531 L 745.308594 354.851562 L 242.601562 161.589844 Z M 381.863281 -200.65625 " clip-rule="nonzero"/></clipPath><clipPath id="5815a4b086"><path d="M 494.003906 251.886719 L 880.410156 -8.992188 L 381.863281 -200.65625 L 494.003906 251.886719 " clip-rule="nonzero"/></clipPath><clipPath id="78928108bd"><path d="M 0 24 L 294 24 L 294 450 L 0 450 Z M 0 24 " clip-rule="nonzero"/></clipPath><clipPath id="099e7281e2"><path d="M -52.941406 24.789062 L 295.339844 218.800781 L 102.355469 565.238281 L -245.925781 371.226562 Z M -52.941406 24.789062 " clip-rule="nonzero"/></clipPath><clipPath id="8624f1b141"><path d="M -71.960938 467.265625 L 294.25 218.195312 L -52.941406 24.789062 L -71.960938 467.265625 " clip-rule="nonzero"/></clipPath><clipPath id="98b5d255a4"><path d="M 624 0 L 900 0 L 900 255 L 624 255 Z M 624 0 " clip-rule="nonzero"/></clipPath><clipPath id="7a1d46cddf"><path d="M 624.453125 87.972656 L 965.316406 -171.199219 L 1191.292969 126.007812 L 850.429688 385.179688 Z M 624.453125 87.972656 " clip-rule="nonzero"/></clipPath><clipPath id="6476da2f35"><path d="M 1019.832031 254.511719 L 965.050781 -171 L 624.453125 87.972656 L 1019.832031 254.511719 " clip-rule="nonzero"/></clipPath></defs><rect x="-90" width="1080" fill="#ffffff" y="-44.999998" height="539.99998" fill-opacity="1"/><rect x="-90" width="1080" fill="#ffffff" y="-44.999998" height="539.99998" fill-opacity="1"/><rect x="-90" width="1080" fill="#ffffff" y="-44.999998" height="539.99998" fill-opacity="1"/><g clip-path="url(#1c23563321)"><g clip-path="url(#b657329a26)"><g clip-path="url(#5815a4b086)"><path fill="#002480" d="M 381.863281 -200.65625 L 877.175781 -10.238281 L 740.757812 344.613281 L 245.445312 154.195312 Z M 381.863281 -200.65625 " fill-opacity="1" fill-rule="nonzero"/></g></g></g><path fill="#002480" d="M -88.429688 -55.359375 L 493.757812 -55.359375 L 493.757812 250.5 L -88.429688 250.5 Z M -88.429688 -55.359375 " fill-opacity="1" fill-rule="nonzero"/><g clip-path="url(#78928108bd)"><g clip-path="url(#099e7281e2)"><g clip-path="url(#8624f1b141)"><path fill="#002480" d="M -52.941406 24.789062 L 293.496094 217.773438 L 100.511719 564.210938 L -245.925781 371.226562 Z M -52.941406 24.789062 " fill-opacity="1" fill-rule="nonzero"/></g></g></g><g clip-path="url(#98b5d255a4)"><g clip-path="url(#7a1d46cddf)"><g clip-path="url(#6476da2f35)"><path fill="#002480" d="M 624.453125 87.972656 L 965.316406 -171.199219 L 1190.015625 124.328125 L 849.152344 383.5 Z M 624.453125 87.972656 " fill-opacity="1" fill-rule="nonzero"/></g></g></g></svg>