<svg xmlns="http://www.w3.org/2000/svg" xmlns:xlink="http://www.w3.org/1999/xlink" width="1200" zoomAndPan="magnify" viewBox="0 0 900 449.999984" height="600" preserveAspectRatio="xMidYMid meet" version="1.0"><defs><clipPath id="e742e5ee8a"><path d="M 381 0 L 878 0 L 878 252 L 381 252 Z M 381 0 " clip-rule="nonzero"/></clipPath><clipPath id="54af5d5fbd"><path d="M 381.863281 -200.65625 L 884.570312 -7.394531 L 745.308594 354.851562 L 242.601562 161.589844 Z M 381.863281 -200.65625 " clip-rule="nonzero"/></clipPath><clipPath id="e731263f68"><path d="M 494.003906 251.886719 L 880.410156 -8.992188 L 381.863281 -200.65625 L 494.003906 251.886719 " clip-rule="nonzero"/></clipPath><clipPath id="1fe06b9203"><path d="M 0 57 L 233 57 L 233 450 L 0 450 Z M 0 57 " clip-rule="nonzero"/></clipPath><clipPath id="750b3ed215"><path d="M -114.105469 57.535156 L 234.171875 251.546875 L 52.480469 577.710938 L -295.800781 383.699219 Z M -114.105469 57.535156 " clip-rule="nonzero"/></clipPath><clipPath id="f4a03633f1"><path d="M -121.480469 479.105469 L 233.085938 250.941406 L -114.105469 57.535156 L -121.480469 479.105469 " clip-rule="nonzero"/></clipPath><clipPath id="7477ca43ae"><path d="M 624 0 L 900 0 L 900 255 L 624 255 Z M 624 0 " clip-rule="nonzero"/></clipPath><clipPath id="7ad7638f16"><path d="M 624.453125 87.972656 L 965.316406 -171.199219 L 1191.292969 126.007812 L 850.429688 385.179688 Z M 624.453125 87.972656 " clip-rule="nonzero"/></clipPath><clipPath id="371f758100"><path d="M 1019.832031 254.511719 L 965.050781 -171 L 624.453125 87.972656 L 1019.832031 254.511719 " clip-rule="nonzero"/></clipPath></defs><rect x="-90" width="1080" fill="#ffffff" y="-44.999998" height="539.99998" fill-opacity="1"/><rect x="-90" width="1080" fill="#ffffff" y="-44.999998" height="539.99998" fill-opacity="1"/><rect x="-90" width="1080" fill="#ffffff" y="-44.999998" height="539.99998" fill-opacity="1"/><g clip-path="url(#e742e5ee8a)"><g clip-path="url(#54af5d5fbd)"><g clip-path="url(#e731263f68)"><path fill="#002480" d="M 381.863281 -200.65625 L 877.175781 -10.238281 L 740.757812 344.613281 L 245.445312 154.195312 Z M 381.863281 -200.65625 " fill-opacity="1" fill-rule="nonzero"/></g></g></g><path fill="#002480" d="M -80.929688 -55.359375 L 492.820312 -55.359375 L 492.820312 250.5 L -80.929688 250.5 Z M -80.929688 -55.359375 " fill-opacity="1" fill-rule="nonzero"/><g clip-path="url(#1fe06b9203)"><g clip-path="url(#750b3ed215)"><g clip-path="url(#f4a03633f1)"><path fill="#002480" d="M -114.105469 57.535156 L 232.332031 250.519531 L 51.664062 574.84375 L -294.773438 381.859375 Z M -114.105469 57.535156 " fill-opacity="1" fill-rule="nonzero"/></g></g></g><g clip-path="url(#7477ca43ae)"><g clip-path="url(#7ad7638f16)"><g clip-path="url(#371f758100)"><path fill="#002480" d="M 624.453125 87.972656 L 965.316406 -171.199219 L 1190.015625 124.328125 L 849.152344 383.5 Z M 624.453125 87.972656 " fill-opacity="1" fill-rule="nonzero"/></g></g></g></svg>