<svg xmlns="http://www.w3.org/2000/svg" xmlns:xlink="http://www.w3.org/1999/xlink" width="1200" zoomAndPan="magnify" viewBox="0 0 900 449.999984" height="600" preserveAspectRatio="xMidYMid meet" version="1.0"><defs><clipPath id="c00d2402a0"><path d="M 446 0 L 900 0 L 900 305 L 446 305 Z M 446 0 " clip-rule="nonzero"/></clipPath><clipPath id="6eb4f85f26"><path d="M 446.273438 -200.65625 L 919.410156 -18.761719 L 760.253906 395.230469 L 287.117188 213.335938 Z M 446.273438 -200.65625 " clip-rule="nonzero"/></clipPath><clipPath id="2863f9ceae"><path d="M 523.683594 304.285156 L 919.410156 -18.761719 L 446.273438 -200.65625 L 523.683594 304.285156 " clip-rule="nonzero"/></clipPath><clipPath id="ff14984076"><path d="M 0.75 0 L 524 0 L 524 303.601562 L 0.75 303.601562 Z M 0.75 0 " clip-rule="nonzero"/></clipPath><clipPath id="cde32e0af9"><path d="M 0 97 L 309 97 L 309 450 L 0 450 Z M 0 97 " clip-rule="nonzero"/></clipPath><clipPath id="4ebe405d83"><path d="M -38.109375 97.289062 L 310.167969 291.300781 L 128.476562 617.46875 L -219.804688 423.457031 Z M -38.109375 97.289062 " clip-rule="nonzero"/></clipPath><clipPath id="d5bb3e84e3"><path d="M -45.488281 518.859375 L 309.078125 290.695312 L -38.109375 97.289062 L -45.488281 518.859375 " clip-rule="nonzero"/></clipPath></defs><rect x="-90" width="1080" fill="#ffffff" y="-44.999998" height="539.99998" fill-opacity="1"/><rect x="-90" width="1080" fill="#ffffff" y="-44.999998" height="539.99998" fill-opacity="1"/><rect x="-90" width="1080" fill="#ffffff" y="-44.999998" height="539.99998" fill-opacity="1"/><g clip-path="url(#c00d2402a0)"><g clip-path="url(#6eb4f85f26)"><g clip-path="url(#2863f9ceae)"><path fill="#002480" d="M 446.273438 -200.65625 L 919.410156 -18.761719 L 760.253906 395.230469 L 287.117188 213.335938 Z M 446.273438 -200.65625 " fill-opacity="1" fill-rule="nonzero"/></g></g></g><g clip-path="url(#ff14984076)"><path fill="#002480" d="M 0.75 0 L 523.875 0 L 523.875 303.75 L 0.75 303.75 Z M 0.75 0 " fill-opacity="1" fill-rule="nonzero"/></g><g clip-path="url(#cde32e0af9)"><g clip-path="url(#4ebe405d83)"><g clip-path="url(#d5bb3e84e3)"><path fill="#002480" d="M -38.109375 97.289062 L 308.324219 290.273438 L 127.660156 614.597656 L -218.777344 421.613281 Z M -38.109375 97.289062 " fill-opacity="1" fill-rule="nonzero"/></g></g></g></svg>