<svg xmlns="http://www.w3.org/2000/svg" xmlns:xlink="http://www.w3.org/1999/xlink" width="1000" zoomAndPan="magnify" viewBox="0 0 750 225" height="300" preserveAspectRatio="xMidYMid meet" version="1.0"><defs><g/><clipPath id="6b44abf4ad"><path d="M 105 52 L 224.25 52 L 224.25 142 L 105 142 Z M 105 52 " clip-rule="nonzero"/></clipPath></defs><path fill="#ffffff" d="M 0 0 L 749.882812 0 L 749.882812 224.648438 L 0 224.648438 Z M 0 0 " fill-opacity="1" fill-rule="nonzero"/><path stroke-linecap="butt" transform="matrix(0.75, 0, 0, 0.75, 0.00000536442, 0.00001)" fill="none" stroke-linejoin="miter" d="M -0.00000715256 -0.0000133333 L 1000.000099 -0.0000133333 L 1000.000099 300.000018 L -0.00000715256 300.000018 L -0.00000715256 -0.0000133333 " stroke="#ef5b00" stroke-width="8" stroke-opacity="1" stroke-miterlimit="4"/><path fill="#ef5b00" d="M 187.40625 162.078125 C 169.632812 156.523438 151.050781 154.28125 133.011719 149.621094 C 116.085938 145.097656 97.640625 139.539062 86.808594 124.753906 C 73.0625 104.589844 77.628906 74.660156 95.851562 58.753906 C 110.847656 44.773438 132.292969 40.609375 152.214844 41.546875 C 161.257812 42.355469 170.347656 43.96875 178.71875 47.507812 C 183.6875 49.523438 188.703125 52.210938 194.074219 52.75 C 195.105469 52.839844 196.136719 52.882812 197.210938 52.792969 L 197.253906 52.792969 C 197.65625 52.75 198.058594 52.707031 198.460938 52.660156 C 199.3125 52.617188 200.164062 52.480469 201.015625 52.300781 L 217.625 50.195312 C 216.550781 47.195312 215.339844 44.371094 213.953125 41.726562 C 213.328125 40.519531 212.65625 39.308594 211.984375 38.1875 C 211.984375 38.144531 211.9375 38.144531 211.9375 38.097656 C 207.730469 31.0625 202.535156 25.375 196.804688 20.804688 C 187.898438 13.050781 177.375 7.269531 165.960938 4.046875 C 164.347656 3.640625 162.691406 3.285156 161.035156 2.96875 C 148.949219 0.0117188 136.5 1.175781 124.191406 0.953125 C 82.957031 0.863281 41.679688 1.265625 0.449219 0.773438 C 0.269531 44.59375 0.359375 88.460938 0.402344 132.28125 C 0.492188 140.347656 0 148.457031 1.207031 156.476562 C 4.65625 186.003906 26.816406 211.859375 54.886719 221 C 60.304688 222.882812 67.019531 224.988281 72.125 221.179688 C 75.570312 218.9375 77.539062 214.949219 77.316406 210.875 C 77.40625 195.144531 77.183594 179.417969 77.316406 163.691406 C 80.675781 163.648438 84.078125 163.558594 87.433594 163.511719 C 90.523438 181.839844 96.835938 201.867188 113.492188 212.261719 C 127.144531 220.417969 143.484375 221.761719 159.019531 221.804688 C 165.46875 221.804688 171.960938 221.132812 178.273438 219.835938 C 180.332031 219.253906 182.390625 218.625 184.449219 217.953125 C 190.628906 215.847656 196.222656 212.21875 200.65625 207.421875 C 208.492188 198.640625 210.058594 184.796875 203.878906 174.714844 C 200.253906 168.53125 193.761719 164.992188 187.40625 162.078125 Z M 187.40625 162.078125 " fill-opacity="1" fill-rule="nonzero"/><g clip-path="url(#6b44abf4ad)"><path fill="#ef5b00" d="M 224.207031 107.101562 C 220.578125 107.011719 216.90625 106.964844 213.28125 106.964844 C 211.3125 102.082031 209.339844 97.199219 207.015625 92.492188 C 203.835938 86.265625 200.03125 80.304688 195.464844 75.019531 C 192.507812 71.703125 189.328125 68.613281 185.882812 65.832031 C 171.734375 54.8125 152.84375 49.972656 135.203125 53.46875 C 125.667969 55.167969 116.625 60.1875 110.714844 67.941406 C 104.042969 76.722656 103.910156 90.296875 111.609375 98.496094 C 121.460938 108.9375 136.457031 111.445312 149.796875 114.582031 C 163.050781 117.40625 176.480469 119.378906 189.417969 123.320312 L 197.03125 125.472656 C 197.074219 125.472656 197.121094 125.472656 197.164062 125.472656 C 197.386719 125.5625 197.613281 125.605469 197.835938 125.695312 C 198.597656 125.917969 199.3125 126.1875 200.03125 126.457031 C 202.492188 127.398438 204.863281 128.652344 207.238281 129.863281 C 213.503906 132.730469 218.789062 137.167969 223.980469 141.601562 C 224.25 130.085938 223.9375 118.570312 224.207031 107.101562 Z M 224.207031 107.101562 " fill-opacity="1" fill-rule="nonzero"/></g><g fill="#ef5b00" fill-opacity="1"><g transform="translate(236.840145, 104.850001)"><g><path d="M 16.140625 0.515625 C 13.617188 0.515625 11.375 0.207031 9.40625 -0.40625 C 7.4375 -1.03125 5.796875 -1.847656 4.484375 -2.859375 C 3.171875 -3.878906 2.164062 -4.992188 1.46875 -6.203125 L 5.421875 -11.03125 L 6.046875 -11.03125 C 7.140625 -9.40625 8.53125 -8.109375 10.21875 -7.140625 C 11.90625 -6.179688 13.878906 -5.703125 16.140625 -5.703125 C 18.066406 -5.703125 19.519531 -6.109375 20.5 -6.921875 C 21.476562 -7.734375 21.96875 -8.851562 21.96875 -10.28125 C 21.96875 -11.144531 21.804688 -11.867188 21.484375 -12.453125 C 21.171875 -13.035156 20.648438 -13.53125 19.921875 -13.9375 C 19.191406 -14.351562 18.203125 -14.710938 16.953125 -15.015625 L 12.28125 -16.09375 C 9.007812 -16.832031 6.570312 -18.066406 4.96875 -19.796875 C 3.363281 -21.535156 2.5625 -23.796875 2.5625 -26.578125 C 2.5625 -28.628906 3.078125 -30.4375 4.109375 -32 C 5.140625 -33.5625 6.640625 -34.773438 8.609375 -35.640625 C 10.578125 -36.503906 12.925781 -36.9375 15.65625 -36.9375 C 18.46875 -36.9375 20.875 -36.566406 22.875 -35.828125 C 24.875 -35.085938 26.5625 -33.953125 27.9375 -32.421875 L 24.375 -27.546875 L 23.75 -27.546875 C 22.726562 -28.617188 21.550781 -29.425781 20.21875 -29.96875 C 18.894531 -30.507812 17.375 -30.78125 15.65625 -30.78125 C 13.6875 -30.78125 12.1875 -30.429688 11.15625 -29.734375 C 10.125 -29.035156 9.609375 -28.070312 9.609375 -26.84375 C 9.609375 -25.695312 9.96875 -24.78125 10.6875 -24.09375 C 11.414062 -23.414062 12.664062 -22.890625 14.4375 -22.515625 L 19.21875 -21.515625 C 22.757812 -20.765625 25.328125 -19.5 26.921875 -17.71875 C 28.515625 -15.9375 29.3125 -13.609375 29.3125 -10.734375 C 29.3125 -8.460938 28.820312 -6.484375 27.84375 -4.796875 C 26.863281 -3.109375 25.382812 -1.800781 23.40625 -0.875 C 21.425781 0.0507812 19.003906 0.515625 16.140625 0.515625 Z M 16.140625 0.515625 "/></g></g><g transform="translate(268.117488, 104.850001)"><g><path d="M 4.734375 0 L 4.734375 -36.40625 L 11.921875 -36.40625 L 11.921875 -21.546875 L 12.71875 -21.546875 L 24.875 -36.40625 L 32.25 -36.40625 L 32.25 -35.78125 L 18.84375 -19.21875 L 33.640625 -0.625 L 33.640625 0 L 25.5 0 L 12.71875 -15.71875 L 11.921875 -15.71875 L 11.921875 0 Z M 4.734375 0 "/></g></g><g transform="translate(301.760553, 104.850001)"><g><path d="M 11.921875 0 L 4.734375 0 L 4.734375 -36.40625 L 11.921875 -36.40625 Z M 11.921875 0 "/></g></g><g transform="translate(318.445123, 104.850001)"><g><path d="M 11.921875 -36.40625 L 11.921875 -6.03125 L 28.296875 -6.03125 L 28.296875 0 L 4.734375 0 L 4.734375 -36.40625 Z M 11.921875 -36.40625 "/></g></g><g transform="translate(347.929496, 104.850001)"><g><path d="M 11.921875 -36.40625 L 11.921875 -6.03125 L 28.296875 -6.03125 L 28.296875 0 L 4.734375 0 L 4.734375 -36.40625 Z M 11.921875 -36.40625 "/></g></g><g transform="translate(377.41387, 104.850001)"><g/></g><g transform="translate(389.441701, 104.850001)"><g><path d="M 34.9375 0 L 27.375 0 L 24.625 -8.390625 L 10.6875 -8.390625 L 7.9375 0 L 0.546875 0 L 13.125 -36.40625 L 22.359375 -36.40625 Z M 17.3125 -28.8125 L 12.625 -14.4375 L 22.640625 -14.4375 L 17.9375 -28.8125 Z M 17.3125 -28.8125 "/></g></g><g transform="translate(424.92754, 104.850001)"><g><path d="M 16.140625 0.515625 C 13.617188 0.515625 11.375 0.207031 9.40625 -0.40625 C 7.4375 -1.03125 5.796875 -1.847656 4.484375 -2.859375 C 3.171875 -3.878906 2.164062 -4.992188 1.46875 -6.203125 L 5.421875 -11.03125 L 6.046875 -11.03125 C 7.140625 -9.40625 8.53125 -8.109375 10.21875 -7.140625 C 11.90625 -6.179688 13.878906 -5.703125 16.140625 -5.703125 C 18.066406 -5.703125 19.519531 -6.109375 20.5 -6.921875 C 21.476562 -7.734375 21.96875 -8.851562 21.96875 -10.28125 C 21.96875 -11.144531 21.804688 -11.867188 21.484375 -12.453125 C 21.171875 -13.035156 20.648438 -13.53125 19.921875 -13.9375 C 19.191406 -14.351562 18.203125 -14.710938 16.953125 -15.015625 L 12.28125 -16.09375 C 9.007812 -16.832031 6.570312 -18.066406 4.96875 -19.796875 C 3.363281 -21.535156 2.5625 -23.796875 2.5625 -26.578125 C 2.5625 -28.628906 3.078125 -30.4375 4.109375 -32 C 5.140625 -33.5625 6.640625 -34.773438 8.609375 -35.640625 C 10.578125 -36.503906 12.925781 -36.9375 15.65625 -36.9375 C 18.46875 -36.9375 20.875 -36.566406 22.875 -35.828125 C 24.875 -35.085938 26.5625 -33.953125 27.9375 -32.421875 L 24.375 -27.546875 L 23.75 -27.546875 C 22.726562 -28.617188 21.550781 -29.425781 20.21875 -29.96875 C 18.894531 -30.507812 17.375 -30.78125 15.65625 -30.78125 C 13.6875 -30.78125 12.1875 -30.429688 11.15625 -29.734375 C 10.125 -29.035156 9.609375 -28.070312 9.609375 -26.84375 C 9.609375 -25.695312 9.96875 -24.78125 10.6875 -24.09375 C 11.414062 -23.414062 12.664062 -22.890625 14.4375 -22.515625 L 19.21875 -21.515625 C 22.757812 -20.765625 25.328125 -19.5 26.921875 -17.71875 C 28.515625 -15.9375 29.3125 -13.609375 29.3125 -10.734375 C 29.3125 -8.460938 28.820312 -6.484375 27.84375 -4.796875 C 26.863281 -3.109375 25.382812 -1.800781 23.40625 -0.875 C 21.425781 0.0507812 19.003906 0.515625 16.140625 0.515625 Z M 16.140625 0.515625 "/></g></g><g transform="translate(456.204882, 104.850001)"><g><path d="M 16.140625 0.515625 C 13.617188 0.515625 11.375 0.207031 9.40625 -0.40625 C 7.4375 -1.03125 5.796875 -1.847656 4.484375 -2.859375 C 3.171875 -3.878906 2.164062 -4.992188 1.46875 -6.203125 L 5.421875 -11.03125 L 6.046875 -11.03125 C 7.140625 -9.40625 8.53125 -8.109375 10.21875 -7.140625 C 11.90625 -6.179688 13.878906 -5.703125 16.140625 -5.703125 C 18.066406 -5.703125 19.519531 -6.109375 20.5 -6.921875 C 21.476562 -7.734375 21.96875 -8.851562 21.96875 -10.28125 C 21.96875 -11.144531 21.804688 -11.867188 21.484375 -12.453125 C 21.171875 -13.035156 20.648438 -13.53125 19.921875 -13.9375 C 19.191406 -14.351562 18.203125 -14.710938 16.953125 -15.015625 L 12.28125 -16.09375 C 9.007812 -16.832031 6.570312 -18.066406 4.96875 -19.796875 C 3.363281 -21.535156 2.5625 -23.796875 2.5625 -26.578125 C 2.5625 -28.628906 3.078125 -30.4375 4.109375 -32 C 5.140625 -33.5625 6.640625 -34.773438 8.609375 -35.640625 C 10.578125 -36.503906 12.925781 -36.9375 15.65625 -36.9375 C 18.46875 -36.9375 20.875 -36.566406 22.875 -35.828125 C 24.875 -35.085938 26.5625 -33.953125 27.9375 -32.421875 L 24.375 -27.546875 L 23.75 -27.546875 C 22.726562 -28.617188 21.550781 -29.425781 20.21875 -29.96875 C 18.894531 -30.507812 17.375 -30.78125 15.65625 -30.78125 C 13.6875 -30.78125 12.1875 -30.429688 11.15625 -29.734375 C 10.125 -29.035156 9.609375 -28.070312 9.609375 -26.84375 C 9.609375 -25.695312 9.96875 -24.78125 10.6875 -24.09375 C 11.414062 -23.414062 12.664062 -22.890625 14.4375 -22.515625 L 19.21875 -21.515625 C 22.757812 -20.765625 25.328125 -19.5 26.921875 -17.71875 C 28.515625 -15.9375 29.3125 -13.609375 29.3125 -10.734375 C 29.3125 -8.460938 28.820312 -6.484375 27.84375 -4.796875 C 26.863281 -3.109375 25.382812 -1.800781 23.40625 -0.875 C 21.425781 0.0507812 19.003906 0.515625 16.140625 0.515625 Z M 16.140625 0.515625 "/></g></g><g transform="translate(487.482225, 104.850001)"><g><path d="M 11.921875 -15.984375 L 11.921875 -6.03125 L 29.3125 -6.03125 L 29.3125 0 L 4.734375 0 L 4.734375 -36.40625 L 28.90625 -36.40625 L 28.90625 -30.375 L 11.921875 -30.375 L 11.921875 -21.859375 L 26.765625 -21.859375 L 26.765625 -15.984375 Z M 11.921875 -15.984375 "/></g></g><g transform="translate(518.784469, 104.850001)"><g><path d="M 16.140625 0.515625 C 13.617188 0.515625 11.375 0.207031 9.40625 -0.40625 C 7.4375 -1.03125 5.796875 -1.847656 4.484375 -2.859375 C 3.171875 -3.878906 2.164062 -4.992188 1.46875 -6.203125 L 5.421875 -11.03125 L 6.046875 -11.03125 C 7.140625 -9.40625 8.53125 -8.109375 10.21875 -7.140625 C 11.90625 -6.179688 13.878906 -5.703125 16.140625 -5.703125 C 18.066406 -5.703125 19.519531 -6.109375 20.5 -6.921875 C 21.476562 -7.734375 21.96875 -8.851562 21.96875 -10.28125 C 21.96875 -11.144531 21.804688 -11.867188 21.484375 -12.453125 C 21.171875 -13.035156 20.648438 -13.53125 19.921875 -13.9375 C 19.191406 -14.351562 18.203125 -14.710938 16.953125 -15.015625 L 12.28125 -16.09375 C 9.007812 -16.832031 6.570312 -18.066406 4.96875 -19.796875 C 3.363281 -21.535156 2.5625 -23.796875 2.5625 -26.578125 C 2.5625 -28.628906 3.078125 -30.4375 4.109375 -32 C 5.140625 -33.5625 6.640625 -34.773438 8.609375 -35.640625 C 10.578125 -36.503906 12.925781 -36.9375 15.65625 -36.9375 C 18.46875 -36.9375 20.875 -36.566406 22.875 -35.828125 C 24.875 -35.085938 26.5625 -33.953125 27.9375 -32.421875 L 24.375 -27.546875 L 23.75 -27.546875 C 22.726562 -28.617188 21.550781 -29.425781 20.21875 -29.96875 C 18.894531 -30.507812 17.375 -30.78125 15.65625 -30.78125 C 13.6875 -30.78125 12.1875 -30.429688 11.15625 -29.734375 C 10.125 -29.035156 9.609375 -28.070312 9.609375 -26.84375 C 9.609375 -25.695312 9.96875 -24.78125 10.6875 -24.09375 C 11.414062 -23.414062 12.664062 -22.890625 14.4375 -22.515625 L 19.21875 -21.515625 C 22.757812 -20.765625 25.328125 -19.5 26.921875 -17.71875 C 28.515625 -15.9375 29.3125 -13.609375 29.3125 -10.734375 C 29.3125 -8.460938 28.820312 -6.484375 27.84375 -4.796875 C 26.863281 -3.109375 25.382812 -1.800781 23.40625 -0.875 C 21.425781 0.0507812 19.003906 0.515625 16.140625 0.515625 Z M 16.140625 0.515625 "/></g></g><g transform="translate(550.061812, 104.850001)"><g><path d="M 16.140625 0.515625 C 13.617188 0.515625 11.375 0.207031 9.40625 -0.40625 C 7.4375 -1.03125 5.796875 -1.847656 4.484375 -2.859375 C 3.171875 -3.878906 2.164062 -4.992188 1.46875 -6.203125 L 5.421875 -11.03125 L 6.046875 -11.03125 C 7.140625 -9.40625 8.53125 -8.109375 10.21875 -7.140625 C 11.90625 -6.179688 13.878906 -5.703125 16.140625 -5.703125 C 18.066406 -5.703125 19.519531 -6.109375 20.5 -6.921875 C 21.476562 -7.734375 21.96875 -8.851562 21.96875 -10.28125 C 21.96875 -11.144531 21.804688 -11.867188 21.484375 -12.453125 C 21.171875 -13.035156 20.648438 -13.53125 19.921875 -13.9375 C 19.191406 -14.351562 18.203125 -14.710938 16.953125 -15.015625 L 12.28125 -16.09375 C 9.007812 -16.832031 6.570312 -18.066406 4.96875 -19.796875 C 3.363281 -21.535156 2.5625 -23.796875 2.5625 -26.578125 C 2.5625 -28.628906 3.078125 -30.4375 4.109375 -32 C 5.140625 -33.5625 6.640625 -34.773438 8.609375 -35.640625 C 10.578125 -36.503906 12.925781 -36.9375 15.65625 -36.9375 C 18.46875 -36.9375 20.875 -36.566406 22.875 -35.828125 C 24.875 -35.085938 26.5625 -33.953125 27.9375 -32.421875 L 24.375 -27.546875 L 23.75 -27.546875 C 22.726562 -28.617188 21.550781 -29.425781 20.21875 -29.96875 C 18.894531 -30.507812 17.375 -30.78125 15.65625 -30.78125 C 13.6875 -30.78125 12.1875 -30.429688 11.15625 -29.734375 C 10.125 -29.035156 9.609375 -28.070312 9.609375 -26.84375 C 9.609375 -25.695312 9.96875 -24.78125 10.6875 -24.09375 C 11.414062 -23.414062 12.664062 -22.890625 14.4375 -22.515625 L 19.21875 -21.515625 C 22.757812 -20.765625 25.328125 -19.5 26.921875 -17.71875 C 28.515625 -15.9375 29.3125 -13.609375 29.3125 -10.734375 C 29.3125 -8.460938 28.820312 -6.484375 27.84375 -4.796875 C 26.863281 -3.109375 25.382812 -1.800781 23.40625 -0.875 C 21.425781 0.0507812 19.003906 0.515625 16.140625 0.515625 Z M 16.140625 0.515625 "/></g></g><g transform="translate(581.339154, 104.850001)"><g><path d="M 11.328125 0 L 4.734375 0 L 4.734375 -36.40625 L 14.140625 -36.40625 L 23.359375 -9.640625 L 23.875 -9.640625 L 33.046875 -36.40625 L 42.234375 -36.40625 L 42.234375 0 L 35.40625 0 L 35.40625 -24.0625 L 34.78125 -24.15625 L 26.375 0 L 20.375 0 L 11.953125 -24.15625 L 11.328125 -24.0625 Z M 11.328125 0 "/></g></g><g transform="translate(628.329875, 104.850001)"><g><path d="M 11.921875 -15.984375 L 11.921875 -6.03125 L 29.3125 -6.03125 L 29.3125 0 L 4.734375 0 L 4.734375 -36.40625 L 28.90625 -36.40625 L 28.90625 -30.375 L 11.921875 -30.375 L 11.921875 -21.859375 L 26.765625 -21.859375 L 26.765625 -15.984375 Z M 11.921875 -15.984375 "/></g></g><g transform="translate(659.63212, 104.850001)"><g><path d="M 11.703125 0 L 4.734375 0 L 4.734375 -36.40625 L 12.96875 -36.40625 L 27.59375 -12.953125 L 28.234375 -13.046875 L 28.234375 -36.40625 L 35.15625 -36.40625 L 35.15625 0 L 27.796875 0 L 12.328125 -25.046875 L 11.703125 -24.953125 Z M 11.703125 0 "/></g></g><g transform="translate(699.550575, 104.850001)"><g><path d="M 29.1875 -36.40625 L 29.1875 -30.359375 L 18.671875 -30.359375 L 18.671875 0 L 11.5 0 L 11.5 -30.359375 L 1 -30.359375 L 1 -36.40625 Z M 29.1875 -36.40625 "/></g></g></g><g fill="#ef5b00" fill-opacity="1"><g transform="translate(315.594479, 165.900003)"><g><path d="M 34.9375 0 L 27.375 0 L 24.625 -8.390625 L 10.6875 -8.390625 L 7.9375 0 L 0.546875 0 L 13.125 -36.40625 L 22.359375 -36.40625 Z M 17.3125 -28.8125 L 12.625 -14.4375 L 22.640625 -14.4375 L 17.9375 -28.8125 Z M 17.3125 -28.8125 "/></g></g><g transform="translate(351.080317, 165.900003)"><g><path d="M 19.296875 0.515625 C 14.285156 0.515625 10.566406 -0.671875 8.140625 -3.046875 C 5.710938 -5.429688 4.5 -8.960938 4.5 -13.640625 L 4.5 -36.40625 L 11.5625 -36.40625 L 11.5625 -13.703125 C 11.5625 -11.046875 12.195312 -9.050781 13.46875 -7.71875 C 14.75 -6.394531 16.691406 -5.734375 19.296875 -5.734375 C 24.460938 -5.734375 27.046875 -8.390625 27.046875 -13.703125 L 27.046875 -36.40625 L 34.09375 -36.40625 L 34.09375 -13.640625 C 34.09375 -8.960938 32.878906 -5.429688 30.453125 -3.046875 C 28.023438 -0.671875 24.304688 0.515625 19.296875 0.515625 Z M 19.296875 0.515625 "/></g></g><g transform="translate(389.678948, 165.900003)"><g><path d="M 16.140625 0.515625 C 13.617188 0.515625 11.375 0.207031 9.40625 -0.40625 C 7.4375 -1.03125 5.796875 -1.847656 4.484375 -2.859375 C 3.171875 -3.878906 2.164062 -4.992188 1.46875 -6.203125 L 5.421875 -11.03125 L 6.046875 -11.03125 C 7.140625 -9.40625 8.53125 -8.109375 10.21875 -7.140625 C 11.90625 -6.179688 13.878906 -5.703125 16.140625 -5.703125 C 18.066406 -5.703125 19.519531 -6.109375 20.5 -6.921875 C 21.476562 -7.734375 21.96875 -8.851562 21.96875 -10.28125 C 21.96875 -11.144531 21.804688 -11.867188 21.484375 -12.453125 C 21.171875 -13.035156 20.648438 -13.53125 19.921875 -13.9375 C 19.191406 -14.351562 18.203125 -14.710938 16.953125 -15.015625 L 12.28125 -16.09375 C 9.007812 -16.832031 6.570312 -18.066406 4.96875 -19.796875 C 3.363281 -21.535156 2.5625 -23.796875 2.5625 -26.578125 C 2.5625 -28.628906 3.078125 -30.4375 4.109375 -32 C 5.140625 -33.5625 6.640625 -34.773438 8.609375 -35.640625 C 10.578125 -36.503906 12.925781 -36.9375 15.65625 -36.9375 C 18.46875 -36.9375 20.875 -36.566406 22.875 -35.828125 C 24.875 -35.085938 26.5625 -33.953125 27.9375 -32.421875 L 24.375 -27.546875 L 23.75 -27.546875 C 22.726562 -28.617188 21.550781 -29.425781 20.21875 -29.96875 C 18.894531 -30.507812 17.375 -30.78125 15.65625 -30.78125 C 13.6875 -30.78125 12.1875 -30.429688 11.15625 -29.734375 C 10.125 -29.035156 9.609375 -28.070312 9.609375 -26.84375 C 9.609375 -25.695312 9.96875 -24.78125 10.6875 -24.09375 C 11.414062 -23.414062 12.664062 -22.890625 14.4375 -22.515625 L 19.21875 -21.515625 C 22.757812 -20.765625 25.328125 -19.5 26.921875 -17.71875 C 28.515625 -15.9375 29.3125 -13.609375 29.3125 -10.734375 C 29.3125 -8.460938 28.820312 -6.484375 27.84375 -4.796875 C 26.863281 -3.109375 25.382812 -1.800781 23.40625 -0.875 C 21.425781 0.0507812 19.003906 0.515625 16.140625 0.515625 Z M 16.140625 0.515625 "/></g></g><g transform="translate(420.956291, 165.900003)"><g><path d="M 29.1875 -36.40625 L 29.1875 -30.359375 L 18.671875 -30.359375 L 18.671875 0 L 11.5 0 L 11.5 -30.359375 L 1 -30.359375 L 1 -36.40625 Z M 29.1875 -36.40625 "/></g></g><g transform="translate(451.137931, 165.900003)"><g><path d="M 4.734375 0 L 4.734375 -36.40625 L 19.34375 -36.40625 C 23.113281 -36.40625 25.957031 -35.535156 27.875 -33.796875 C 29.789062 -32.066406 30.75 -29.675781 30.75 -26.625 C 30.75 -24.414062 30.1875 -22.601562 29.0625 -21.1875 C 27.945312 -19.78125 26.28125 -18.703125 24.0625 -17.953125 L 24.0625 -17.4375 C 25.207031 -16.9375 26.128906 -16.195312 26.828125 -15.21875 C 27.535156 -14.238281 28.207031 -12.785156 28.84375 -10.859375 L 32.46875 0 L 25.078125 0 L 21.515625 -10.875 C 21.148438 -11.976562 20.738281 -12.832031 20.28125 -13.4375 C 19.820312 -14.039062 19.238281 -14.476562 18.53125 -14.75 C 17.832031 -15.03125 16.914062 -15.171875 15.78125 -15.171875 L 11.921875 -15.171875 L 11.921875 0 Z M 18.484375 -20.875 C 21.960938 -20.875 23.703125 -22.5 23.703125 -25.75 C 23.703125 -29.050781 21.960938 -30.703125 18.484375 -30.703125 L 11.921875 -30.703125 L 11.921875 -20.875 Z M 18.484375 -20.875 "/></g></g><g transform="translate(485.179433, 165.900003)"><g><path d="M 34.9375 0 L 27.375 0 L 24.625 -8.390625 L 10.6875 -8.390625 L 7.9375 0 L 0.546875 0 L 13.125 -36.40625 L 22.359375 -36.40625 Z M 17.3125 -28.8125 L 12.625 -14.4375 L 22.640625 -14.4375 L 17.9375 -28.8125 Z M 17.3125 -28.8125 "/></g></g><g transform="translate(520.665271, 165.900003)"><g><path d="M 11.921875 -36.40625 L 11.921875 -6.03125 L 28.296875 -6.03125 L 28.296875 0 L 4.734375 0 L 4.734375 -36.40625 Z M 11.921875 -36.40625 "/></g></g><g transform="translate(550.149645, 165.900003)"><g><path d="M 11.921875 0 L 4.734375 0 L 4.734375 -36.40625 L 11.921875 -36.40625 Z M 11.921875 0 "/></g></g><g transform="translate(566.834215, 165.900003)"><g><path d="M 34.9375 0 L 27.375 0 L 24.625 -8.390625 L 10.6875 -8.390625 L 7.9375 0 L 0.546875 0 L 13.125 -36.40625 L 22.359375 -36.40625 Z M 17.3125 -28.8125 L 12.625 -14.4375 L 22.640625 -14.4375 L 17.9375 -28.8125 Z M 17.3125 -28.8125 "/></g></g></g></svg>