<svg xmlns="http://www.w3.org/2000/svg" xmlns:xlink="http://www.w3.org/1999/xlink" width="1000" zoomAndPan="magnify" viewBox="0 0 750 225" height="300" preserveAspectRatio="xMidYMid meet" version="1.0"><defs><g/><clipPath id="ff66905c9e"><path d="M 102 53 L 224.320312 53 L 224.320312 146 L 102 146 Z M 102 53 " clip-rule="nonzero"/></clipPath></defs><path fill="#ef5b00" d="M 186.488281 166.402344 C 168.238281 160.699219 149.164062 158.398438 130.640625 153.613281 C 113.261719 148.964844 94.324219 143.261719 83.199219 128.082031 C 69.089844 107.378906 73.777344 76.652344 92.484375 60.320312 C 107.886719 45.96875 129.902344 41.6875 150.359375 42.65625 C 159.644531 43.484375 168.976562 45.140625 177.570312 48.773438 C 182.675781 50.84375 187.820312 53.605469 193.339844 54.15625 C 194.394531 54.246094 195.453125 54.292969 196.554688 54.203125 L 196.601562 54.203125 C 197.015625 54.15625 197.429688 54.109375 197.84375 54.0625 C 198.714844 54.019531 199.589844 53.878906 200.464844 53.695312 L 217.515625 51.535156 C 216.414062 48.453125 215.171875 45.554688 213.746094 42.839844 C 213.105469 41.597656 212.414062 40.355469 211.726562 39.207031 C 211.726562 39.160156 211.679688 39.160156 211.679688 39.113281 C 207.359375 31.890625 202.027344 26.046875 196.140625 21.355469 C 186.996094 13.398438 176.191406 7.464844 164.472656 4.152344 C 162.816406 3.738281 161.117188 3.371094 159.414062 3.046875 C 147.003906 0.0117188 134.222656 1.207031 121.582031 0.976562 C 79.246094 0.886719 36.867188 1.300781 -5.46875 0.792969 C -5.652344 45.785156 -5.5625 90.820312 -5.515625 135.808594 C -5.425781 144.089844 -5.929688 152.417969 -4.6875 160.652344 C -1.148438 190.96875 21.605469 217.511719 50.425781 226.894531 C 55.988281 228.828125 62.882812 230.988281 68.125 227.078125 C 71.664062 224.777344 73.6875 220.683594 73.457031 216.5 C 73.546875 200.351562 73.316406 184.203125 73.457031 168.058594 C 76.902344 168.011719 80.398438 167.917969 83.84375 167.875 C 87.015625 186.6875 93.496094 207.25 110.597656 217.925781 C 124.617188 226.296875 141.394531 227.675781 157.347656 227.722656 C 163.964844 227.722656 170.628906 227.03125 177.113281 225.699219 C 179.226562 225.101562 181.339844 224.457031 183.457031 223.765625 C 189.800781 221.605469 195.542969 217.878906 200.09375 212.957031 C 208.140625 203.941406 209.75 189.726562 203.40625 179.375 C 199.683594 173.027344 193.015625 169.390625 186.488281 166.402344 Z M 186.488281 166.402344 " fill-opacity="1" fill-rule="nonzero"/><g clip-path="url(#ff66905c9e)"><path fill="#ef5b00" d="M 224.273438 109.957031 C 220.550781 109.863281 216.78125 109.820312 213.058594 109.820312 C 211.035156 104.804688 209.011719 99.789062 206.621094 94.960938 C 203.359375 88.566406 199.453125 82.449219 194.761719 77.019531 C 191.730469 73.613281 188.464844 70.441406 184.925781 67.589844 C 170.402344 56.273438 151.003906 51.304688 132.890625 54.890625 C 123.101562 56.640625 113.816406 61.792969 107.746094 69.75 C 100.898438 78.765625 100.761719 92.707031 108.667969 101.125 C 118.78125 111.84375 134.179688 114.417969 147.875 117.640625 C 161.484375 120.539062 175.273438 122.5625 188.558594 126.609375 L 196.371094 128.816406 C 196.417969 128.816406 196.464844 128.816406 196.511719 128.816406 C 196.738281 128.910156 196.96875 128.957031 197.199219 129.046875 C 197.980469 129.277344 198.714844 129.554688 199.453125 129.828125 C 201.980469 130.796875 204.417969 132.082031 206.851562 133.324219 C 213.289062 136.269531 218.710938 140.824219 224.042969 145.378906 C 224.320312 133.554688 224 121.734375 224.273438 109.957031 Z M 224.273438 109.957031 " fill-opacity="1" fill-rule="nonzero"/></g><g fill="#ef5b00" fill-opacity="1"><g transform="translate(242.324462, 101.750007)"><g><path d="M 15.828125 0.515625 C 13.347656 0.515625 11.144531 0.210938 9.21875 -0.390625 C 7.289062 -1.003906 5.679688 -1.804688 4.390625 -2.796875 C 3.109375 -3.796875 2.125 -4.890625 1.4375 -6.078125 L 5.328125 -10.8125 L 5.9375 -10.8125 C 7.007812 -9.21875 8.367188 -7.945312 10.015625 -7 C 11.671875 -6.0625 13.609375 -5.59375 15.828125 -5.59375 C 17.710938 -5.59375 19.132812 -5.988281 20.09375 -6.78125 C 21.050781 -7.582031 21.53125 -8.679688 21.53125 -10.078125 C 21.53125 -10.929688 21.375 -11.640625 21.0625 -12.203125 C 20.757812 -12.773438 20.25 -13.265625 19.53125 -13.671875 C 18.8125 -14.078125 17.84375 -14.425781 16.625 -14.71875 L 12.03125 -15.765625 C 8.832031 -16.503906 6.445312 -17.722656 4.875 -19.421875 C 3.300781 -21.117188 2.515625 -23.328125 2.515625 -26.046875 C 2.515625 -28.066406 3.019531 -29.84375 4.03125 -31.375 C 5.039062 -32.90625 6.507812 -34.09375 8.4375 -34.9375 C 10.363281 -35.78125 12.671875 -36.203125 15.359375 -36.203125 C 18.109375 -36.203125 20.460938 -35.835938 22.421875 -35.109375 C 24.378906 -34.390625 26.035156 -33.28125 27.390625 -31.78125 L 23.90625 -27 L 23.296875 -27 C 22.285156 -28.0625 21.128906 -28.851562 19.828125 -29.375 C 18.523438 -29.90625 17.035156 -30.171875 15.359375 -30.171875 C 13.421875 -30.171875 11.945312 -29.828125 10.9375 -29.140625 C 9.925781 -28.460938 9.421875 -27.519531 9.421875 -26.3125 C 9.421875 -25.195312 9.773438 -24.300781 10.484375 -23.625 C 11.191406 -22.957031 12.414062 -22.441406 14.15625 -22.078125 L 18.84375 -21.09375 C 22.3125 -20.363281 24.828125 -19.125 26.390625 -17.375 C 27.953125 -15.625 28.734375 -13.335938 28.734375 -10.515625 C 28.734375 -8.285156 28.253906 -6.34375 27.296875 -4.6875 C 26.335938 -3.039062 24.890625 -1.757812 22.953125 -0.84375 C 21.015625 0.0625 18.640625 0.515625 15.828125 0.515625 Z M 15.828125 0.515625 "/></g></g></g><g fill="#ef5b00" fill-opacity="1"><g transform="translate(272.983732, 101.750007)"><g><path d="M 4.640625 0 L 4.640625 -35.6875 L 11.6875 -35.6875 L 11.6875 -21.125 L 12.46875 -21.125 L 24.390625 -35.6875 L 31.609375 -35.6875 L 31.609375 -35.078125 L 18.484375 -18.84375 L 32.984375 -0.609375 L 32.984375 0 L 25 0 L 12.46875 -15.40625 L 11.6875 -15.40625 L 11.6875 0 Z M 4.640625 0 "/></g></g></g><g fill="#ef5b00" fill-opacity="1"><g transform="translate(305.961975, 101.750007)"><g><path d="M 11.6875 0 L 4.640625 0 L 4.640625 -35.6875 L 11.6875 -35.6875 Z M 11.6875 0 "/></g></g></g><g fill="#ef5b00" fill-opacity="1"><g transform="translate(322.31684, 101.750007)"><g><path d="M 11.6875 -35.6875 L 11.6875 -5.90625 L 27.734375 -5.90625 L 27.734375 0 L 4.640625 0 L 4.640625 -35.6875 Z M 11.6875 -35.6875 "/></g></g></g><g fill="#ef5b00" fill-opacity="1"><g transform="translate(351.218573, 101.750007)"><g><path d="M 11.6875 -35.6875 L 11.6875 -5.90625 L 27.734375 -5.90625 L 27.734375 0 L 4.640625 0 L 4.640625 -35.6875 Z M 11.6875 -35.6875 "/></g></g></g><g fill="#ef5b00" fill-opacity="1"><g transform="translate(380.120305, 101.750007)"><g/></g></g><g fill="#ef5b00" fill-opacity="1"><g transform="translate(391.910455, 101.750007)"><g><path d="M 34.25 0 L 26.828125 0 L 24.140625 -8.234375 L 10.46875 -8.234375 L 7.78125 0 L 0.53125 0 L 12.859375 -35.6875 L 21.921875 -35.6875 Z M 16.96875 -28.25 L 12.375 -14.15625 L 22.1875 -14.15625 L 17.578125 -28.25 Z M 16.96875 -28.25 "/></g></g></g><g fill="#ef5b00" fill-opacity="1"><g transform="translate(426.695056, 101.750007)"><g><path d="M 15.828125 0.515625 C 13.347656 0.515625 11.144531 0.210938 9.21875 -0.390625 C 7.289062 -1.003906 5.679688 -1.804688 4.390625 -2.796875 C 3.109375 -3.796875 2.125 -4.890625 1.4375 -6.078125 L 5.328125 -10.8125 L 5.9375 -10.8125 C 7.007812 -9.21875 8.367188 -7.945312 10.015625 -7 C 11.671875 -6.0625 13.609375 -5.59375 15.828125 -5.59375 C 17.710938 -5.59375 19.132812 -5.988281 20.09375 -6.78125 C 21.050781 -7.582031 21.53125 -8.679688 21.53125 -10.078125 C 21.53125 -10.929688 21.375 -11.640625 21.0625 -12.203125 C 20.757812 -12.773438 20.25 -13.265625 19.53125 -13.671875 C 18.8125 -14.078125 17.84375 -14.425781 16.625 -14.71875 L 12.03125 -15.765625 C 8.832031 -16.503906 6.445312 -17.722656 4.875 -19.421875 C 3.300781 -21.117188 2.515625 -23.328125 2.515625 -26.046875 C 2.515625 -28.066406 3.019531 -29.84375 4.03125 -31.375 C 5.039062 -32.90625 6.507812 -34.09375 8.4375 -34.9375 C 10.363281 -35.78125 12.671875 -36.203125 15.359375 -36.203125 C 18.109375 -36.203125 20.460938 -35.835938 22.421875 -35.109375 C 24.378906 -34.390625 26.035156 -33.28125 27.390625 -31.78125 L 23.90625 -27 L 23.296875 -27 C 22.285156 -28.0625 21.128906 -28.851562 19.828125 -29.375 C 18.523438 -29.90625 17.035156 -30.171875 15.359375 -30.171875 C 13.421875 -30.171875 11.945312 -29.828125 10.9375 -29.140625 C 9.925781 -28.460938 9.421875 -27.519531 9.421875 -26.3125 C 9.421875 -25.195312 9.773438 -24.300781 10.484375 -23.625 C 11.191406 -22.957031 12.414062 -22.441406 14.15625 -22.078125 L 18.84375 -21.09375 C 22.3125 -20.363281 24.828125 -19.125 26.390625 -17.375 C 27.953125 -15.625 28.734375 -13.335938 28.734375 -10.515625 C 28.734375 -8.285156 28.253906 -6.34375 27.296875 -4.6875 C 26.335938 -3.039062 24.890625 -1.757812 22.953125 -0.84375 C 21.015625 0.0625 18.640625 0.515625 15.828125 0.515625 Z M 15.828125 0.515625 "/></g></g></g><g fill="#ef5b00" fill-opacity="1"><g transform="translate(457.354315, 101.750007)"><g><path d="M 15.828125 0.515625 C 13.347656 0.515625 11.144531 0.210938 9.21875 -0.390625 C 7.289062 -1.003906 5.679688 -1.804688 4.390625 -2.796875 C 3.109375 -3.796875 2.125 -4.890625 1.4375 -6.078125 L 5.328125 -10.8125 L 5.9375 -10.8125 C 7.007812 -9.21875 8.367188 -7.945312 10.015625 -7 C 11.671875 -6.0625 13.609375 -5.59375 15.828125 -5.59375 C 17.710938 -5.59375 19.132812 -5.988281 20.09375 -6.78125 C 21.050781 -7.582031 21.53125 -8.679688 21.53125 -10.078125 C 21.53125 -10.929688 21.375 -11.640625 21.0625 -12.203125 C 20.757812 -12.773438 20.25 -13.265625 19.53125 -13.671875 C 18.8125 -14.078125 17.84375 -14.425781 16.625 -14.71875 L 12.03125 -15.765625 C 8.832031 -16.503906 6.445312 -17.722656 4.875 -19.421875 C 3.300781 -21.117188 2.515625 -23.328125 2.515625 -26.046875 C 2.515625 -28.066406 3.019531 -29.84375 4.03125 -31.375 C 5.039062 -32.90625 6.507812 -34.09375 8.4375 -34.9375 C 10.363281 -35.78125 12.671875 -36.203125 15.359375 -36.203125 C 18.109375 -36.203125 20.460938 -35.835938 22.421875 -35.109375 C 24.378906 -34.390625 26.035156 -33.28125 27.390625 -31.78125 L 23.90625 -27 L 23.296875 -27 C 22.285156 -28.0625 21.128906 -28.851562 19.828125 -29.375 C 18.523438 -29.90625 17.035156 -30.171875 15.359375 -30.171875 C 13.421875 -30.171875 11.945312 -29.828125 10.9375 -29.140625 C 9.925781 -28.460938 9.421875 -27.519531 9.421875 -26.3125 C 9.421875 -25.195312 9.773438 -24.300781 10.484375 -23.625 C 11.191406 -22.957031 12.414062 -22.441406 14.15625 -22.078125 L 18.84375 -21.09375 C 22.3125 -20.363281 24.828125 -19.125 26.390625 -17.375 C 27.953125 -15.625 28.734375 -13.335938 28.734375 -10.515625 C 28.734375 -8.285156 28.253906 -6.34375 27.296875 -4.6875 C 26.335938 -3.039062 24.890625 -1.757812 22.953125 -0.84375 C 21.015625 0.0625 18.640625 0.515625 15.828125 0.515625 Z M 15.828125 0.515625 "/></g></g></g><g fill="#ef5b00" fill-opacity="1"><g transform="translate(488.013585, 101.750007)"><g><path d="M 11.6875 -15.671875 L 11.6875 -5.90625 L 28.734375 -5.90625 L 28.734375 0 L 4.640625 0 L 4.640625 -35.6875 L 28.34375 -35.6875 L 28.34375 -29.78125 L 11.6875 -29.78125 L 11.6875 -21.4375 L 26.25 -21.4375 L 26.25 -15.671875 Z M 11.6875 -15.671875 "/></g></g></g><g fill="#ef5b00" fill-opacity="1"><g transform="translate(518.697253, 101.750007)"><g><path d="M 15.828125 0.515625 C 13.347656 0.515625 11.144531 0.210938 9.21875 -0.390625 C 7.289062 -1.003906 5.679688 -1.804688 4.390625 -2.796875 C 3.109375 -3.796875 2.125 -4.890625 1.4375 -6.078125 L 5.328125 -10.8125 L 5.9375 -10.8125 C 7.007812 -9.21875 8.367188 -7.945312 10.015625 -7 C 11.671875 -6.0625 13.609375 -5.59375 15.828125 -5.59375 C 17.710938 -5.59375 19.132812 -5.988281 20.09375 -6.78125 C 21.050781 -7.582031 21.53125 -8.679688 21.53125 -10.078125 C 21.53125 -10.929688 21.375 -11.640625 21.0625 -12.203125 C 20.757812 -12.773438 20.25 -13.265625 19.53125 -13.671875 C 18.8125 -14.078125 17.84375 -14.425781 16.625 -14.71875 L 12.03125 -15.765625 C 8.832031 -16.503906 6.445312 -17.722656 4.875 -19.421875 C 3.300781 -21.117188 2.515625 -23.328125 2.515625 -26.046875 C 2.515625 -28.066406 3.019531 -29.84375 4.03125 -31.375 C 5.039062 -32.90625 6.507812 -34.09375 8.4375 -34.9375 C 10.363281 -35.78125 12.671875 -36.203125 15.359375 -36.203125 C 18.109375 -36.203125 20.460938 -35.835938 22.421875 -35.109375 C 24.378906 -34.390625 26.035156 -33.28125 27.390625 -31.78125 L 23.90625 -27 L 23.296875 -27 C 22.285156 -28.0625 21.128906 -28.851562 19.828125 -29.375 C 18.523438 -29.90625 17.035156 -30.171875 15.359375 -30.171875 C 13.421875 -30.171875 11.945312 -29.828125 10.9375 -29.140625 C 9.925781 -28.460938 9.421875 -27.519531 9.421875 -26.3125 C 9.421875 -25.195312 9.773438 -24.300781 10.484375 -23.625 C 11.191406 -22.957031 12.414062 -22.441406 14.15625 -22.078125 L 18.84375 -21.09375 C 22.3125 -20.363281 24.828125 -19.125 26.390625 -17.375 C 27.953125 -15.625 28.734375 -13.335938 28.734375 -10.515625 C 28.734375 -8.285156 28.253906 -6.34375 27.296875 -4.6875 C 26.335938 -3.039062 24.890625 -1.757812 22.953125 -0.84375 C 21.015625 0.0625 18.640625 0.515625 15.828125 0.515625 Z M 15.828125 0.515625 "/></g></g></g><g fill="#ef5b00" fill-opacity="1"><g transform="translate(549.356523, 101.750007)"><g><path d="M 15.828125 0.515625 C 13.347656 0.515625 11.144531 0.210938 9.21875 -0.390625 C 7.289062 -1.003906 5.679688 -1.804688 4.390625 -2.796875 C 3.109375 -3.796875 2.125 -4.890625 1.4375 -6.078125 L 5.328125 -10.8125 L 5.9375 -10.8125 C 7.007812 -9.21875 8.367188 -7.945312 10.015625 -7 C 11.671875 -6.0625 13.609375 -5.59375 15.828125 -5.59375 C 17.710938 -5.59375 19.132812 -5.988281 20.09375 -6.78125 C 21.050781 -7.582031 21.53125 -8.679688 21.53125 -10.078125 C 21.53125 -10.929688 21.375 -11.640625 21.0625 -12.203125 C 20.757812 -12.773438 20.25 -13.265625 19.53125 -13.671875 C 18.8125 -14.078125 17.84375 -14.425781 16.625 -14.71875 L 12.03125 -15.765625 C 8.832031 -16.503906 6.445312 -17.722656 4.875 -19.421875 C 3.300781 -21.117188 2.515625 -23.328125 2.515625 -26.046875 C 2.515625 -28.066406 3.019531 -29.84375 4.03125 -31.375 C 5.039062 -32.90625 6.507812 -34.09375 8.4375 -34.9375 C 10.363281 -35.78125 12.671875 -36.203125 15.359375 -36.203125 C 18.109375 -36.203125 20.460938 -35.835938 22.421875 -35.109375 C 24.378906 -34.390625 26.035156 -33.28125 27.390625 -31.78125 L 23.90625 -27 L 23.296875 -27 C 22.285156 -28.0625 21.128906 -28.851562 19.828125 -29.375 C 18.523438 -29.90625 17.035156 -30.171875 15.359375 -30.171875 C 13.421875 -30.171875 11.945312 -29.828125 10.9375 -29.140625 C 9.925781 -28.460938 9.421875 -27.519531 9.421875 -26.3125 C 9.421875 -25.195312 9.773438 -24.300781 10.484375 -23.625 C 11.191406 -22.957031 12.414062 -22.441406 14.15625 -22.078125 L 18.84375 -21.09375 C 22.3125 -20.363281 24.828125 -19.125 26.390625 -17.375 C 27.953125 -15.625 28.734375 -13.335938 28.734375 -10.515625 C 28.734375 -8.285156 28.253906 -6.34375 27.296875 -4.6875 C 26.335938 -3.039062 24.890625 -1.757812 22.953125 -0.84375 C 21.015625 0.0625 18.640625 0.515625 15.828125 0.515625 Z M 15.828125 0.515625 "/></g></g></g><g fill="#ef5b00" fill-opacity="1"><g transform="translate(580.015793, 101.750007)"><g><path d="M 11.109375 0 L 4.640625 0 L 4.640625 -35.6875 L 13.875 -35.6875 L 22.90625 -9.453125 L 23.40625 -9.453125 L 32.390625 -35.6875 L 41.40625 -35.6875 L 41.40625 0 L 34.71875 0 L 34.71875 -23.578125 L 34.109375 -23.6875 L 25.859375 0 L 19.96875 0 L 11.71875 -23.6875 L 11.109375 -23.578125 Z M 11.109375 0 "/></g></g></g><g fill="#ef5b00" fill-opacity="1"><g transform="translate(626.07794, 101.750007)"><g><path d="M 11.6875 -15.671875 L 11.6875 -5.90625 L 28.734375 -5.90625 L 28.734375 0 L 4.640625 0 L 4.640625 -35.6875 L 28.34375 -35.6875 L 28.34375 -29.78125 L 11.6875 -29.78125 L 11.6875 -21.4375 L 26.25 -21.4375 L 26.25 -15.671875 Z M 11.6875 -15.671875 "/></g></g></g><g fill="#ef5b00" fill-opacity="1"><g transform="translate(656.761609, 101.750007)"><g><path d="M 11.46875 0 L 4.640625 0 L 4.640625 -35.6875 L 12.71875 -35.6875 L 27.046875 -12.703125 L 27.6875 -12.796875 L 27.6875 -35.6875 L 34.46875 -35.6875 L 34.46875 0 L 27.25 0 L 12.078125 -24.5625 L 11.46875 -24.46875 Z M 11.46875 0 "/></g></g></g><g fill="#ef5b00" fill-opacity="1"><g transform="translate(695.891246, 101.750007)"><g><path d="M 28.609375 -35.6875 L 28.609375 -29.765625 L 18.3125 -29.765625 L 18.3125 0 L 11.28125 0 L 11.28125 -29.765625 L 0.984375 -29.765625 L 0.984375 -35.6875 Z M 28.609375 -35.6875 "/></g></g></g><g fill="#ef5b00" fill-opacity="1"><g transform="translate(316.913658, 161.500002)"><g><path d="M 34.25 0 L 26.828125 0 L 24.140625 -8.234375 L 10.46875 -8.234375 L 7.78125 0 L 0.53125 0 L 12.859375 -35.6875 L 21.921875 -35.6875 Z M 16.96875 -28.25 L 12.375 -14.15625 L 22.1875 -14.15625 L 17.578125 -28.25 Z M 16.96875 -28.25 "/></g></g></g><g fill="#ef5b00" fill-opacity="1"><g transform="translate(351.69826, 161.500002)"><g><path d="M 18.921875 0.515625 C 14.003906 0.515625 10.359375 -0.648438 7.984375 -2.984375 C 5.609375 -5.328125 4.421875 -8.789062 4.421875 -13.375 L 4.421875 -35.6875 L 11.328125 -35.6875 L 11.328125 -13.421875 C 11.328125 -10.816406 11.953125 -8.863281 13.203125 -7.5625 C 14.460938 -6.257812 16.367188 -5.609375 18.921875 -5.609375 C 23.984375 -5.609375 26.515625 -8.210938 26.515625 -13.421875 L 26.515625 -35.6875 L 33.421875 -35.6875 L 33.421875 -13.375 C 33.421875 -8.789062 32.234375 -5.328125 29.859375 -2.984375 C 27.484375 -0.648438 23.835938 0.515625 18.921875 0.515625 Z M 18.921875 0.515625 "/></g></g></g><g fill="#ef5b00" fill-opacity="1"><g transform="translate(389.534142, 161.500002)"><g><path d="M 15.828125 0.515625 C 13.347656 0.515625 11.144531 0.210938 9.21875 -0.390625 C 7.289062 -1.003906 5.679688 -1.804688 4.390625 -2.796875 C 3.109375 -3.796875 2.125 -4.890625 1.4375 -6.078125 L 5.328125 -10.8125 L 5.9375 -10.8125 C 7.007812 -9.21875 8.367188 -7.945312 10.015625 -7 C 11.671875 -6.0625 13.609375 -5.59375 15.828125 -5.59375 C 17.710938 -5.59375 19.132812 -5.988281 20.09375 -6.78125 C 21.050781 -7.582031 21.53125 -8.679688 21.53125 -10.078125 C 21.53125 -10.929688 21.375 -11.640625 21.0625 -12.203125 C 20.757812 -12.773438 20.25 -13.265625 19.53125 -13.671875 C 18.8125 -14.078125 17.84375 -14.425781 16.625 -14.71875 L 12.03125 -15.765625 C 8.832031 -16.503906 6.445312 -17.722656 4.875 -19.421875 C 3.300781 -21.117188 2.515625 -23.328125 2.515625 -26.046875 C 2.515625 -28.066406 3.019531 -29.84375 4.03125 -31.375 C 5.039062 -32.90625 6.507812 -34.09375 8.4375 -34.9375 C 10.363281 -35.78125 12.671875 -36.203125 15.359375 -36.203125 C 18.109375 -36.203125 20.460938 -35.835938 22.421875 -35.109375 C 24.378906 -34.390625 26.035156 -33.28125 27.390625 -31.78125 L 23.90625 -27 L 23.296875 -27 C 22.285156 -28.0625 21.128906 -28.851562 19.828125 -29.375 C 18.523438 -29.90625 17.035156 -30.171875 15.359375 -30.171875 C 13.421875 -30.171875 11.945312 -29.828125 10.9375 -29.140625 C 9.925781 -28.460938 9.421875 -27.519531 9.421875 -26.3125 C 9.421875 -25.195312 9.773438 -24.300781 10.484375 -23.625 C 11.191406 -22.957031 12.414062 -22.441406 14.15625 -22.078125 L 18.84375 -21.09375 C 22.3125 -20.363281 24.828125 -19.125 26.390625 -17.375 C 27.953125 -15.625 28.734375 -13.335938 28.734375 -10.515625 C 28.734375 -8.285156 28.253906 -6.34375 27.296875 -4.6875 C 26.335938 -3.039062 24.890625 -1.757812 22.953125 -0.84375 C 21.015625 0.0625 18.640625 0.515625 15.828125 0.515625 Z M 15.828125 0.515625 "/></g></g></g><g fill="#ef5b00" fill-opacity="1"><g transform="translate(420.193412, 161.500002)"><g><path d="M 28.609375 -35.6875 L 28.609375 -29.765625 L 18.3125 -29.765625 L 18.3125 0 L 11.28125 0 L 11.28125 -29.765625 L 0.984375 -29.765625 L 0.984375 -35.6875 Z M 28.609375 -35.6875 "/></g></g></g><g fill="#ef5b00" fill-opacity="1"><g transform="translate(449.77863, 161.500002)"><g><path d="M 4.640625 0 L 4.640625 -35.6875 L 18.96875 -35.6875 C 22.664062 -35.6875 25.453125 -34.835938 27.328125 -33.140625 C 29.210938 -31.441406 30.15625 -29.09375 30.15625 -26.09375 C 30.15625 -23.9375 29.601562 -22.164062 28.5 -20.78125 C 27.40625 -19.394531 25.765625 -18.335938 23.578125 -17.609375 L 23.578125 -17.09375 C 24.703125 -16.601562 25.609375 -15.878906 26.296875 -14.921875 C 26.992188 -13.960938 27.648438 -12.535156 28.265625 -10.640625 L 31.84375 0 L 24.578125 0 L 21.09375 -10.671875 C 20.738281 -11.742188 20.335938 -12.578125 19.890625 -13.171875 C 19.441406 -13.765625 18.867188 -14.195312 18.171875 -14.46875 C 17.484375 -14.738281 16.585938 -14.875 15.484375 -14.875 L 11.6875 -14.875 L 11.6875 0 Z M 18.109375 -20.453125 C 21.535156 -20.453125 23.25 -22.050781 23.25 -25.25 C 23.25 -28.488281 21.535156 -30.109375 18.109375 -30.109375 L 11.6875 -30.109375 L 11.6875 -20.453125 Z M 18.109375 -20.453125 "/></g></g></g><g fill="#ef5b00" fill-opacity="1"><g transform="translate(483.147438, 161.500002)"><g><path d="M 34.25 0 L 26.828125 0 L 24.140625 -8.234375 L 10.46875 -8.234375 L 7.78125 0 L 0.53125 0 L 12.859375 -35.6875 L 21.921875 -35.6875 Z M 16.96875 -28.25 L 12.375 -14.15625 L 22.1875 -14.15625 L 17.578125 -28.25 Z M 16.96875 -28.25 "/></g></g></g><g fill="#ef5b00" fill-opacity="1"><g transform="translate(517.932051, 161.500002)"><g><path d="M 11.6875 -35.6875 L 11.6875 -5.90625 L 27.734375 -5.90625 L 27.734375 0 L 4.640625 0 L 4.640625 -35.6875 Z M 11.6875 -35.6875 "/></g></g></g><g fill="#ef5b00" fill-opacity="1"><g transform="translate(546.833783, 161.500002)"><g><path d="M 11.6875 0 L 4.640625 0 L 4.640625 -35.6875 L 11.6875 -35.6875 Z M 11.6875 0 "/></g></g></g><g fill="#ef5b00" fill-opacity="1"><g transform="translate(563.188649, 161.500002)"><g><path d="M 34.25 0 L 26.828125 0 L 24.140625 -8.234375 L 10.46875 -8.234375 L 7.78125 0 L 0.53125 0 L 12.859375 -35.6875 L 21.921875 -35.6875 Z M 16.96875 -28.25 L 12.375 -14.15625 L 22.1875 -14.15625 L 17.578125 -28.25 Z M 16.96875 -28.25 "/></g></g></g><path stroke-linecap="butt" transform="matrix(0.750381, -0.00181781, 0.00181688, 0.749998, 133.349658, 1.499999)" fill="none" stroke-linejoin="miter" d="M 0.000479278 3.000012 L 825.591501 3.001035 " stroke="#ef5b00" stroke-width="6" stroke-opacity="1" stroke-miterlimit="4"/><path stroke-linecap="butt" transform="matrix(0.75, 0, 0, 0.75, -0.000000000000767386, 220.500001)" fill="none" stroke-linejoin="miter" d="M 0.00000000000102318 2.999999 L 1000.000042 2.999999 " stroke="#ef5b00" stroke-width="6" stroke-opacity="1" stroke-miterlimit="4"/><path stroke-linecap="butt" transform="matrix(0.000000000000000046, -0.749867, 0.75, 0.000000000000000046, -0.0017395, 314.257468)" fill="none" stroke-linejoin="miter" d="M -0.000459273 3.002319 L 530.098527 3.002319 " stroke="#ef5b00" stroke-width="6" stroke-opacity="1" stroke-miterlimit="4"/><path stroke-linecap="butt" transform="matrix(0.000000000000000046, -0.749867, 0.75, 0.000000000000000046, 745.498217, 281.410165)" fill="none" stroke-linejoin="miter" d="M 0.0000112348 3.002378 L 530.098997 3.002378 " stroke="#ef5b00" stroke-width="6" stroke-opacity="1" stroke-miterlimit="4"/></svg>